SplineFontDB: 3.2
FontName: Altinn-DIN-Bold
FullName: Altinn-DIN Bold
FamilyName: Altinn-DIN
Weight: Bold
Copyright: Copyright (c) Altinn. All rights reserved.
Version: 1.00
ItalicAngle: 0
UnderlinePosition: -153
UnderlineWidth: 51
Ascent: 782
Descent: 242
InvalidEm: 0
sfntRevision: 0x00010000
LayerCount: 2
Layer: 0 0 "Back" 1
Layer: 1 0 "Fore" 0
XUID: [1021 976 -1802971697 7277]
StyleMap: 0x0020
FSType: 4
OS2Version: 3
OS2_WeightWidthSlopeOnly: 0
OS2_UseTypoMetrics: 1
CreationTime: 1462909513
ModificationTime: 1574284056
PfmFamily: 17
TTFWeight: 700
TTFWidth: 5
LineGap: 88
VLineGap: 0
Panose: 2 11 8 4 3 2 2 3 2 4
OS2TypoAscent: 782
OS2TypoAOffset: 0
OS2TypoDescent: -242
OS2TypoDOffset: 0
OS2TypoLinegap: 0
OS2WinAscent: 924
OS2WinAOffset: 0
OS2WinDescent: 188
OS2WinDOffset: 0
HheadAscent: 851
HheadAOffset: 0
HheadDescent: -173
HheadDOffset: 0
OS2SubXSize: 666
OS2SubYSize: 614
OS2SubXOff: 0
OS2SubYOff: 77
OS2SupXSize: 666
OS2SupYSize: 614
OS2SupXOff: 0
OS2SupYOff: 358
OS2StrikeYSize: 51
OS2StrikeYPos: 319
OS2CapHeight: 707
OS2XHeight: 532
OS2Vendor: 'MONO'
OS2CodePages: 20000001.00000000
OS2UnicodeRanges: 8000006f.4000000a.00000000.00000000
Lookup: 1 0 0 "'aalt' Access All Alternates lookup 0" { "'aalt' Access All Alternates lookup 0 subtable"  } ['aalt' ('DFLT' <'dflt' > ) ]
Lookup: 1 0 0 "'sups' Superscript lookup 1" { "'sups' Superscript lookup 1 subtable" ("superior") } ['sups' ('DFLT' <'dflt' > ) ]
Lookup: 4 0 0 "'frac' Diagonal Fractions lookup 2" { "'frac' Diagonal Fractions lookup 2 subtable"  } ['frac' ('DFLT' <'dflt' > ) ]
Lookup: 6 0 0 "'ordn' Ordinals lookup 3" { "'ordn' Ordinals lookup 3 contextual 0"  "'ordn' Ordinals lookup 3 contextual 1"  } ['ordn' ('DFLT' <'dflt' > ) ]
Lookup: 4 0 0 "'dlig' Discretionary Ligatures lookup 4" { "'dlig' Discretionary Ligatures lookup 4 subtable"  } ['dlig' ('DFLT' <'dflt' > ) ]
Lookup: 4 0 1 "'liga' Standard Ligatures lookup 5" { "'liga' Standard Ligatures lookup 5 subtable"  } ['liga' ('DFLT' <'dflt' > ) ]

StartChar: .notdef
Encoding: 65536 -1 0
Width: 614
Flags: W
HStem: 0 35<138 475> 672 35<138 475>
VStem: 103 35<35 672> 475 35<35 672>
LayerCount: 2
Fore
SplineSet
103 707 m 1
 510 707 l 1
 510 0 l 1
 103 0 l 1
 103 707 l 1
475 35 m 1
 475 672 l 1
 138 672 l 1
 138 35 l 1
 475 35 l 1
EndSplineSet
Validated: 1
EndChar

StartChar: exclam
Encoding: 33 33 3
Width: 254
GlyphClass: 2
Flags: W
HStem: 0 133<60 195> 687 20G<55 200>
VStem: 60 135<0 133> 80 95<236 371.045>
LayerCount: 2
Fore
SplineSet
55 707 m 1xd0
 200 707 l 1
 175 236 l 1
 80 236 l 1
 55 707 l 1xd0
60 133 m 1xe0
 195 133 l 1
 195 0 l 1
 60 0 l 1
 60 133 l 1xe0
EndSplineSet
Validated: 1
EndChar

StartChar: quotedbl
Encoding: 34 34 4
Width: 390
GlyphClass: 2
Flags: W
HStem: 401 306<39 159 232 351>
VStem: 39 120<401 707> 232 119<401 707>
LayerCount: 2
Fore
SplineSet
39 707 m 1
 159 707 l 1
 159 401 l 1
 39 401 l 1
 39 707 l 1
232 707 m 1
 351 707 l 1
 351 401 l 1
 232 401 l 1
 232 707 l 1
EndSplineSet
Validated: 1
EndChar

StartChar: numbersign
Encoding: 35 35 5
Width: 551
GlyphClass: 2
Flags: W
HStem: 0 21G<67 174.679 281 389.679> 209 94<18 94 212 308 427 508> 416 94<44 122 240 336 454 534> 687 20G<157.36 265 371.36 479>
LayerCount: 2
Fore
SplineSet
441 416 m 1
 427 303 l 1
 508 303 l 1
 508 209 l 1
 415 209 l 1
 387 0 l 1
 281 0 l 1
 308 209 l 1
 200 209 l 1
 172 0 l 1
 67 0 l 1
 94 209 l 1
 18 209 l 1
 18 303 l 1
 106 303 l 1
 122 416 l 1
 44 416 l 1
 44 510 l 1
 134 510 l 1
 160 707 l 1
 265 707 l 1
 240 510 l 1
 348 510 l 1
 374 707 l 1
 479 707 l 1
 454 510 l 1
 534 510 l 1
 534 416 l 1
 441 416 l 1
336 416 m 1
 227 416 l 1
 212 303 l 1
 321 303 l 1
 336 416 l 1
EndSplineSet
Validated: 1
EndChar

StartChar: dollar
Encoding: 36 36 6
Width: 514
GlyphClass: 2
Flags: W
HStem: -61 200<199.375 303.771> 574 184<199.609 303.903>
VStem: 30 117<170.637 232> 45 123<444.989 554.343> 199 105<-61 37.1462 671.777 758> 333 121<490 551.279> 338 125<159.243 275.677>
LayerCount: 2
Fore
SplineSet
421 98 m 0xda
 393 65 354 45 304 35 c 1
 304 -61 l 1
 199 -61 l 1
 199 33 l 1
 148 41 107 62 78 96 c 0
 49 130 33 175 30 232 c 1
 147 232 l 1
 151 198 162 174 178 160 c 0
 194 146 218 139 250 139 c 0
 309 139 338 166 338 219 c 0xea
 338 243 333 261 321 274 c 0
 309 287 290 295 264 300 c 2
 214 309 l 2
 157 319 115 339 87 368 c 0
 59 397 45 437 45 488 c 0
 45 539 59 580 86 613 c 0
 113 646 151 667 199 677 c 1
 199 758 l 1
 304 758 l 1
 304 676 l 1
 348 666 384 646 410 614 c 0
 436 582 451 541 454 490 c 1
 333 490 l 1xdc
 330 519 322 541 308 554 c 0
 294 567 274 574 247 574 c 0
 222 574 202 567 188 554 c 0
 174 541 168 523 168 498 c 0
 168 476 174 458 187 446 c 0
 200 434 222 425 251 420 c 2
 309 409 l 2
 360 399 398 379 424 350 c 0
 450 321 463 280 463 229 c 0
 463 174 449 131 421 98 c 0xda
135 707 m 1024
EndSplineSet
Validated: 1
EndChar

StartChar: percent
Encoding: 37 37 7
Width: 925
GlyphClass: 2
Flags: W
HStem: -6 91<718.829 773.982> 270 91<151.775 206.001> 346 90<719.175 773.96> 623 90<152.114 205.478>
VStem: 41 105<376.474 607.526> 211 105<375.428 607.526> 608 106<99.4746 331.526> 778 106<98.4285 331.526>
LayerCount: 2
Fore
SplineSet
74 309 m 0xdf
 52 335 41 372 41 423 c 2
 41 568 l 2
 41 616 52 652 76 676 c 0
 100 700 134 713 179 713 c 0
 226 713 261 701 283 677 c 0
 305 653 316 616 316 568 c 2
 316 423 l 2
 316 372 305 335 283 309 c 0
 261 283 226 270 179 270 c 0
 131 270 96 283 74 309 c 0xdf
609 712 m 1
 711 712 l 1
 315 0 l 1
 215 0 l 1
 609 712 l 1
206 375 m 0
 209 384 211 401 211 428 c 2
 211 555 l 2
 211 581 209 598 205 608 c 0
 201 618 193 623 179 623 c 0
 165 623 157 618 153 608 c 0
 149 598 146 581 146 555 c 2
 146 428 l 2
 146 403 148 386 152 376 c 0
 156 366 165 361 179 361 c 0
 193 361 203 366 206 375 c 0
642 32 m 0
 620 58 608 95 608 146 c 2
 608 292 l 2
 608 340 620 376 644 400 c 0
 668 424 701 436 746 436 c 0xbf
 793 436 828 424 850 400 c 0
 872 376 884 340 884 292 c 2
 884 146 l 2
 884 95 872 58 850 32 c 0
 828 6 793 -6 746 -6 c 0
 698 -6 664 6 642 32 c 0
773 98 m 0
 776 107 778 125 778 152 c 2
 778 279 l 2
 778 305 777 322 773 332 c 0
 769 342 760 346 746 346 c 0
 732 346 724 342 720 332 c 0
 716 322 714 305 714 279 c 2
 714 152 l 2
 714 127 715 109 719 99 c 0
 723 89 732 85 746 85 c 0
 760 85 770 89 773 98 c 0
EndSplineSet
Validated: 1
EndChar

StartChar: ampersand
Encoding: 38 38 8
Width: 612
GlyphClass: 2
Flags: W
HStem: -11 109<188.198 303.289> -0 110<504.281 565> 620 98<229.492 311.439>
VStem: 46 121<120.297 248.509> 97 119<496.305 605.545> 326 116<501.259 605.23>
LayerCount: 2
Fore
SplineSet
543 110 m 2x6c
 565 110 l 1
 565 -0 l 1
 516 -0 l 2x6c
 492 0 473 4 459 13 c 0
 445 22 428 38 410 63 c 2
 406 69 l 1
 381 40 354 19 327 7 c 0
 300 -5 268 -11 233 -11 c 0
 174 -11 128 6 95 40 c 0
 62 74 46 119 46 175 c 0xb4
 46 214 56 251 75 284 c 0
 94 317 126 352 172 390 c 1
 144 429 125 460 114 483 c 0
 103 506 97 529 97 554 c 0
 97 585 105 613 120 638 c 0
 135 663 156 683 182 697 c 0
 208 711 237 718 270 718 c 0
 303 718 334 710 360 696 c 0
 386 682 407 662 421 637 c 0
 435 612 442 585 442 555 c 0
 442 524 434 494 417 467 c 0
 400 440 370 408 327 372 c 1
 416 252 l 1
 486 340 l 1
 566 269 l 1
 481 163 l 1
 501 136 l 2
 515 118 529 110 543 110 c 2x6c
231 603 m 0
 221 592 216 577 216 559 c 0
 216 546 219 533 225 520 c 0
 231 507 243 488 262 461 c 1
 287 482 304 500 313 514 c 0
 322 528 326 543 326 559 c 0
 326 577 320 592 310 603 c 0
 300 614 287 620 271 620 c 0
 255 620 241 614 231 603 c 0
291 111 m 0
 305 120 322 135 341 158 c 1
 238 299 l 1
 212 276 194 257 183 239 c 0
 172 221 167 202 167 184 c 0
 167 157 173 136 187 121 c 0
 201 106 220 98 244 98 c 0xb4
 261 98 277 102 291 111 c 0
EndSplineSet
Validated: 1
EndChar

StartChar: quotesingle
Encoding: 39 39 9
Width: 197
GlyphClass: 2
Flags: W
HStem: 401 306<39 159>
VStem: 39 120<401 707>
LayerCount: 2
Fore
SplineSet
39 707 m 1
 159 707 l 1
 159 401 l 1
 39 401 l 1
 39 707 l 1
EndSplineSet
Validated: 1
EndChar

StartChar: parenleft
Encoding: 40 40 10
Width: 317
GlyphClass: 2
Flags: W
VStem: 46 126<157.056 517.57>
LayerCount: 2
Fore
SplineSet
46 336 m 0
 46 490 90 630 179 758 c 1
 271 758 l 1
 238 693 214 624 197 552 c 0
 180 480 172 408 172 336 c 0
 172 264 181 192 198 120 c 0
 215 48 239 -21 271 -86 c 1
 178 -86 l 1
 90 44 46 185 46 336 c 0
EndSplineSet
Validated: 1
EndChar

StartChar: parenright
Encoding: 41 41 11
Width: 317
GlyphClass: 2
Flags: W
VStem: 145 126<157.056 517.57>
LayerCount: 2
Fore
SplineSet
120 120 m 0
 137 192 145 264 145 336 c 0
 145 408 137 480 120 552 c 0
 103 624 79 693 46 758 c 1
 138 758 l 1
 227 630 271 490 271 336 c 0
 271 185 227 44 139 -86 c 1
 46 -86 l 1
 78 -21 103 48 120 120 c 0
EndSplineSet
Validated: 1
EndChar

StartChar: asterisk
Encoding: 42 42 12
Width: 386
GlyphClass: 2
Flags: W
HStem: 398 309<158 228>
VStem: 158 70<398 497 611 707>
LayerCount: 2
Fore
SplineSet
158 498 m 1
 78 452 l 1
 46 507 l 1
 128 554 l 1
 46 601 l 1
 78 656 l 1
 158 611 l 1
 158 707 l 1
 228 707 l 1
 228 610 l 1
 308 656 l 1
 339 601 l 1
 257 554 l 1
 340 507 l 1
 307 452 l 1
 228 497 l 1
 228 398 l 1
 158 398 l 1
 158 498 l 1
EndSplineSet
Validated: 1
EndChar

StartChar: plus
Encoding: 43 43 13
Width: 541
GlyphClass: 2
Flags: W
HStem: 224 117<49 213 330 493>
VStem: 213 117<60 224 341 505>
LayerCount: 2
Fore
SplineSet
213 224 m 1
 49 224 l 1
 49 341 l 1
 213 341 l 1
 213 505 l 1
 330 505 l 1
 330 341 l 1
 493 341 l 1
 493 224 l 1
 330 224 l 1
 330 60 l 1
 213 60 l 1
 213 224 l 1
EndSplineSet
Validated: 1
EndChar

StartChar: comma
Encoding: 44 44 14
Width: 197
GlyphClass: 2
Flags: W
HStem: -166 306
VStem: 39 120<-65 140>
LayerCount: 2
Fore
SplineSet
39 140 m 1
 159 140 l 1
 159 -65 l 1
 39 -166 l 1
 39 140 l 1
EndSplineSet
Validated: 1
EndChar

StartChar: hyphen
Encoding: 45 45 15
Width: 373
GlyphClass: 2
Flags: W
HStem: 295 118<46 328>
VStem: 46 282<295 413>
LayerCount: 2
Fore
SplineSet
46 413 m 1
 328 413 l 1
 328 295 l 1
 46 295 l 1
 46 413 l 1
EndSplineSet
Validated: 1
EndChar

StartChar: period
Encoding: 46 46 16
Width: 220
GlyphClass: 2
Flags: W
HStem: 0 145<39 181>
VStem: 39 142<0 145>
LayerCount: 2
Fore
SplineSet
39 145 m 1
 181 145 l 1
 181 0 l 1
 39 0 l 1
 39 145 l 1
EndSplineSet
Validated: 1
EndChar

StartChar: slash
Encoding: 47 47 17
Width: 414
GlyphClass: 2
Flags: W
HStem: 692 20G<256.017 369>
VStem: 46 323
LayerCount: 2
Fore
SplineSet
262 712 m 1
 369 712 l 1
 152 -10 l 1
 46 -10 l 1
 262 712 l 1
EndSplineSet
Validated: 1
EndChar

StartChar: zero
Encoding: 48 48 18
Width: 524
GlyphClass: 2
Flags: W
HStem: -11 116<208.558 315.939> 600 118<207.607 316.267>
VStem: 51 135<128.851 578.313> 339 134<128.851 575.898>
LayerCount: 2
Fore
SplineSet
103 50 m 0
 69 91 51 151 51 232 c 2
 51 482 l 2
 51 559 69 618 105 658 c 0
 141 698 193 718 262 718 c 0
 334 718 387 698 421 658 c 0
 455 618 473 560 473 482 c 2
 473 232 l 2
 473 151 455 91 421 50 c 0
 387 9 334 -11 262 -11 c 0
 190 -11 137 9 103 50 c 0
323 137 m 0
 334 158 339 193 339 244 c 2
 339 463 l 2
 339 514 334 549 323 569 c 0
 312 589 292 600 262 600 c 0
 232 600 212 589 202 569 c 0
 192 549 186 514 186 463 c 2
 186 244 l 2
 186 193 191 158 202 137 c 0
 213 116 233 105 262 105 c 0
 292 105 312 116 323 137 c 0
EndSplineSet
Validated: 1
EndChar

StartChar: one
Encoding: 49 49 19
Width: 356
GlyphClass: 2
Flags: W
HStem: 0 21G<156 290> 687 20G<129.556 290>
VStem: 156 134<0 558>
LayerCount: 2
Fore
SplineSet
156 558 m 1
 37 472 l 1
 37 617 l 1
 156 707 l 1
 290 707 l 1
 290 0 l 1
 156 0 l 1
 156 558 l 1
EndSplineSet
Validated: 1
Substitution2: "'sups' Superscript lookup 1 subtable" uni00B9
Substitution2: "'aalt' Access All Alternates lookup 0 subtable" uni00B9
EndChar

StartChar: two
Encoding: 50 50 20
Width: 504
GlyphClass: 2
Flags: W
HStem: 0 118<218 459> 604 114<196.369 302.804>
VStem: 46 130<503 581.292> 323 136<437.09 582.339>
LayerCount: 2
Fore
SplineSet
49 106 m 1
 284 411 l 2
 310 446 323 479 323 510 c 2
 323 524 l 2
 323 549 316 569 303 583 c 0
 290 597 272 604 249 604 c 0
 226 604 209 597 196 582 c 0
 183 567 176 546 176 519 c 2
 176 503 l 1
 46 503 l 1
 46 527 l 2
 46 564 54 597 71 626 c 0
 88 655 112 677 143 693 c 0
 174 709 212 718 254 718 c 0
 295 718 331 709 362 692 c 0
 393 675 417 653 434 624 c 0
 451 595 459 563 459 528 c 2
 459 511 l 2
 459 480 453 452 442 426 c 0
 431 400 415 373 394 346 c 2
 218 118 l 1
 459 118 l 1
 459 0 l 1
 49 0 l 1
 49 106 l 1
EndSplineSet
Validated: 1
Substitution2: "'sups' Superscript lookup 1 subtable" uni00B2
Substitution2: "'aalt' Access All Alternates lookup 0 subtable" uni00B2
EndChar

StartChar: three
Encoding: 51 51 21
Width: 516
GlyphClass: 2
Flags: W
HStem: -11 113<191.135 309.598> 307 114<207 301.339> 604 114<194.147 303.296>
VStem: 46 125<121.613 193 512 583.131> 324 130<443.708 581.293> 335 130<127.755 280.285>
LayerCount: 2
Fore
SplineSet
101 36 m 0xf4
 64 68 46 113 46 171 c 2
 46 193 l 1
 171 193 l 1
 171 177 l 2
 171 152 178 134 192 121 c 0
 206 108 226 102 253 102 c 0
 278 102 298 111 313 127 c 0
 328 143 335 166 335 194 c 2
 335 212 l 2xf4
 335 243 327 267 311 283 c 0
 295 299 273 307 243 307 c 2
 207 307 l 1
 207 421 l 1
 242 421 l 2
 268 421 288 428 302 443 c 0
 316 458 324 479 324 506 c 2
 324 521 l 2
 324 547 317 567 304 582 c 0
 291 597 272 604 249 604 c 0
 225 604 207 597 194 584 c 0
 181 571 174 552 174 529 c 2
 174 512 l 1
 51 512 l 1
 51 529 l 2
 51 588 69 635 105 668 c 0
 141 701 191 718 254 718 c 0
 316 718 365 701 400 667 c 0
 435 633 454 588 454 531 c 2
 454 516 l 2xf8
 454 485 446 458 432 434 c 0
 418 410 398 390 371 376 c 1
 402 363 425 342 441 314 c 0
 457 286 465 253 465 213 c 2
 465 194 l 2
 465 152 456 116 438 85 c 0
 420 54 396 31 364 14 c 0
 332 -3 295 -11 255 -11 c 0
 189 -11 138 4 101 36 c 0xf4
EndSplineSet
Validated: 1
Substitution2: "'sups' Superscript lookup 1 subtable" uni00B3
Substitution2: "'aalt' Access All Alternates lookup 0 subtable" uni00B3
EndChar

StartChar: four
Encoding: 52 52 22
Width: 533
GlyphClass: 2
Flags: W
HStem: 0 21G<306 440> 113 117<170 306 440 498> 687 20G<229.53 372>
VStem: 306 134<0 113 230 396>
LayerCount: 2
Fore
SplineSet
498 113 m 1
 440 113 l 1
 440 0 l 1
 306 0 l 1
 306 113 l 1
 36 113 l 1
 36 230 l 1
 238 707 l 1
 372 707 l 1
 170 230 l 1
 306 230 l 1
 306 396 l 1
 440 396 l 1
 440 230 l 1
 498 230 l 1
 498 113 l 1
EndSplineSet
Validated: 1
EndChar

StartChar: five
Encoding: 53 53 23
Width: 508
GlyphClass: 2
Flags: W
HStem: -11 113<194.024 305.734> 352 113<194.287 307.47> 592 115<177 443>
VStem: 51 123<121.886 178> 61 116<304 335.078 432 592> 328 130<127.803 327.243>
LayerCount: 2
Fore
SplineSet
105 35 m 0xec
 69 66 51 108 51 163 c 2
 51 178 l 1
 174 178 l 1
 174 172 l 2xf4
 174 150 181 133 195 121 c 0
 209 109 227 102 251 102 c 0
 277 102 296 110 309 127 c 0
 322 144 328 169 328 201 c 2
 328 254 l 2
 328 287 322 312 309 328 c 0
 296 344 277 352 250 352 c 0
 216 352 191 336 177 304 c 1
 61 304 l 1
 61 707 l 1
 443 707 l 1
 443 592 l 1
 177 592 l 1
 177 432 l 1
 204 454 238 465 278 465 c 0
 337 465 382 447 412 412 c 0
 442 377 458 327 458 261 c 2
 458 195 l 2
 458 130 440 79 403 43 c 0
 366 7 316 -11 251 -11 c 0
 190 -11 141 4 105 35 c 0xec
EndSplineSet
Validated: 1
EndChar

StartChar: six
Encoding: 54 54 24
Width: 528
GlyphClass: 2
Flags: W
HStem: -11 113<206.624 322.476> 319 112<249.853 323.59> 687 20G<243.714 395>
VStem: 46 135<127.755 294.246> 348 134<127.756 294.245>
LayerCount: 2
Fore
SplineSet
104 44 m 0
 65 81 46 132 46 198 c 2
 46 229 l 2
 46 257 50 284 58 309 c 0
 66 334 77 362 92 392 c 2
 254 707 l 1
 395 707 l 1
 249 421 l 1
 264 428 281 431 300 431 c 0
 355 431 400 413 433 378 c 0
 466 343 482 295 482 234 c 2
 482 202 l 2
 482 135 462 83 422 45 c 0
 382 7 330 -11 264 -11 c 0
 196 -11 143 7 104 44 c 0
326 127 m 0
 341 143 348 167 348 196 c 2
 348 227 l 2
 348 256 341 279 326 295 c 0
 311 311 290 319 264 319 c 0
 238 319 218 311 203 295 c 0
 188 279 181 257 181 228 c 2
 181 195 l 2
 181 166 188 143 203 127 c 0
 218 111 238 102 264 102 c 0
 290 102 311 111 326 127 c 0
EndSplineSet
Validated: 1
EndChar

StartChar: seven
Encoding: 55 55 25
Width: 467
GlyphClass: 2
Flags: W
HStem: 0 21G<87 229.288> 590 117<31 306>
LayerCount: 2
Fore
SplineSet
437 707 m 1
 437 590 l 1
 222 0 l 1
 87 0 l 1
 306 590 l 1
 31 590 l 1
 31 707 l 1
 437 707 l 1
EndSplineSet
Validated: 1
EndChar

StartChar: eight
Encoding: 56 56 26
Width: 537
GlyphClass: 2
Flags: W
HStem: -11 113<210.242 329.138> 313 111<214.659 324.302> 604 114<215.799 323.776>
VStem: 51 130<131.65 284.743> 65 129<446.707 581.294> 345 129<447.707 581.294> 357 129<130.049 285.375>
LayerCount: 2
Fore
SplineSet
157 14 m 0xe2
 124 31 98 55 79 86 c 0
 60 117 51 154 51 195 c 2
 51 218 l 2xf2
 51 250 59 280 74 307 c 0
 89 334 110 355 137 371 c 1
 115 384 97 401 84 425 c 0
 71 449 65 476 65 507 c 2
 65 525 l 2
 65 560 73 593 90 622 c 0
 107 651 130 675 161 692 c 0
 192 709 227 718 269 718 c 0
 311 718 347 709 378 692 c 0
 409 675 434 651 450 622 c 0
 466 593 474 560 474 525 c 2
 474 507 l 2xec
 474 477 468 450 454 426 c 0
 440 402 422 384 401 371 c 1
 428 355 449 333 464 306 c 0
 479 279 486 250 486 219 c 2
 486 196 l 2
 486 154 477 117 458 86 c 0
 439 55 413 31 380 14 c 0
 347 -3 310 -11 268 -11 c 0
 226 -11 190 -3 157 14 c 0xe2
325 447 m 0
 339 462 345 482 345 506 c 2
 345 525 l 2
 345 548 338 567 324 582 c 0
 310 597 292 604 269 604 c 0
 246 604 229 597 215 582 c 0
 201 567 194 548 194 525 c 2
 194 506 l 2xec
 194 481 200 461 214 446 c 0
 228 431 246 424 269 424 c 0
 292 424 311 432 325 447 c 0
333 128 m 0
 349 145 357 168 357 197 c 2
 357 221 l 2
 357 248 349 271 333 288 c 0
 317 305 296 313 269 313 c 0
 243 313 222 305 206 288 c 0
 190 271 181 248 181 221 c 2
 181 197 l 2xf2
 181 169 189 146 205 129 c 0
 221 112 242 102 269 102 c 0
 296 102 317 111 333 128 c 0
EndSplineSet
Validated: 1
EndChar

StartChar: nine
Encoding: 57 57 27
Width: 528
GlyphClass: 2
Flags: W
HStem: 0 21G<133 284.318> 275 112<204.935 279.202> 604 114<205.293 323.483>
VStem: 46 134<413.702 579.244> 347 135<411.754 579.245>
LayerCount: 2
Fore
SplineSet
280 286 m 1
 265 279 247 275 228 275 c 0
 173 275 129 293 96 328 c 0
 63 363 46 411 46 472 c 2
 46 505 l 2
 46 572 66 624 106 662 c 0
 146 700 198 718 264 718 c 0
 332 718 385 700 424 663 c 0
 463 626 482 575 482 509 c 2
 482 477 l 2
 482 450 479 424 471 398 c 0
 463 372 451 344 436 314 c 2
 274 0 l 1
 133 0 l 1
 280 286 l 1
325 411 m 0
 340 427 347 449 347 478 c 2
 347 512 l 2
 347 541 340 564 325 580 c 0
 310 596 290 604 264 604 c 0
 238 604 218 596 203 580 c 0
 188 564 180 540 180 511 c 2
 180 479 l 2
 180 450 188 427 203 411 c 0
 218 395 238 387 264 387 c 0
 290 387 310 395 325 411 c 0
EndSplineSet
Validated: 1
EndChar

StartChar: colon
Encoding: 58 58 28
Width: 220
GlyphClass: 2
Flags: W
HStem: 0 145<39 181> 346 146<39 181>
VStem: 39 142<0 145 346 492>
LayerCount: 2
Fore
SplineSet
39 145 m 1
 181 145 l 1
 181 0 l 1
 39 0 l 1
 39 145 l 1
39 492 m 1
 181 492 l 1
 181 346 l 1
 39 346 l 1
 39 492 l 1
111 532 m 1024
EndSplineSet
Validated: 1
EndChar

StartChar: semicolon
Encoding: 59 59 29
Width: 220
GlyphClass: 2
Flags: W
HStem: 346 146<39 181>
VStem: 39 142<346 492> 59 120<-65 140>
LayerCount: 2
Fore
SplineSet
39 492 m 1xc0
 181 492 l 1
 181 346 l 1
 39 346 l 1
 39 492 l 1xc0
59 140 m 1xa0
 179 140 l 1
 179 -65 l 1
 59 -166 l 1
 59 140 l 1xa0
106 532 m 1024
EndSplineSet
Validated: 1
EndChar

StartChar: less
Encoding: 60 60 30
Width: 541
GlyphClass: 2
Flags: W
LayerCount: 2
Fore
SplineSet
49 228 m 1
 49 334 l 1
 492 507 l 1
 492 389 l 1
 207 281 l 1
 492 173 l 1
 492 54 l 1
 49 228 l 1
EndSplineSet
Validated: 1
EndChar

StartChar: equal
Encoding: 61 61 31
Width: 541
GlyphClass: 2
Flags: W
HStem: 118 115<49 492> 332 115<49 492>
LayerCount: 2
Fore
SplineSet
49 447 m 1
 492 447 l 1
 492 332 l 1
 49 332 l 1
 49 447 l 1
49 233 m 1
 492 233 l 1
 492 118 l 1
 49 118 l 1
 49 233 l 1
EndSplineSet
Validated: 1
EndChar

StartChar: greater
Encoding: 62 62 32
Width: 541
GlyphClass: 2
Flags: W
LayerCount: 2
Fore
SplineSet
49 173 m 1
 334 281 l 1
 49 389 l 1
 49 507 l 1
 492 334 l 1
 492 228 l 1
 49 54 l 1
 49 173 l 1
EndSplineSet
Validated: 1
EndChar

StartChar: question
Encoding: 63 63 33
Width: 461
GlyphClass: 2
Flags: W
HStem: 0 129<157 291> 601 116<168.278 278.694>
VStem: 28 124<520 580.385> 157 134<0 129> 161 127<198 312.58> 296 131<463.904 583.476>
LayerCount: 2
Fore
SplineSet
161 250 m 2xec
 161 277 163 297 168 313 c 0
 173 329 185 349 203 372 c 2
 259 444 l 2
 273 462 283 477 288 490 c 0
 293 503 296 516 296 530 c 0
 296 552 290 569 278 582 c 0
 266 595 248 601 223 601 c 0
 198 601 180 594 169 581 c 0
 158 568 153 547 152 520 c 1
 28 520 l 1
 29 584 47 634 81 667 c 0
 115 700 164 717 227 717 c 0
 267 717 302 709 332 693 c 0
 362 677 386 656 402 628 c 0
 418 600 427 570 427 535 c 0
 427 510 423 487 415 466 c 0
 407 445 393 423 375 399 c 2
 315 319 l 2
 304 305 297 293 293 282 c 0
 289 271 288 258 288 241 c 2
 288 198 l 1
 161 198 l 1
 161 250 l 2xec
157 129 m 1xf4
 291 129 l 1
 291 0 l 1
 157 0 l 1
 157 129 l 1xf4
EndSplineSet
Validated: 1
EndChar

StartChar: at
Encoding: 64 64 34
Width: 893
GlyphClass: 2
Flags: W
HStem: -139 102<323.392 588.42> 55 95<394.987 491.707 637.012 717.128> 421 96<393.652 486.756> 612 103<320.742 575.786>
VStem: 46 115<127.477 451.757> 260 115<176.756 396.246> 512 114<169.717 403.69 465 506> 733 115<175.803 453.494>
LayerCount: 2
Fore
SplineSet
239 -90 m 0
 178 -57 131 -11 97 48 c 0
 63 107 46 175 46 252 c 2
 46 324 l 2
 46 401 63 469 97 528 c 0
 131 587 178 633 239 666 c 0
 300 699 368 715 447 715 c 0
 524 715 593 698 654 666 c 0
 715 634 763 588 797 529 c 0
 831 470 848 404 848 329 c 2
 848 257 l 2
 848 191 832 141 799 107 c 0
 766 73 725 55 675 55 c 0
 644 55 618 61 596 73 c 0
 574 85 558 101 546 122 c 1
 524 78 481 55 415 55 c 0
 312 55 260 117 260 241 c 2
 260 331 l 2
 260 390 272 435 296 468 c 0
 320 501 358 517 408 517 c 0
 433 517 454 513 473 503 c 0
 492 493 505 481 514 465 c 1
 514 506 l 1
 626 506 l 1
 626 214 l 2
 626 192 630 176 639 165 c 0
 648 154 661 150 676 150 c 0
 695 150 709 158 719 175 c 0
 729 192 733 218 733 256 c 2
 733 328 l 2
 733 386 722 436 699 479 c 0
 676 522 644 555 601 578 c 0
 558 601 506 612 447 612 c 0
 358 612 288 587 237 536 c 0
 186 485 161 415 161 326 c 2
 161 253 l 2
 161 195 172 144 195 100 c 0
 218 56 251 23 294 -1 c 0
 337 -25 388 -37 447 -37 c 0
 488 -37 525 -33 558 -24 c 0
 591 -15 624 -3 659 15 c 1
 705 -72 l 1
 665 -95 625 -112 584 -123 c 0
 543 -134 497 -139 447 -139 c 0
 368 -139 300 -123 239 -90 c 0
512 244 m 2
 512 330 l 2
 512 391 489 421 444 421 c 0
 420 421 403 413 392 397 c 0
 381 381 375 359 375 331 c 2
 375 247 l 2
 375 216 380 192 391 176 c 0
 402 160 419 152 444 152 c 0
 489 152 512 183 512 244 c 2
EndSplineSet
Validated: 1
EndChar

StartChar: A
Encoding: 65 65 35
Width: 620
GlyphClass: 2
Flags: W
HStem: 0 21G<4 151.277 467.723 616> 137 112<224 395> 687 20G<247.9 372.1>
AnchorPoint: "Anchor-0" 310 707 basechar 0
LayerCount: 2
Fore
SplineSet
431 137 m 1
 188 137 l 1
 145 0 l 1
 4 0 l 1
 255 707 l 1
 365 707 l 1
 616 0 l 1
 474 0 l 1
 431 137 l 1
395 249 m 1
 309 520 l 1
 224 249 l 1
 395 249 l 1
EndSplineSet
Validated: 1
Substitution2: "Single Substitution lookup 6 subtable" ordfeminine
Substitution2: "'aalt' Access All Alternates lookup 0 subtable" ordfeminine
EndChar

StartChar: B
Encoding: 66 66 36
Width: 612
GlyphClass: 2
Flags: W
HStem: 0 117<195 398.008> 301 117<195 392.245> 590 117<195 390.275>
VStem: 60 135<117 301 418 590> 417 135<441.661 565.137> 427 134<143.958 275.938>
LayerCount: 2
Fore
SplineSet
536 301 m 0xf8
 553 274 561 241 561 203 c 0xf4
 561 139 542 88 504 53 c 0
 466 18 412 0 344 0 c 2
 60 0 l 1
 60 707 l 1
 333 707 l 2
 402 707 455 689 494 655 c 0
 533 621 552 573 552 510 c 0
 552 479 544 449 528 423 c 0
 512 397 491 378 463 364 c 1
 495 350 519 328 536 301 c 0xf8
195 590 m 1
 195 418 l 1
 323 418 l 2
 354 418 377 425 393 440 c 0
 409 455 417 475 417 502 c 0xf8
 417 531 409 552 393 567 c 0
 377 582 354 590 323 590 c 2
 195 590 l 1
403 142 m 0
 419 159 427 182 427 212 c 0xf4
 427 240 419 262 403 278 c 0
 387 294 363 301 331 301 c 2
 195 301 l 1
 195 117 l 1
 331 117 l 2
 363 117 387 125 403 142 c 0
EndSplineSet
Validated: 1
EndChar

StartChar: C
Encoding: 67 67 37
Width: 614
GlyphClass: 2
Flags: W
HStem: -8 120<234.076 389.839> 599 118<233.887 385.214>
VStem: 51 135<170.18 544.881> 429 132<152.285 234 475 555.536>
LayerCount: 2
Fore
SplineSet
51 273 m 2
 51 435 l 2
 51 623 137 717 310 717 c 0
 387 717 449 696 495 655 c 0
 541 614 563 556 563 482 c 2
 563 475 l 1
 429 475 l 1
 429 481 l 2
 429 517 419 546 398 567 c 0
 377 588 347 599 309 599 c 0
 266 599 235 586 216 559 c 0
 197 532 186 489 186 428 c 2
 186 275 l 2
 186 218 197 177 217 151 c 0
 237 125 268 112 311 112 c 0
 349 112 379 122 399 142 c 0
 419 162 429 191 429 226 c 2
 429 234 l 1
 561 234 l 1
 561 227 l 2
 561 151 539 94 494 53 c 0
 449 12 387 -8 308 -8 c 0
 137 -8 51 85 51 273 c 2
EndSplineSet
Validated: 1
EndChar

StartChar: D
Encoding: 68 68 38
Width: 614
GlyphClass: 2
Flags: W
HStem: 0 117<195 381.03> 590 117<195 378.082>
VStem: 60 135<117 590> 429 134<170.388 536.657>
LayerCount: 2
Fore
SplineSet
60 707 m 1
 309 707 l 2
 388 707 450 685 495 641 c 0
 540 597 563 526 563 426 c 2
 563 282 l 2
 563 182 540 110 494 66 c 0
 448 22 384 0 305 0 c 2
 60 0 l 1
 60 707 l 1
308 117 m 2
 348 117 379 130 399 157 c 0
 419 184 429 226 429 283 c 2
 429 419 l 2
 429 479 419 522 399 549 c 0
 379 576 349 590 308 590 c 2
 195 590 l 1
 195 117 l 1
 308 117 l 2
EndSplineSet
Validated: 1
EndChar

StartChar: E
Encoding: 69 69 39
Width: 544
GlyphClass: 2
Flags: W
HStem: 0 117<195 509> 298 117<195 463> 590 117<195 509>
VStem: 60 135<117 298 415 590>
AnchorPoint: "Anchor-0" 274 707 basechar 0
LayerCount: 2
Fore
SplineSet
195 590 m 1
 195 415 l 1
 463 415 l 1
 463 298 l 1
 195 298 l 1
 195 117 l 1
 509 117 l 1
 509 0 l 1
 60 0 l 1
 60 707 l 1
 509 707 l 1
 509 590 l 1
 195 590 l 1
EndSplineSet
Validated: 1
EndChar

StartChar: F
Encoding: 70 70 40
Width: 539
GlyphClass: 2
Flags: W
HStem: 0 21G<60 195> 292 117<195 464> 590 117<195 509>
VStem: 60 135<0 292 409 590>
LayerCount: 2
Fore
SplineSet
195 590 m 1
 195 409 l 1
 464 409 l 1
 464 292 l 1
 195 292 l 1
 195 0 l 1
 60 0 l 1
 60 707 l 1
 509 707 l 1
 509 590 l 1
 195 590 l 1
EndSplineSet
Validated: 1
EndChar

StartChar: G
Encoding: 71 71 41
Width: 614
GlyphClass: 2
Flags: W
HStem: -8 120<234.263 394.474> 273 111<307 432> 599 118<233.887 385.214>
VStem: 51 135<170.18 544.881> 432 131<150.718 273 480 552.368>
LayerCount: 2
Fore
SplineSet
51 273 m 2
 51 435 l 2
 51 623 137 717 310 717 c 0
 387 717 449 697 495 656 c 0
 541 615 563 559 563 487 c 2
 563 480 l 1
 429 480 l 1
 429 487 l 2
 429 519 419 546 398 567 c 0
 377 588 347 599 309 599 c 0
 266 599 235 586 216 559 c 0
 197 532 186 489 186 428 c 2
 186 275 l 2
 186 217 197 176 218 150 c 0
 239 124 270 112 314 112 c 0
 355 112 385 122 404 143 c 0
 423 164 432 197 432 240 c 2
 432 273 l 1
 307 273 l 1
 307 384 l 1
 563 384 l 1
 563 263 l 2
 563 82 478 -8 308 -8 c 0
 137 -8 51 85 51 273 c 2
EndSplineSet
Validated: 1
EndChar

StartChar: H
Encoding: 72 72 42
Width: 623
GlyphClass: 2
Flags: W
HStem: 0 21G<60 195 429 563> 299 117<195 429> 687 20G<60 195 429 563>
VStem: 60 135<0 299 416 707> 429 134<0 299 416 707>
LayerCount: 2
Fore
SplineSet
563 707 m 1
 563 0 l 1
 429 0 l 1
 429 299 l 1
 195 299 l 1
 195 0 l 1
 60 0 l 1
 60 707 l 1
 195 707 l 1
 195 416 l 1
 429 416 l 1
 429 707 l 1
 563 707 l 1
EndSplineSet
Validated: 1
EndChar

StartChar: I
Encoding: 73 73 43
Width: 267
GlyphClass: 2
Flags: W
HStem: 0 21G<67 201> 687 20G<67 201>
VStem: 67 134<0 707>
AnchorPoint: "Anchor-0" 133 707 basechar 0
LayerCount: 2
Fore
SplineSet
67 707 m 1
 201 707 l 1
 201 0 l 1
 67 0 l 1
 67 707 l 1
EndSplineSet
Validated: 1
EndChar

StartChar: J
Encoding: 74 74 44
Width: 338
GlyphClass: 2
Flags: W
HStem: 0 118<25 123.574> 687 20G<137 272>
VStem: 137 135<133.473 707>
LayerCount: 2
Fore
SplineSet
25 118 m 1
 80 118 l 2
 101 118 115 123 124 133 c 0
 133 143 137 159 137 184 c 2
 137 707 l 1
 272 707 l 1
 272 162 l 2
 272 110 258 70 230 42 c 0
 202 14 162 0 111 0 c 2
 25 0 l 1
 25 118 l 1
EndSplineSet
Validated: 1
EndChar

StartChar: K
Encoding: 75 75 45
Width: 624
GlyphClass: 2
Flags: W
HStem: 0 21G<60 195 451.854 618> 687 20G<60 195 424.212 600>
VStem: 60 135<0 198 377 707>
LayerCount: 2
Fore
SplineSet
288 314 m 1
 195 198 l 1
 195 0 l 1
 60 0 l 1
 60 707 l 1
 195 707 l 1
 195 377 l 1
 439 707 l 1
 600 707 l 1
 374 423 l 1
 618 0 l 1
 463 0 l 1
 288 314 l 1
EndSplineSet
Validated: 1
EndChar

StartChar: L
Encoding: 76 76 46
Width: 528
GlyphClass: 2
Flags: W
HStem: 0 117<195 504> 687 20G<60 195>
VStem: 60 135<117 707>
LayerCount: 2
Fore
SplineSet
60 707 m 1
 195 707 l 1
 195 117 l 1
 504 117 l 1
 504 0 l 1
 60 0 l 1
 60 707 l 1
EndSplineSet
Validated: 1
EndChar

StartChar: M
Encoding: 77 77 47
Width: 749
GlyphClass: 2
Flags: W
HStem: 0 21G<60 195 555 689> 687 20G<60 204.258 545.844 689>
VStem: 60 135<0 422> 555 134<0 419>
LayerCount: 2
Fore
SplineSet
689 707 m 1
 689 0 l 1
 555 0 l 1
 555 419 l 1
 421 136 l 1
 331 136 l 1
 195 422 l 1
 195 0 l 1
 60 0 l 1
 60 707 l 1
 195 707 l 1
 376 316 l 1
 555 707 l 1
 689 707 l 1
EndSplineSet
Validated: 1
EndChar

StartChar: N
Encoding: 78 78 48
Width: 649
GlyphClass: 2
Flags: W
HStem: 0 21G<60 195 443.209 589> 687 20G<60 206.738 455 589>
VStem: 60 135<0 441> 455 134<264 707>
AnchorPoint: "Anchor-0" 325 707 basechar 0
LayerCount: 2
Fore
SplineSet
589 707 m 1
 589 0 l 1
 455 0 l 1
 195 441 l 1
 195 0 l 1
 60 0 l 1
 60 707 l 1
 195 707 l 1
 455 264 l 1
 455 707 l 1
 589 707 l 1
EndSplineSet
Validated: 1
EndChar

StartChar: O
Encoding: 79 79 49
Width: 614
GlyphClass: 2
Flags: W
HStem: -8 120<230.67 380.953> 599 118<232.787 381.21>
VStem: 51 135<163.242 544.881> 429 134<165.349 546.604>
AnchorPoint: "Anchor-0" 307 707 basechar 0
LayerCount: 2
Fore
SplineSet
51 273 m 2
 51 435 l 2
 51 623 137 717 308 717 c 0
 387 717 449 695 495 651 c 0
 541 607 563 535 563 435 c 2
 563 273 l 2
 563 173 540 102 493 58 c 0
 446 14 383 -8 304 -8 c 0
 135 -8 51 85 51 273 c 2
399 151 m 0
 419 177 429 218 429 275 c 2
 429 428 l 2
 429 488 419 532 399 559 c 0
 379 586 349 599 308 599 c 0
 265 599 234 586 215 560 c 0
 196 534 186 489 186 428 c 2
 186 275 l 2
 186 217 196 176 215 150 c 0
 234 124 265 112 308 112 c 0
 349 112 379 125 399 151 c 0
EndSplineSet
Validated: 1
Substitution2: "Single Substitution lookup 6 subtable" ordmasculine
Substitution2: "'aalt' Access All Alternates lookup 0 subtable" ordmasculine
EndChar

StartChar: P
Encoding: 80 80 50
Width: 580
GlyphClass: 2
Flags: W
HStem: 0 21G<60 195> 268 118<195 387.843> 590 117<195 387.843>
VStem: 60 135<0 268 386 590> 422 134<418.025 557.877>
LayerCount: 2
Fore
SplineSet
494 647 m 0
 535 607 556 553 556 484 c 0
 556 418 535 366 494 327 c 0
 453 288 397 268 325 268 c 2
 195 268 l 1
 195 0 l 1
 60 0 l 1
 60 707 l 1
 325 707 l 2
 397 707 453 687 494 647 c 0
394 412 m 0
 412 429 422 453 422 484 c 0
 422 518 413 545 395 563 c 0
 377 581 351 590 318 590 c 2
 195 590 l 1
 195 386 l 1
 318 386 l 2
 350 386 376 395 394 412 c 0
EndSplineSet
Validated: 1
EndChar

StartChar: Q
Encoding: 81 81 51
Width: 614
GlyphClass: 2
Flags: W
HStem: -158 21G<428.15 475.14> -8 120<230.67 362.428> 599 118<232.787 381.21>
VStem: 51 135<163.242 544.881> 429 134<164.345 546.604>
AnchorPoint: "Anchor-0" 307 707 basechar 0
LayerCount: 2
Fore
SplineSet
467 36 m 1
 542 -101 l 1
 439 -158 l 1
 356 -5 l 1
 340 -7 322 -8 304 -8 c 0
 135 -8 51 85 51 273 c 2
 51 435 l 2
 51 623 137 717 308 717 c 0
 387 717 449 695 495 651 c 0
 541 607 563 535 563 435 c 2
 563 273 l 2
 563 160 531 81 467 36 c 1
215 150 m 0
 234 124 265 112 308 112 c 0
 349 112 379 125 399 151 c 0
 419 177 429 218 429 275 c 2
 429 428 l 2
 429 488 419 532 399 559 c 0
 379 586 349 599 308 599 c 0
 265 599 234 586 215 560 c 0
 196 534 186 489 186 428 c 2
 186 275 l 2
 186 217 196 176 215 150 c 0
EndSplineSet
Validated: 1
EndChar

StartChar: R
Encoding: 82 82 52
Width: 614
GlyphClass: 2
Flags: W
HStem: 0 21G<60 195 419.662 584> 287 111<195 295> 590 117<195 389.586>
VStem: 60 135<0 287 398 590> 421 134<427.599 558.597>
LayerCount: 2
Fore
SplineSet
295 287 m 1
 195 287 l 1
 195 -0 l 1
 60 -0 l 1
 60 707 l 1
 329 707 l 2
 398 707 453 688 494 650 c 0
 535 612 555 561 555 496 c 0
 555 450 545 410 523 378 c 0
 501 346 470 322 430 307 c 1
 584 0 l 1
 429 0 l 1
 295 287 l 1
195 398 m 1
 322 398 l 2
 353 398 378 406 395 423 c 0
 412 440 421 465 421 496 c 0
 421 525 412 547 394 564 c 0
 376 581 353 590 322 590 c 2
 195 590 l 1
 195 398 l 1
EndSplineSet
Validated: 1
EndChar

StartChar: S
Encoding: 83 83 53
Width: 561
GlyphClass: 2
Flags: W
HStem: -6 115<193.288 362.754> 604 113<200.401 352.154>
VStem: 26 127<149.868 215> 41 130<458.767 574.969> 384 129<506 572.423> 393 132<137.973 265.772>
AnchorPoint: "Anchor-0" 279 707 basechar 0
LayerCount: 2
Fore
SplineSet
96 51 m 0xd4
 54 89 31 143 26 215 c 1
 153 215 l 1
 158 176 170 149 190 133 c 0
 210 117 240 109 280 109 c 0
 356 109 393 140 393 202 c 0xe4
 393 230 386 251 371 266 c 0
 356 281 332 291 299 296 c 2
 232 307 l 2
 104 328 41 394 41 504 c 0
 41 570 63 621 106 659 c 0
 149 697 207 717 279 717 c 0
 349 717 403 699 444 662 c 0
 485 625 508 573 513 506 c 1
 384 506 l 1xd8
 382 540 372 565 354 581 c 0
 336 597 310 604 276 604 c 0
 241 604 216 596 198 580 c 0
 180 564 171 542 171 514 c 0
 171 489 179 470 195 456 c 0
 211 442 235 431 268 425 c 2
 343 412 l 2
 465 390 525 324 525 213 c 0
 525 142 502 88 457 50 c 0
 412 12 350 -6 273 -6 c 0
 197 -6 138 13 96 51 c 0xd4
EndSplineSet
Validated: 1
EndChar

StartChar: T
Encoding: 84 84 54
Width: 507
GlyphClass: 2
Flags: W
HStem: 0 21G<186 322> 590 117<6 186 322 502>
VStem: 186 136<0 590>
LayerCount: 2
Fore
SplineSet
502 590 m 1
 322 590 l 1
 322 0 l 1
 186 0 l 1
 186 590 l 1
 6 590 l 1
 6 707 l 1
 502 707 l 1
 502 590 l 1
EndSplineSet
Validated: 1
EndChar

StartChar: U
Encoding: 85 85 55
Width: 628
GlyphClass: 2
Flags: W
HStem: -6 117<238.899 387.939> 687 20G<60 195 433 568>
VStem: 60 135<155.037 707> 433 135<156.22 707>
AnchorPoint: "Anchor-0" 314 707 basechar 0
LayerCount: 2
Fore
SplineSet
184 24 m 0
 145 44 115 72 93 109 c 0
 71 146 60 187 60 233 c 2
 60 707 l 1
 195 707 l 1
 195 238 l 2
 195 198 205 166 226 144 c 0
 247 122 276 111 313 111 c 0
 350 111 379 122 401 144 c 0
 423 166 433 198 433 238 c 2
 433 707 l 1
 568 707 l 1
 568 233 l 2
 568 187 557 146 535 109 c 0
 513 72 483 44 444 24 c 0
 405 4 361 -6 313 -6 c 0
 265 -6 223 4 184 24 c 0
EndSplineSet
Validated: 1
EndChar

StartChar: V
Encoding: 86 86 56
Width: 567
GlyphClass: 2
Flags: W
HStem: 0 21G<222.635 343.393> 687 20G<4 149.726 417.315 563>
LayerCount: 2
Fore
SplineSet
4 707 m 1
 144 707 l 1
 284 218 l 1
 423 707 l 1
 563 707 l 1
 337 0 l 1
 229 0 l 1
 4 707 l 1
EndSplineSet
Validated: 1
EndChar

StartChar: W
Encoding: 87 87 57
Width: 852
GlyphClass: 2
Flags: W
HStem: 0 21G<173.078 304.895 552.067 684.781> 687 20G<4 142.289 343.872 519.369 719.992 849>
LayerCount: 2
Fore
SplineSet
849 707 m 1
 680 0 l 1
 557 0 l 1
 428 523 l 1
 300 0 l 1
 178 0 l 1
 4 707 l 1
 138 707 l 1
 245 208 l 1
 348 707 l 1
 515 707 l 1
 624 208 l 1
 724 707 l 1
 849 707 l 1
EndSplineSet
Validated: 1
EndChar

StartChar: X
Encoding: 88 88 58
Width: 607
GlyphClass: 2
Flags: W
HStem: 0 21G<4 168.034 432.119 603> 687 20G<20 189.87 416.304 580>
LayerCount: 2
Fore
SplineSet
224 368 m 1
 20 707 l 1
 179 707 l 1
 304 477 l 1
 427 707 l 1
 580 707 l 1
 380 373 l 1
 603 0 l 1
 443 0 l 1
 301 261 l 1
 157 0 l 1
 4 0 l 1
 224 368 l 1
EndSplineSet
Validated: 1
EndChar

StartChar: Y
Encoding: 89 89 59
Width: 553
GlyphClass: 2
Flags: W
HStem: 0 21G<210 344> 687 20G<4 159.711 393.22 550>
VStem: 210 134<0 290>
AnchorPoint: "Anchor-0" 276 707 basechar 0
LayerCount: 2
Fore
SplineSet
344 291 m 1
 344 0 l 1
 210 0 l 1
 210 290 l 1
 4 707 l 1
 151 707 l 1
 276 420 l 1
 402 707 l 1
 550 707 l 1
 344 291 l 1
EndSplineSet
Validated: 1
EndChar

StartChar: Z
Encoding: 90 90 60
Width: 517
GlyphClass: 2
Flags: W
HStem: 0 118<177 489> 590 117<37 335>
AnchorPoint: "Anchor-0" 258 707 basechar 0
LayerCount: 2
Fore
SplineSet
489 118 m 1
 489 0 l 1
 31 0 l 1
 31 118 l 1
 335 590 l 1
 37 590 l 1
 37 707 l 1
 480 707 l 1
 480 590 l 1
 177 118 l 1
 489 118 l 1
EndSplineSet
Validated: 1
EndChar

StartChar: bracketleft
Encoding: 91 91 61
Width: 322
GlyphClass: 2
Flags: W
HStem: -86 118<187 276> 641 118<187 276>
VStem: 60 216<-86 32 641 759> 60 127<32 641>
LayerCount: 2
Fore
SplineSet
60 759 m 1xe0
 276 759 l 1
 276 641 l 1xe0
 187 641 l 1
 187 32 l 1xd0
 276 32 l 1
 276 -86 l 1
 60 -86 l 1
 60 759 l 1xe0
EndSplineSet
Validated: 1
EndChar

StartChar: backslash
Encoding: 92 92 62
Width: 414
GlyphClass: 2
Flags: W
HStem: 692 20G<46 158.011>
VStem: 46 323
LayerCount: 2
Fore
SplineSet
46 712 m 1
 152 712 l 1
 369 -10 l 1
 263 -10 l 1
 46 712 l 1
EndSplineSet
Validated: 1
EndChar

StartChar: bracketright
Encoding: 93 93 63
Width: 323
GlyphClass: 2
Flags: W
HStem: -86 118<46 136> 638 117<46 136>
VStem: 46 217<-86 32 638 755> 136 127<32 638>
LayerCount: 2
Fore
SplineSet
46 32 m 1xe0
 136 32 l 1
 136 638 l 1xd0
 46 638 l 1
 46 755 l 1
 263 755 l 1
 263 -86 l 1
 46 -86 l 1
 46 32 l 1xe0
EndSplineSet
Validated: 1
EndChar

StartChar: asciicircum
Encoding: 94 94 64
Width: 541
GlyphClass: 2
Flags: W
HStem: 692 20G<208.982 332.018>
LayerCount: 2
Fore
SplineSet
217 712 m 1
 324 712 l 1
 498 278 l 1
 392 278 l 1
 270 589 l 1
 148 278 l 1
 43 278 l 1
 217 712 l 1
EndSplineSet
Validated: 1
EndChar

StartChar: underscore
Encoding: 95 95 65
Width: 512
GlyphClass: 2
Flags: W
HStem: -124 83<0 512>
LayerCount: 2
Fore
SplineSet
0 -41 m 1
 512 -41 l 1
 512 -124 l 1
 0 -124 l 1
 0 -41 l 1
EndSplineSet
Validated: 1
EndChar

StartChar: grave
Encoding: 96 96 66
Width: 512
GlyphClass: 2
Flags: W
HStem: 602 136
VStem: 130 251
LayerCount: 2
Fore
SplineSet
130 738 m 1
 270 738 l 1
 381 602 l 1
 271 602 l 1
 130 738 l 1
EndSplineSet
Validated: 1
EndChar

StartChar: a
Encoding: 97 97 67
Width: 513
GlyphClass: 2
Flags: W
HStem: -6 102<174.846 299.072> 227 87<173.776 332> 441 98<187.979 312.179>
VStem: 37 123<111.678 211.72> 51 118<373 422.435> 332 126<0 46 119.71 227 314 420.46>
AnchorPoint: "Anchor-0" 248 532 basechar 0
LayerCount: 2
Fore
SplineSet
403 491 m 0xec
 439 459 458 412 458 350 c 2
 458 -0 l 1
 335 -0 l 1
 335 46 l 1
 317 28 299 14 280 6 c 0
 261 -2 238 -6 209 -6 c 0
 154 -6 112 9 82 38 c 0
 52 67 37 108 37 160 c 0xf4
 37 208 53 245 85 273 c 0
 117 301 162 314 219 314 c 2
 332 314 l 1
 332 356 l 2
 332 413 304 441 247 441 c 0
 223 441 204 435 190 423 c 0
 176 411 169 396 169 376 c 2
 169 373 l 1
 51 373 l 1
 51 377 l 2
 51 427 69 466 104 495 c 0
 139 524 188 539 248 539 c 0
 316 539 367 523 403 491 c 0xec
310 119 m 0
 325 134 332 158 332 189 c 2
 332 227 l 1
 240 227 l 2
 187 227 160 206 160 163 c 0
 160 119 186 96 238 96 c 0
 271 96 295 104 310 119 c 0
EndSplineSet
Validated: 1
Substitution2: "Single Substitution lookup 6 subtable" ordfeminine
Substitution2: "'aalt' Access All Alternates lookup 0 subtable" ordfeminine
EndChar

StartChar: b
Encoding: 98 98 68
Width: 527
GlyphClass: 2
Flags: W
HStem: -6 112<216.182 328.22> 426 113<222.562 327.448> 687 20G<55 182>
VStem: 55 127<0 49 135.897 396.103 478 707> 354 127<133.514 397.021>
LayerCount: 2
Fore
SplineSet
179 49 m 1
 179 0 l 1
 55 0 l 1
 55 707 l 1
 182 707 l 1
 182 478 l 1
 211 518 251 539 301 539 c 0
 354 539 398 520 431 484 c 0
 464 448 481 393 481 319 c 2
 481 214 l 2
 481 140 464 86 431 49 c 0
 398 12 356 -6 305 -6 c 0
 251 -6 209 12 179 49 c 1
354 218 m 2
 354 314 l 2
 354 354 346 383 331 400 c 0
 316 417 295 426 269 426 c 0
 242 426 221 416 205 397 c 0
 189 378 181 350 181 314 c 2
 181 218 l 2
 181 182 189 154 205 135 c 0
 221 116 243 106 272 106 c 0
 327 106 354 144 354 218 c 2
EndSplineSet
Validated: 1
EndChar

StartChar: c
Encoding: 99 99 69
Width: 517
GlyphClass: 2
Flags: W
HStem: -6 112<200.349 326.842> 426 113<201.034 326.842>
VStem: 46 126<133.916 395.907> 350 121<129.338 190 339 403.131>
LayerCount: 2
Fore
SplineSet
104 48 m 0
 65 84 46 141 46 217 c 2
 46 316 l 2
 46 392 65 448 104 484 c 0
 143 520 195 539 262 539 c 0
 328 539 379 521 416 488 c 0
 453 455 471 408 471 349 c 2
 471 339 l 1
 350 339 l 1
 350 345 l 2
 350 370 342 390 327 404 c 0
 312 418 291 426 264 426 c 0
 203 426 172 388 172 314 c 2
 172 218 l 2
 172 178 180 149 196 132 c 0
 212 115 235 106 264 106 c 0
 291 106 312 113 327 127 c 0
 342 141 350 159 350 184 c 2
 350 190 l 1
 471 190 l 1
 471 183 l 2
 471 124 453 79 416 45 c 0
 379 11 328 -6 262 -6 c 0
 195 -6 143 12 104 48 c 0
EndSplineSet
Validated: 1
EndChar

StartChar: d
Encoding: 100 100 70
Width: 526
GlyphClass: 2
Flags: W
HStem: -6 112<198.78 310.686> 426 113<199.706 303.742> 687 20G<345 471>
VStem: 46 127<133.514 397.021> 345 126<0 49 135.897 396.103 478 707>
LayerCount: 2
Fore
SplineSet
96 49 m 0
 63 86 46 140 46 214 c 2
 46 319 l 2
 46 393 63 448 95 484 c 0
 127 520 169 539 221 539 c 0
 274 539 316 518 345 478 c 1
 345 707 l 1
 471 707 l 1
 471 0 l 1
 347 0 l 1
 347 49 l 1
 318 12 276 -6 222 -6 c 0
 171 -6 129 12 96 49 c 0
322 135 m 0
 338 154 345 182 345 218 c 2
 345 314 l 2
 345 350 337 378 322 397 c 0
 307 416 285 426 258 426 c 0
 201 426 173 388 173 314 c 2
 173 218 l 2
 173 144 200 106 255 106 c 0
 284 106 306 116 322 135 c 0
EndSplineSet
Validated: 1
EndChar

StartChar: e
Encoding: 101 101 71
Width: 529
GlyphClass: 2
Flags: W
HStem: -6 109<203.447 336.081> 228 87<172 356> 430 109<199.878 329.79>
VStem: 46 126<135.989 228 315 401.173> 356 127<315 403.125>
AnchorPoint: "Anchor-0" 264 532 basechar 0
LayerCount: 2
Fore
SplineSet
172 228 m 1
 172 214 l 2
 172 174 181 146 199 129 c 0
 217 112 241 103 274 103 c 0
 299 103 320 108 334 119 c 0
 348 130 356 145 357 164 c 1
 358 167 l 1
 479 167 l 1
 479 162 l 2
 479 111 461 71 423 40 c 0
 385 9 334 -6 269 -6 c 0
 201 -6 146 14 106 53 c 0
 66 92 46 152 46 234 c 2
 46 299 l 2
 46 379 65 439 104 479 c 0
 143 519 197 539 265 539 c 0
 332 539 385 518 424 478 c 0
 463 438 483 378 483 299 c 2
 483 228 l 1
 172 228 l 1
196 404 m 0
 180 387 172 358 172 318 c 2
 172 315 l 1
 356 315 l 1
 356 329 l 2
 356 397 326 430 265 430 c 0
 235 430 212 421 196 404 c 0
EndSplineSet
Validated: 1
EndChar

StartChar: f
Encoding: 102 102 72
Width: 342
GlyphClass: 2
Flags: W
HStem: 0 21G<93 219> 443 89<37 93 219 314> 621 86<232.425 314>
VStem: 93 126<0 443 532 607.575>
LayerCount: 2
Fore
SplineSet
232 608 m 0
 223 599 219 586 219 569 c 2
 219 532 l 1
 314 532 l 1
 314 443 l 1
 219 443 l 1
 219 0 l 1
 93 0 l 1
 93 443 l 1
 37 443 l 1
 37 532 l 1
 93 532 l 1
 93 564 l 2
 93 609 106 644 132 669 c 0
 158 694 194 707 241 707 c 2
 314 707 l 1
 314 621 l 1
 272 621 l 2
 254 621 241 617 232 608 c 0
EndSplineSet
Validated: 1
EndChar

StartChar: g
Encoding: 103 103 73
Width: 526
GlyphClass: 2
Flags: W
HStem: -168 100<193.152 322.474> 41 113<198.78 310.686> 426 113<199.706 303.742>
VStem: 46 127<180.514 397.021> 345 126<-43.8733 96 182.897 396.103 478 532>
LayerCount: 2
Fore
SplineSet
110 -127 m 0
 76 -100 56 -61 53 -13 c 1
 175 -13 l 1
 178 -29 187 -43 202 -53 c 0
 217 -63 236 -68 260 -68 c 0
 318 -68 347 -35 347 31 c 2
 347 96 l 1
 318 59 276 41 222 41 c 0
 171 41 129 59 96 96 c 0
 63 133 46 187 46 261 c 2
 46 319 l 2
 46 393 63 448 95 484 c 0
 127 520 169 539 221 539 c 0
 274 539 316 518 345 478 c 1
 345 532 l 1
 471 532 l 1
 471 39 l 2
 471 -24 452 -75 414 -112 c 0
 376 -149 323 -168 255 -168 c 0
 193 -168 144 -154 110 -127 c 0
322 182 m 0
 338 201 345 229 345 265 c 2
 345 314 l 2
 345 350 337 378 322 397 c 0
 307 416 285 426 258 426 c 0
 201 426 173 388 173 314 c 2
 173 265 l 2
 173 191 200 154 255 154 c 0
 284 154 306 163 322 182 c 0
EndSplineSet
Validated: 1
EndChar

StartChar: h
Encoding: 104 104 74
Width: 532
GlyphClass: 2
Flags: W
HStem: 0 21G<55 182 350 477> 426 113<221.521 325.797> 687 20G<55 182>
VStem: 55 127<0 399.479 485 707> 350 127<0 401.245>
LayerCount: 2
Fore
SplineSet
55 707 m 1
 182 707 l 1
 182 485 l 1
 198 503 217 516 238 525 c 0
 259 534 281 539 305 539 c 0
 360 539 402 522 432 488 c 0
 462 454 477 407 477 347 c 2
 477 0 l 1
 350 0 l 1
 350 332 l 2
 350 363 343 386 328 402 c 0
 313 418 292 426 267 426 c 0
 242 426 222 417 206 401 c 0
 190 385 182 362 182 332 c 2
 182 0 l 1
 55 0 l 1
 55 707 l 1
EndSplineSet
Validated: 1
EndChar

StartChar: i
Encoding: 105 105 75
Width: 246
GlyphClass: 2
Flags: W
HStem: 0 21G<60 186> 512 20G<60 186> 605 102<58 187>
VStem: 60 126<0 532 605 707>
AnchorPoint: "Anchor-0" 123 532 basechar 0
LayerCount: 2
Fore
SplineSet
60 532 m 1
 186 532 l 1
 186 0 l 1
 60 0 l 1
 60 532 l 1
58 707 m 1
 187 707 l 1
 187 605 l 1
 58 605 l 1
 58 707 l 1
EndSplineSet
Validated: 1
EndChar

StartChar: j
Encoding: 106 106 76
Width: 246
GlyphClass: 2
Flags: W
HStem: -160 110<-34 47.6213> 512 20G<60 186> 605 102<57 186>
VStem: 60 126<-35.5276 532 605 707>
LayerCount: 2
Fore
SplineSet
57 707 m 1
 186 707 l 1
 186 605 l 1
 57 605 l 1
 57 707 l 1
-34 -50 m 1
 9 -50 l 2
 27 -50 40 -46 48 -36 c 0
 56 -26 60 -11 60 10 c 2
 60 532 l 1
 186 532 l 1
 186 2 l 2
 186 -50 172 -90 144 -118 c 0
 116 -146 77 -160 26 -160 c 2
 -34 -160 l 1
 -34 -50 l 1
EndSplineSet
Validated: 1
EndChar

StartChar: k
Encoding: 107 107 77
Width: 532
GlyphClass: 2
Flags: W
HStem: 0 21G<55 182 353.7 518> 512 20G<338.434 505> 687 20G<55 182>
VStem: 55 127<0 158 311 707>
LayerCount: 2
Fore
SplineSet
239 223 m 1
 182 158 l 1
 182 0 l 1
 55 0 l 1
 55 707 l 1
 182 707 l 1
 182 311 l 1
 354 532 l 1
 505 532 l 1
 323 321 l 1
 518 0 l 1
 365 0 l 1
 239 223 l 1
EndSplineSet
Validated: 1
EndChar

StartChar: l
Encoding: 108 108 78
Width: 293
GlyphClass: 2
Flags: W
HStem: 0 110<194.378 275> 687 20G<55 182>
VStem: 55 127<123.427 707>
LayerCount: 2
Fore
SplineSet
98 42 m 0
 70 70 55 110 55 162 c 2
 55 707 l 1
 182 707 l 1
 182 170 l 2
 182 148 186 132 194 123 c 0
 202 114 214 110 232 110 c 2
 275 110 l 1
 275 0 l 1
 217 0 l 2
 166 0 126 14 98 42 c 0
EndSplineSet
Validated: 1
EndChar

StartChar: m
Encoding: 109 109 79
Width: 827
GlyphClass: 2
Flags: W
HStem: 0 21G<55 182 350 477 645 772> 426 113<221.663 324.735 502.795 620.372>
VStem: 55 127<0 399.479 484 532> 350 127<0 399.704> 645 127<0 401.167>
CounterMasks: 1 38
LayerCount: 2
Fore
SplineSet
55 532 m 1
 179 532 l 1
 179 484 l 1
 195 501 214 514 236 524 c 0
 258 534 281 539 305 539 c 0
 364 539 410 516 441 472 c 1
 482 516 533 539 592 539 c 0
 649 539 692 521 724 487 c 0
 756 453 772 406 772 347 c 2
 772 0 l 1
 645 0 l 1
 645 332 l 2
 645 363 637 386 622 402 c 0
 607 418 587 426 562 426 c 0
 536 426 515 418 500 401 c 0
 485 384 477 362 477 335 c 2
 477 0 l 1
 350 0 l 1
 350 332 l 2
 350 363 342 386 327 402 c 0
 312 418 292 426 267 426 c 0
 242 426 222 417 206 401 c 0
 190 385 182 362 182 332 c 2
 182 0 l 1
 55 0 l 1
 55 532 l 1
EndSplineSet
Validated: 1
EndChar

StartChar: n
Encoding: 110 110 80
Width: 532
GlyphClass: 2
Flags: W
HStem: 0 21G<55 182 350 477> 426 113<218.935 325.068>
VStem: 55 127<0 399.479 484 532> 350 127<0 400.245>
AnchorPoint: "Anchor-0" 266 532 basechar 0
LayerCount: 2
Fore
SplineSet
55 532 m 1
 179 532 l 1
 179 484 l 1
 195 502 214 516 236 525 c 0
 258 534 281 539 305 539 c 0
 360 539 402 521 432 487 c 0
 462 453 477 406 477 347 c 2
 477 0 l 1
 350 0 l 1
 350 332 l 2
 350 362 343 385 328 401 c 0
 313 417 292 426 267 426 c 0
 242 426 222 417 206 401 c 0
 190 385 182 362 182 332 c 2
 182 0 l 1
 55 0 l 1
 55 532 l 1
EndSplineSet
Validated: 1
EndChar

StartChar: o
Encoding: 111 111 81
Width: 522
GlyphClass: 2
Flags: W
HStem: -6 112<200.649 322.497> 426 113<200.649 322.497>
VStem: 46 126<136.754 395.907> 350 126<134.25 395.907>
AnchorPoint: "Anchor-0" 262 532 basechar 0
LayerCount: 2
Fore
SplineSet
104 48 m 0
 65 84 46 141 46 217 c 2
 46 316 l 2
 46 392 65 448 104 484 c 0
 143 520 195 539 262 539 c 0
 328 539 381 520 419 484 c 0
 457 448 476 392 476 316 c 2
 476 217 l 2
 476 141 457 84 419 48 c 0
 381 12 328 -6 262 -6 c 0
 195 -6 143 12 104 48 c 0
350 218 m 2
 350 314 l 2
 350 388 321 426 262 426 c 0
 202 426 172 388 172 314 c 2
 172 218 l 2
 172 144 202 106 262 106 c 0
 321 106 350 144 350 218 c 2
EndSplineSet
Validated: 1
Substitution2: "Single Substitution lookup 6 subtable" ordmasculine
Substitution2: "'aalt' Access All Alternates lookup 0 subtable" ordmasculine
EndChar

StartChar: p
Encoding: 112 112 82
Width: 527
GlyphClass: 2
Flags: W
HStem: -160 21G<55 182> -6 112<218.028 328.22> 426 113<221.132 327.448>
VStem: 55 127<-160 48 135.897 396.103 478 532> 354 127<133.514 397.021>
LayerCount: 2
Fore
SplineSet
55 532 m 1
 179 532 l 1
 179 478 l 1
 210 518 251 539 301 539 c 0
 354 539 398 520 431 484 c 0
 464 448 481 393 481 319 c 2
 481 214 l 2
 481 140 464 86 431 49 c 0
 398 12 356 -6 305 -6 c 0
 252 -6 211 12 182 48 c 1
 182 -160 l 1
 55 -160 l 1
 55 532 l 1
354 218 m 2
 354 314 l 2
 354 354 346 383 331 400 c 0
 316 417 295 426 269 426 c 0
 242 426 221 416 205 397 c 0
 189 378 181 350 181 314 c 2
 181 218 l 2
 181 182 189 154 205 135 c 0
 221 116 243 106 272 106 c 0
 327 106 354 144 354 218 c 2
EndSplineSet
Validated: 1
EndChar

StartChar: q
Encoding: 113 113 83
Width: 526
GlyphClass: 2
Flags: W
HStem: -160 21G<345 471> -6 112<198.78 308.972> 426 113<200.322 305.503>
VStem: 46 127<133.514 397.021> 345 126<-160 48 135.897 396.103 478 532>
LayerCount: 2
Fore
SplineSet
345 48 m 1
 316 12 275 -6 222 -6 c 0
 171 -6 129 12 96 49 c 0
 63 86 46 140 46 214 c 2
 46 319 l 2
 46 393 63 448 96 484 c 0
 129 520 172 539 225 539 c 0
 276 539 317 518 347 478 c 1
 347 532 l 1
 471 532 l 1
 471 -160 l 1
 345 -160 l 1
 345 48 l 1
322 135 m 0
 338 154 345 182 345 218 c 2
 345 314 l 2
 345 350 337 378 322 397 c 0
 307 416 285 426 258 426 c 0
 201 426 173 388 173 314 c 2
 173 218 l 2
 173 144 200 106 255 106 c 0
 284 106 306 116 322 135 c 0
EndSplineSet
Validated: 1
EndChar

StartChar: r
Encoding: 114 114 84
Width: 366
GlyphClass: 2
Flags: W
HStem: 0 21G<55 182> 432 112<221.666 347.134> 512 20G<55 179>
VStem: 55 127<0 396.411 477 532>
LayerCount: 2
Fore
SplineSet
55 532 m 1xb0
 179 532 l 1xb0
 179 477 l 1
 192 500 209 516 231 527 c 0
 253 538 278 544 305 544 c 0
 321 544 335 543 348 540 c 1
 348 421 l 1
 324 429 303 432 285 432 c 0xd0
 254 432 229 422 210 403 c 0
 191 384 182 355 182 319 c 2
 182 0 l 1
 55 0 l 1
 55 532 l 1xb0
EndSplineSet
Validated: 1
EndChar

StartChar: s
Encoding: 115 115 85
Width: 485
GlyphClass: 2
Flags: W
HStem: -6 102<178.096 312.294> 439 100<179.334 307.717>
VStem: 37 119<114.055 162 346.431 419.226> 332 121<112.401 194.936>
AnchorPoint: "Anchor-0" 243 532 basechar 0
LayerCount: 2
Fore
SplineSet
92 38 m 0
 55 68 37 108 37 158 c 2
 37 162 l 1
 156 162 l 1
 156 160 l 2
 156 140 164 124 180 113 c 0
 196 102 217 96 243 96 c 0
 271 96 292 101 308 111 c 0
 324 121 332 136 332 156 c 0
 332 172 326 185 314 194 c 0
 302 203 283 209 256 213 c 2
 200 222 l 2
 147 231 107 247 82 271 c 0
 57 295 44 330 44 374 c 0
 44 425 63 464 100 494 c 0
 137 524 185 539 243 539 c 0
 283 539 318 532 348 519 c 0
 378 506 401 487 418 463 c 0
 435 439 443 413 443 384 c 2
 443 378 l 1
 326 378 l 1
 326 381 l 2
 326 399 319 414 304 424 c 0
 289 434 269 439 243 439 c 0
 217 439 197 434 183 424 c 0
 169 414 163 400 163 383 c 0
 163 367 168 355 179 346 c 0
 190 337 206 331 230 328 c 2
 293 318 l 2
 346 310 386 294 413 269 c 0
 440 244 453 209 453 165 c 0
 453 110 433 68 393 38 c 0
 353 8 302 -6 239 -6 c 0
 178 -6 129 8 92 38 c 0
EndSplineSet
Validated: 1
EndChar

StartChar: t
Encoding: 116 116 86
Width: 360
GlyphClass: 2
Flags: W
HStem: 0 108<233.058 317> 443 89<26 99 225 328>
VStem: 99 126<116.502 443 532 637>
LayerCount: 2
Fore
SplineSet
225 443 m 1
 225 162 l 2
 225 126 243 108 278 108 c 2
 317 108 l 1
 317 0 l 1
 257 0 l 2
 209 0 170 13 142 41 c 0
 114 69 99 107 99 154 c 2
 99 443 l 1
 26 443 l 1
 26 532 l 1
 99 532 l 1
 99 637 l 1
 225 681 l 1
 225 532 l 1
 328 532 l 1
 328 443 l 1
 225 443 l 1
EndSplineSet
Validated: 1
EndChar

StartChar: u
Encoding: 117 117 87
Width: 532
GlyphClass: 2
Flags: W
HStem: -6 112<204.725 328.126> 512 20G<55 182 350 477>
VStem: 55 127<129.021 532> 350 127<128.701 532>
AnchorPoint: "Anchor-0" 266 532 basechar 0
LayerCount: 2
Fore
SplineSet
55 215 m 2
 55 532 l 1
 182 532 l 1
 182 221 l 2
 182 183 188 155 199 136 c 0
 210 117 233 106 266 106 c 0
 299 106 322 116 333 134 c 0
 344 152 350 181 350 221 c 2
 350 532 l 1
 477 532 l 1
 477 215 l 2
 477 141 460 86 425 49 c 0
 390 12 337 -6 266 -6 c 0
 125 -6 55 68 55 215 c 2
EndSplineSet
Validated: 1
EndChar

StartChar: v
Encoding: 118 118 88
Width: 492
GlyphClass: 2
Flags: W
HStem: 0 21G<187.045 304.955> 512 20G<9 149.172 342.947 483>
LayerCount: 2
Fore
SplineSet
9 532 m 1
 143 532 l 1
 247 195 l 1
 349 532 l 1
 483 532 l 1
 298 0 l 1
 194 0 l 1
 9 532 l 1
EndSplineSet
Validated: 1
EndChar

StartChar: w
Encoding: 119 119 89
Width: 753
GlyphClass: 2
Flags: W
HStem: 0 21G<159.135 278.029 473.971 593.865> 512 20G<9 147.926 322.887 430.053 604.074 744>
LayerCount: 2
Fore
SplineSet
9 532 m 1
 143 532 l 1
 226 195 l 1
 329 532 l 1
 424 532 l 1
 526 195 l 1
 609 532 l 1
 744 532 l 1
 588 0 l 1
 480 0 l 1
 376 345 l 1
 272 0 l 1
 165 0 l 1
 9 532 l 1
EndSplineSet
Validated: 1
EndChar

StartChar: x
Encoding: 120 120 90
Width: 470
GlyphClass: 2
Flags: W
HStem: 0 21G<9 152.476 317.214 461> 512 20G<18 163.656 307.669 452>
LayerCount: 2
Fore
SplineSet
329 0 m 1
 230 168 l 1
 142 0 l 1
 9 0 l 1
 169 274 l 1
 18 532 l 1
 152 532 l 1
 240 381 l 1
 318 532 l 1
 452 532 l 1
 299 279 l 1
 461 0 l 1
 329 0 l 1
EndSplineSet
Validated: 1
EndChar

StartChar: y
Encoding: 121 121 91
Width: 493
GlyphClass: 2
Flags: W
HStem: -158 114<78 162.528> 512 20G<9 149.287 347.653 484>
AnchorPoint: "Anchor-0" 247 532 basechar 0
LayerCount: 2
Fore
SplineSet
484 532 m 1
 283 -46 l 2
 269 -85 250 -113 224 -131 c 0
 198 -149 164 -158 122 -158 c 2
 78 -158 l 1
 78 -44 l 1
 118 -44 l 2
 138 -44 153 -40 163 -33 c 0
 173 -26 181 -13 187 7 c 2
 189 14 l 1
 9 532 l 1
 143 532 l 1
 248 198 l 1
 354 532 l 1
 484 532 l 1
EndSplineSet
Validated: 1
EndChar

StartChar: z
Encoding: 122 122 92
Width: 465
GlyphClass: 2
Flags: W
HStem: 0 106<184 420> 426 106<46 282>
AnchorPoint: "Anchor-0" 232 532 basechar 0
LayerCount: 2
Fore
SplineSet
420 426 m 1
 184 106 l 1
 420 106 l 1
 420 0 l 1
 46 0 l 1
 46 106 l 1
 282 426 l 1
 46 426 l 1
 46 532 l 1
 420 532 l 1
 420 426 l 1
EndSplineSet
Validated: 1
EndChar

StartChar: braceleft
Encoding: 123 123 93
Width: 368
GlyphClass: 2
Flags: W
HStem: -86 102<249.085 323> 284 108<46 105.432> 655 103<249.085 323>
VStem: 124 120<19.7405 263.385 412.615 651.091>
LayerCount: 2
Fore
SplineSet
157 -54 m 0
 135 -32 124 -1 124 40 c 2
 124 202 l 2
 124 231 118 251 106 264 c 0
 94 277 75 284 46 284 c 1
 46 392 l 1
 75 392 94 399 106 412 c 0
 118 425 124 445 124 474 c 2
 124 633 l 2
 124 673 135 704 157 726 c 0
 179 748 210 758 251 758 c 2
 323 758 l 1
 323 655 l 1
 287 655 l 2
 258 655 244 640 244 610 c 2
 244 468 l 2
 244 429 239 399 228 380 c 0
 217 361 198 347 171 338 c 1
 198 328 217 314 228 295 c 0
 239 276 244 247 244 208 c 2
 244 61 l 2
 244 31 258 16 287 16 c 2
 323 16 l 1
 323 -86 l 1
 251 -86 l 2
 210 -86 179 -76 157 -54 c 0
EndSplineSet
Validated: 1
EndChar

StartChar: bar
Encoding: 124 124 94
Width: 302
GlyphClass: 2
Flags: W
VStem: 92 118<-86 758>
LayerCount: 2
Fore
SplineSet
92 758 m 1
 210 758 l 1
 210 -86 l 1
 92 -86 l 1
 92 758 l 1
EndSplineSet
Validated: 1
EndChar

StartChar: braceright
Encoding: 125 125 95
Width: 368
GlyphClass: 2
Flags: W
HStem: -86 102<46 120.914> 284 108<263.568 323> 655 103<46 120.914>
VStem: 126 119<19.9661 263.385 412.615 651.034>
LayerCount: 2
Fore
SplineSet
46 16 m 1
 82 16 l 2
 111 16 126 31 126 61 c 2
 126 208 l 2
 126 247 131 276 142 295 c 0
 153 314 172 328 199 338 c 1
 172 347 153 361 142 380 c 0
 131 399 126 429 126 468 c 2
 126 610 l 2
 126 640 111 655 82 655 c 2
 46 655 l 1
 46 758 l 1
 119 758 l 2
 160 758 190 748 212 726 c 0
 234 704 245 673 245 633 c 2
 245 474 l 2
 245 445 251 425 263 412 c 0
 275 399 295 392 323 392 c 1
 323 284 l 1
 295 284 275 277 263 264 c 0
 251 251 245 231 245 202 c 2
 245 40 l 2
 245 -1 234 -32 212 -54 c 0
 190 -76 160 -86 119 -86 c 2
 46 -86 l 1
 46 16 l 1
EndSplineSet
Validated: 1
EndChar

StartChar: asciitilde
Encoding: 126 126 96
Width: 541
GlyphClass: 2
Flags: W
HStem: 200 105<289.958 398.796> 258 104<145.309 251.959>
LayerCount: 2
Fore
SplineSet
307 208 m 0x80
 292 214 275 222 257 233 c 0
 241 242 228 248 219 252 c 0
 210 256 201 258 191 258 c 0
 177 258 165 254 154 245 c 0
 143 236 133 221 122 201 c 1
 40 251 l 1
 56 287 77 315 102 334 c 0
 127 353 155 362 186 362 c 0x40
 204 362 220 359 234 354 c 0
 248 349 266 341 285 330 c 0
 300 322 312 315 322 311 c 0
 332 307 341 305 351 305 c 0x80
 366 305 379 309 390 318 c 0
 401 327 411 342 421 362 c 1x40
 503 312 l 1
 487 276 467 248 441 229 c 0
 415 210 386 200 355 200 c 0
 337 200 322 202 307 208 c 0x80
EndSplineSet
Validated: 1
EndChar

StartChar: exclamdown
Encoding: 161 161 98
Width: 254
GlyphClass: 2
Flags: W
HStem: -160 21G<55 200> 398 134<59 196>
VStem: 59 137<398 532> 80 95<165.969 297>
LayerCount: 2
Fore
SplineSet
59 532 m 1xe0
 196 532 l 1
 196 398 l 1
 59 398 l 1
 59 532 l 1xe0
80 297 m 1xd0
 175 297 l 1
 200 -160 l 1
 55 -160 l 1
 80 297 l 1xd0
EndSplineSet
Validated: 1
EndChar

StartChar: cent
Encoding: 162 162 99
Width: 560
GlyphClass: 2
Flags: W
HStem: -6 112<200.811 255> 426 113<201.248 255>
VStem: 46 126<135.068 394.36> 255 60<-102 -6 539 650> 350 121<128.526 190 339 402.209>
LayerCount: 2
Fore
SplineSet
350 339 m 1
 350 345 l 2
 350 370 342 390 327 404 c 0
 312 418 291 426 264 426 c 0
 203 426 172 388 172 314 c 2
 172 218 l 2
 172 178 180 149 196 132 c 0
 212 115 235 106 264 106 c 0
 291 106 312 113 327 127 c 0
 342 141 350 159 350 184 c 2
 350 190 l 1
 471 190 l 1
 471 183 l 2
 471 133 457 92 430 60 c 0
 403 28 364 7 315 -2 c 1
 315 -102 l 1
 255 -102 l 1
 255 -6 l 1
 190 -5 139 14 102 50 c 0
 65 86 46 142 46 217 c 2
 46 316 l 2
 46 390 65 446 102 482 c 0
 139 518 190 538 255 539 c 1
 255 650 l 1
 315 650 l 1
 315 535 l 1
 365 526 404 505 431 473 c 0
 458 441 471 400 471 349 c 2
 471 339 l 1
 350 339 l 1
EndSplineSet
Validated: 1
EndChar

StartChar: sterling
Encoding: 163 163 100
Width: 477
GlyphClass: 2
Flags: W
HStem: 0 116<191 452> 283 116<26 89 223 356> 603 114<236.048 315.078>
VStem: 89 134<143.662 283 399 585.481>
LayerCount: 2
Fore
SplineSet
191 116 m 1
 452 116 l 1
 452 0 l 1
 44 0 l 1
 44 111 l 1
 60 119 72 129 79 143 c 0
 86 157 89 179 89 206 c 2
 89 283 l 1
 26 283 l 1
 26 399 l 1
 89 399 l 1
 89 524 l 2
 89 585 105 634 137 667 c 0
 169 700 215 717 274 717 c 0
 329 717 372 702 404 673 c 0
 436 644 452 602 452 547 c 1
 327 547 l 1
 327 565 322 578 313 588 c 0
 304 598 292 603 276 603 c 0
 259 603 246 597 237 586 c 0
 228 575 223 560 223 540 c 2
 223 399 l 1
 356 399 l 1
 356 283 l 1
 223 283 l 1
 223 219 l 2
 223 173 212 139 191 116 c 1
EndSplineSet
Validated: 1
EndChar

StartChar: currency
Encoding: 164 164 101
Width: 609
GlyphClass: 2
Flags: W
HStem: 115 100<238.997 369.81> 431 100<239.009 369.809>
VStem: 96 104<254.484 392.103> 410 103<255.017 390.805>
LayerCount: 2
Fore
SplineSet
412 143 m 1
 380 124 344 115 304 115 c 0
 264 115 229 124 197 143 c 1
 130 77 l 1
 55 152 l 1
 123 219 l 1
 105 249 96 284 96 324 c 0
 96 361 106 395 124 428 c 1
 55 497 l 1
 130 571 l 1
 198 504 l 1
 231 522 266 531 304 531 c 0
 342 531 378 522 411 504 c 1
 479 571 l 1
 553 497 l 1
 485 428 l 1
 503 395 513 361 513 324 c 0
 513 285 504 249 486 218 c 1
 554 151 l 1
 479 76 l 1
 412 143 l 1
380 246 m 0
 400 267 410 293 410 324 c 0
 410 355 400 380 380 400 c 0
 360 420 335 431 304 431 c 0
 274 431 249 420 229 400 c 0
 209 380 200 355 200 324 c 0
 200 293 209 267 229 246 c 0
 249 225 274 215 304 215 c 0
 335 215 360 225 380 246 c 0
EndSplineSet
Validated: 1
EndChar

StartChar: yen
Encoding: 165 165 102
Width: 508
GlyphClass: 2
Flags: W
HStem: 0 21G<187 322> 120 90<55 187 322 454> 266 90<55 166 343 454> 687 20G<7 152.887 357.394 502>
VStem: 187 135<0 120 210 266>
LayerCount: 2
Fore
SplineSet
187 120 m 1
 55 120 l 1
 55 210 l 1
 187 210 l 1
 187 266 l 1
 55 266 l 1
 55 356 l 1
 166 356 l 1
 7 707 l 1
 145 707 l 1
 257 423 l 1
 365 707 l 1
 502 707 l 1
 343 356 l 1
 454 356 l 1
 454 266 l 1
 322 266 l 1
 322 210 l 1
 454 210 l 1
 454 120 l 1
 322 120 l 1
 322 0 l 1
 187 0 l 1
 187 120 l 1
EndSplineSet
Validated: 1
EndChar

StartChar: brokenbar
Encoding: 166 166 103
Width: 302
GlyphClass: 2
Flags: W
VStem: 92 118<-86 276 397 758>
LayerCount: 2
Fore
SplineSet
92 758 m 1
 210 758 l 1
 210 397 l 1
 92 397 l 1
 92 758 l 1
92 276 m 1
 210 276 l 1
 210 -86 l 1
 92 -86 l 1
 92 276 l 1
EndSplineSet
Validated: 1
EndChar

StartChar: section
Encoding: 167 167 104
Width: 523
GlyphClass: 2
Flags: W
HStem: -172 104<203.871 305.364> 629 104<219.569 316.024>
VStem: 60 122<215.547 349.465> 75 115<-53.5684 4> 83 122<514.573 614.325> 321 121<-53.0368 47.752> 330 114<558 616.186> 340 123<216.689 348.738>
LayerCount: 2
Fore
SplineSet
122 -126 m 0xc4
 91 -95 75 -52 75 4 c 1
 190 4 l 1xd4
 190 -44 212 -68 256 -68 c 0
 277 -68 293 -62 304 -51 c 0
 315 -40 321 -25 321 -7 c 0
 321 18 312 36 297 50 c 0
 282 64 253 76 211 88 c 0
 160 102 122 125 97 157 c 0
 72 189 60 231 60 282 c 0xe4
 60 317 68 349 84 376 c 0
 100 403 122 424 150 439 c 1
 126 453 108 471 98 493 c 0
 88 515 83 540 83 569 c 0
 83 600 90 628 105 653 c 0
 120 678 142 698 169 712 c 0
 196 726 228 733 264 733 c 0
 323 733 369 717 399 686 c 0
 429 655 444 612 444 558 c 1
 330 558 l 1xca
 330 605 308 629 266 629 c 0
 247 629 232 623 221 612 c 0
 210 601 205 586 205 568 c 0
 205 544 213 527 228 514 c 0
 243 501 271 489 312 477 c 0
 363 463 401 440 426 408 c 0
 451 376 463 335 463 284 c 0xc9
 463 249 454 216 438 188 c 0
 422 160 400 140 373 127 c 1
 399 112 417 94 427 72 c 0
 437 50 442 23 442 -10 c 0
 442 -57 425 -96 392 -126 c 0
 359 -156 314 -172 258 -172 c 0
 199 -172 153 -157 122 -126 c 0xc4
319 217 m 0
 333 233 340 255 340 283 c 0
 340 311 333 333 319 349 c 0
 305 365 287 373 262 373 c 0
 237 373 217 365 203 349 c 0
 189 333 182 312 182 283 c 0xe1
 182 254 189 232 203 216 c 0
 217 200 237 193 262 193 c 0
 287 193 305 201 319 217 c 0
162 724 m 1024
EndSplineSet
Validated: 1
EndChar

StartChar: dieresis
Encoding: 168 168 105
Width: 512
GlyphClass: 2
Flags: W
HStem: 601 119<102 212 299 409>
VStem: 102 110<601 720> 299 110<601 720>
LayerCount: 2
Fore
SplineSet
102 720 m 1
 212 720 l 1
 212 601 l 1
 102 601 l 1
 102 720 l 1
299 720 m 1
 409 720 l 1
 409 601 l 1
 299 601 l 1
 299 720 l 1
EndSplineSet
Validated: 1
EndChar

StartChar: copyright
Encoding: 169 169 106
Width: 802
GlyphClass: 2
Flags: W
HStem: -9 79<281.62 520.996> 152 81<354.392 454.505> 467 82<354.6 453.482> 632 78<283.122 519.483>
VStem: 51 83<223.904 476.654> 247 91<252.569 451.412> 468 88<248.472 295 403 450.482> 669 83<223.904 476.177>
LayerCount: 2
Fore
SplineSet
217 36 m 0
 164 66 123 108 94 162 c 0
 65 216 51 279 51 350 c 0
 51 422 65 485 94 539 c 0
 123 593 164 635 217 665 c 0
 270 695 331 710 401 710 c 0
 471 710 533 695 586 665 c 0
 639 635 680 592 709 538 c 0
 738 484 752 421 752 350 c 0
 752 279 738 216 709 162 c 0
 680 108 639 66 586 36 c 0
 533 6 471 -9 401 -9 c 0
 331 -9 270 6 217 36 c 0
598 145 m 0
 645 195 669 263 669 350 c 0
 669 437 645 505 598 556 c 0
 551 607 484 632 401 632 c 0
 318 632 252 607 205 556 c 0
 158 505 134 437 134 350 c 0
 134 263 158 195 205 145 c 0
 252 95 318 70 401 70 c 0
 484 70 551 95 598 145 c 0
289 191 m 0
 261 217 247 258 247 314 c 2
 247 386 l 2
 247 441 261 482 289 509 c 0
 317 536 355 549 403 549 c 0
 451 549 489 537 516 512 c 0
 543 487 556 454 556 411 c 2
 556 403 l 1
 468 403 l 1
 468 408 l 2
 468 426 462 440 451 451 c 0
 440 462 425 467 406 467 c 0
 361 467 338 440 338 385 c 2
 338 315 l 2
 338 285 343 264 355 252 c 0
 367 240 384 233 406 233 c 0
 426 233 441 238 452 248 c 0
 463 258 468 273 468 291 c 2
 468 295 l 1
 556 295 l 1
 556 290 l 2
 556 248 542 214 515 189 c 0
 488 164 450 152 403 152 c 0
 355 152 317 165 289 191 c 0
EndSplineSet
Validated: 1
EndChar

StartChar: ordfeminine
Encoding: 170 170 107
Width: 361
GlyphClass: 2
Flags: W
HStem: 436 75<130.753 206.897> 572 62<125.832 216> 696 70<137.839 212.118>
VStem: 37 88<517.023 569.799> 216 91<440 466 522.377 572 634 691.941>
LayerCount: 2
Fore
SplineSet
272 737 m 0
 295 718 307 688 307 649 c 2
 307 440 l 1
 219 440 l 1
 219 466 l 1
 207 455 196 447 185 443 c 0
 174 439 160 436 144 436 c 0
 111 436 85 445 66 464 c 0
 47 483 37 509 37 540 c 0
 37 569 48 591 68 608 c 0
 88 625 117 634 153 634 c 2
 216 634 l 1
 216 654 l 2
 216 682 201 696 171 696 c 0
 159 696 149 694 142 688 c 0
 135 682 131 675 131 665 c 2
 131 663 l 1
 46 663 l 1
 46 665 l 2
 46 697 57 721 80 739 c 0
 103 757 133 766 172 766 c 0
 216 766 249 756 272 737 c 0
204 522 m 0
 212 530 216 541 216 557 c 2
 216 572 l 1
 167 572 l 2
 139 572 125 563 125 543 c 0
 125 533 128 526 135 520 c 0
 142 514 152 511 166 511 c 0
 184 511 196 514 204 522 c 0
170 867 m 1024
EndSplineSet
Validated: 1
EndChar

StartChar: guillemotleft
Encoding: 171 171 108
Width: 537
GlyphClass: 2
Flags: W
LayerCount: 2
Fore
SplineSet
18 270 m 1
 250 503 l 1
 250 369 l 1
 153 270 l 1
 250 172 l 1
 250 38 l 1
 18 270 l 1
250 270 m 1
 482 503 l 1
 482 369 l 1
 384 270 l 1
 482 172 l 1
 482 38 l 1
 250 270 l 1
EndSplineSet
Validated: 1
EndChar

StartChar: logicalnot
Encoding: 172 172 109
Width: 541
GlyphClass: 2
Flags: W
HStem: 260 114<51 364>
VStem: 364 125<123 260>
LayerCount: 2
Fore
SplineSet
364 260 m 1
 51 260 l 1
 51 374 l 1
 489 374 l 1
 489 123 l 1
 364 123 l 1
 364 260 l 1
EndSplineSet
Validated: 1
EndChar

StartChar: uni00AD
Encoding: 173 173 110
Width: 373
GlyphClass: 2
Flags: W
HStem: 295 118<46 328>
VStem: 46 282<295 413>
LayerCount: 2
Fore
SplineSet
46 413 m 1
 328 413 l 1
 328 295 l 1
 46 295 l 1
 46 413 l 1
EndSplineSet
Validated: 1
EndChar

StartChar: registered
Encoding: 174 174 111
Width: 506
GlyphClass: 2
Flags: W
HStem: 315 41<175.098 330.902> 484 45<227 253> 577 45<227 289.934> 667 41<173.376 331.294>
VStem: 60 43<427.855 596.145> 174 53<404 484 529 577> 290 53<529.397 576.475> 402 44<424.829 597.164>
LayerCount: 2
Fore
SplineSet
154 341 m 0
 125 358 103 382 86 412 c 0
 69 442 60 475 60 512 c 0
 60 549 69 582 86 612 c 0
 103 642 126 665 155 682 c 0
 184 699 217 708 253 708 c 0
 290 708 323 699 352 682 c 0
 381 665 404 641 421 611 c 0
 438 581 446 548 446 512 c 0
 446 475 438 442 421 412 c 0
 404 382 381 358 352 341 c 0
 323 324 290 315 253 315 c 0
 216 315 183 324 154 341 c 0
361 400 m 0
 389 429 402 466 402 512 c 0
 402 558 388 595 360 624 c 0
 332 653 297 667 253 667 c 0
 209 667 173 653 145 624 c 0
 117 595 103 558 103 512 c 0
 103 466 117 429 145 400 c 0
 173 371 209 356 253 356 c 0
 297 356 333 371 361 400 c 0
174 622 m 1
 264 622 l 2
 289 622 309 616 323 604 c 0
 337 592 343 576 343 554 c 0
 343 525 330 505 305 493 c 1
 348 404 l 1
 291 404 l 1
 253 484 l 1
 227 484 l 1
 227 404 l 1
 174 404 l 1
 174 622 l 1
261 529 m 2
 280 529 290 537 290 553 c 0
 290 569 280 577 261 577 c 2
 227 577 l 1
 227 529 l 1
 261 529 l 2
EndSplineSet
Validated: 1
EndChar

StartChar: macron
Encoding: 175 175 112
Width: 512
GlyphClass: 2
Flags: W
HStem: 604 113<112 400>
VStem: 112 288<604 717>
LayerCount: 2
Fore
SplineSet
112 717 m 1
 400 717 l 1
 400 604 l 1
 112 604 l 1
 112 717 l 1
EndSplineSet
Validated: 1
EndChar

StartChar: degree
Encoding: 176 176 113
Width: 403
GlyphClass: 2
Flags: W
HStem: 417 77<150.597 251.885> 641 77<150.677 251.885>
VStem: 51 80<513.129 621.545> 272 80<514.616 620.465>
LayerCount: 2
Fore
SplineSet
94 460 m 0
 65 489 51 524 51 567 c 0
 51 595 58 621 71 644 c 0
 84 667 102 685 125 698 c 0
 148 711 174 718 202 718 c 0
 230 718 255 711 278 698 c 0
 301 685 319 667 332 644 c 0
 345 621 352 595 352 567 c 0
 352 539 345 513 332 490 c 0
 319 467 301 449 278 436 c 0
 255 423 230 417 202 417 c 0
 159 417 123 431 94 460 c 0
252 515 m 0
 265 529 272 546 272 567 c 0
 272 588 265 606 252 620 c 0
 239 634 222 641 202 641 c 0
 181 641 164 635 151 621 c 0
 138 607 131 589 131 567 c 0
 131 545 138 528 151 514 c 0
 164 500 181 494 202 494 c 0
 222 494 239 501 252 515 c 0
EndSplineSet
Validated: 1
EndChar

StartChar: plusminus
Encoding: 177 177 114
Width: 541
GlyphClass: 2
Flags: W
HStem: -37 117<49 493> 288 116<49 213 330 493>
VStem: 213 117<124 288 404 568>
LayerCount: 2
Fore
SplineSet
213 288 m 1
 49 288 l 1
 49 404 l 1
 213 404 l 1
 213 568 l 1
 330 568 l 1
 330 404 l 1
 493 404 l 1
 493 288 l 1
 330 288 l 1
 330 124 l 1
 213 124 l 1
 213 288 l 1
49 80 m 1
 493 80 l 1
 493 -37 l 1
 49 -37 l 1
 49 80 l 1
EndSplineSet
Validated: 1
EndChar

StartChar: uni00B2
Encoding: 178 178 115
Width: 354
GlyphClass: 2
Flags: W
HStem: 440 91<178 313> 788 89<148.956 200.937>
VStem: 45 268<440 522 741 825.344> 206 107<697.005 778.717>
LayerCount: 2
Fore
SplineSet
45 522 m 1xe0
 185 697 l 2
 199 714 206 730 206 745 c 2
 206 753 l 2xd0
 206 764 203 773 198 779 c 0
 193 785 184 788 174 788 c 0
 164 788 157 785 152 778 c 0
 147 771 143 763 143 751 c 2
 143 741 l 1
 42 741 l 1
 42 757 l 2
 42 793 54 821 79 843 c 0
 104 865 137 877 179 877 c 0
 219 877 251 865 276 842 c 0
 301 819 313 791 313 758 c 2
 313 746 l 2xe0
 313 727 310 710 303 695 c 0
 296 680 286 663 272 647 c 2
 178 531 l 1
 313 531 l 1xd0
 313 440 l 1
 45 440 l 1
 45 522 l 1xe0
EndSplineSet
Validated: 1
EndChar

StartChar: uni00B3
Encoding: 179 179 116
Width: 349
GlyphClass: 2
Flags: W
HStem: 433 87<135.138 200.156> 616 87<141 189.716> 788 89<135.167 197.761>
VStem: 38 95<522.344 564 745 786.142> 207 101<531.33 611.366 714.33 783.595>
LayerCount: 2
Fore
SplineSet
73 463 m 0
 49 483 38 511 38 549 c 2
 38 564 l 1
 133 564 l 1
 133 554 l 2
 133 531 146 520 171 520 c 0
 182 520 191 524 197 531 c 0
 203 538 207 548 207 561 c 2
 207 570 l 2
 207 601 192 616 163 616 c 2
 141 616 l 1
 141 703 l 1
 162 703 l 2
 174 703 184 707 190 714 c 0
 196 721 200 730 200 742 c 2
 200 751 l 2
 200 776 189 788 168 788 c 0
 145 788 134 778 134 757 c 2
 134 745 l 1
 40 745 l 1
 40 756 l 2
 40 794 52 824 75 845 c 0
 98 866 130 877 172 877 c 0
 212 877 244 866 267 845 c 0
 290 824 301 795 301 760 c 2
 301 751 l 2
 301 714 285 687 254 669 c 1
 272 662 285 650 294 633 c 0
 303 616 308 595 308 572 c 2
 308 561 l 2
 308 522 295 491 270 468 c 0
 245 445 213 433 174 433 c 0
 130 433 97 443 73 463 c 0
EndSplineSet
Validated: 1
EndChar

StartChar: acute
Encoding: 180 180 117
Width: 512
GlyphClass: 2
Flags: W
HStem: 602 136
VStem: 130 251
LayerCount: 2
Fore
SplineSet
241 738 m 1
 381 738 l 1
 240 602 l 1
 130 602 l 1
 241 738 l 1
EndSplineSet
Validated: 1
EndChar

StartChar: uni00B5
Encoding: 181 181 118
Width: 532
GlyphClass: 2
Flags: W
HStem: -160 21G<55 181> -6 112<208.135 320.675> 512 20G<55 182 350 477>
VStem: 55 127<-160 10 131.756 532> 350 127<0 48 132.523 532>
LayerCount: 2
Fore
SplineSet
55 532 m 1
 182 532 l 1
 182 201 l 2
 182 171 190 147 205 131 c 0
 220 115 240 106 265 106 c 0
 290 106 310 115 326 131 c 0
 342 147 350 171 350 201 c 2
 350 532 l 1
 477 532 l 1
 477 0 l 1
 353 0 l 1
 353 48 l 1
 326 12 291 -6 247 -6 c 0
 223 -6 201 -1 181 10 c 1
 181 -160 l 1
 55 -160 l 1
 55 532 l 1
EndSplineSet
Validated: 1
EndChar

StartChar: paragraph
Encoding: 182 182 119
Width: 659
GlyphClass: 2
Flags: W
HStem: -160 21G<262 375 459 568> 604 103<375 459>
VStem: 60 315<379.808 584.062> 262 113<-160 261.538> 459 109<-160 604>
LayerCount: 2
Fore
SplineSet
262 259 m 1xd8
 222 262 187 273 157 293 c 0
 127 313 103 339 86 372 c 0
 69 405 60 442 60 483 c 0xe8
 60 525 70 563 89 597 c 0
 108 631 134 658 169 677 c 0
 204 696 245 707 293 707 c 2
 568 707 l 1
 568 -160 l 1
 459 -160 l 1
 459 604 l 1
 375 604 l 1
 375 -160 l 1
 262 -160 l 1
 262 259 l 1xd8
EndSplineSet
Validated: 1
EndChar

StartChar: periodcentered
Encoding: 183 183 120
Width: 220
GlyphClass: 2
Flags: W
HStem: 213 145<39 181>
VStem: 39 142<213 358>
LayerCount: 2
Fore
SplineSet
39 358 m 1
 181 358 l 1
 181 213 l 1
 39 213 l 1
 39 358 l 1
EndSplineSet
Validated: 1
EndChar

StartChar: cedilla
Encoding: 184 184 121
Width: 512
GlyphClass: 2
Flags: W
HStem: -160 173<230 276>
VStem: 160 171
LayerCount: 2
Fore
SplineSet
230 13 m 1
 331 13 l 1
 276 -160 l 1
 160 -160 l 1
 230 13 l 1
EndSplineSet
Validated: 1
EndChar

StartChar: uni00B9
Encoding: 185 185 122
Width: 259
GlyphClass: 2
Flags: W
HStem: 706 21G<30 58.1633>
VStem: 99 106<440 755>
LayerCount: 2
Fore
SplineSet
99 755 m 1
 30 706 l 1
 30 818 l 1
 100 869 l 1
 205 869 l 1
 205 440 l 1
 99 440 l 1
 99 755 l 1
EndSplineSet
Validated: 1
EndChar

StartChar: ordmasculine
Encoding: 186 186 123
Width: 363
GlyphClass: 2
Flags: W
HStem: 436 82<140.989 220.394> 684 82<140.989 220.394>
VStem: 44 91<523.866 677.688> 227 92<523.866 677.688>
LayerCount: 2
Fore
SplineSet
81 470 m 0
 56 493 44 526 44 572 c 2
 44 631 l 2
 44 677 56 711 81 733 c 0
 106 755 139 766 182 766 c 0
 225 766 259 755 283 733 c 0
 307 711 319 677 319 631 c 2
 319 572 l 2
 319 526 307 493 283 470 c 0
 259 447 225 436 182 436 c 0
 139 436 106 447 81 470 c 0
227 572 m 2
 227 630 l 2
 227 666 212 684 181 684 c 0
 150 684 135 666 135 630 c 2
 135 572 l 2
 135 536 150 518 181 518 c 0
 212 518 227 536 227 572 c 2
170 867 m 1024
EndSplineSet
Validated: 1
EndChar

StartChar: guillemotright
Encoding: 187 187 124
Width: 537
GlyphClass: 2
Flags: W
LayerCount: 2
Fore
SplineSet
55 172 m 1
 154 270 l 1
 55 369 l 1
 55 503 l 1
 288 270 l 1
 55 38 l 1
 55 172 l 1
288 172 m 1
 385 270 l 1
 288 369 l 1
 288 503 l 1
 519 270 l 1
 288 38 l 1
 288 172 l 1
EndSplineSet
Validated: 1
EndChar

StartChar: onequarter
Encoding: 188 188 125
Width: 823
GlyphClass: 3
Flags: W
HStem: 0 21G<116 227.096 665 770> 58 92<604 665 770 798> 687 20G<73.0769 205 498.933 611>
VStem: 99 106<278 592> 665 105<0 58 150 240>
LayerCount: 2
Fore
SplineSet
99 592 m 1
 30 543 l 1
 30 655 l 1
 100 707 l 1
 205 707 l 1
 205 278 l 1
 99 278 l 1
 99 592 l 1
798 58 m 1
 770 58 l 1
 770 0 l 1
 665 0 l 1
 665 58 l 1
 499 58 l 1
 499 150 l 1
 616 429 l 1
 722 429 l 1
 604 150 l 1
 665 150 l 1
 665 240 l 1
 770 240 l 1
 770 150 l 1
 798 150 l 1
 798 58 l 1
510 712 m 1
 611 712 l 1
 216 0 l 1
 116 0 l 1
 510 712 l 1
EndSplineSet
Validated: 1
Ligature2: "'frac' Diagonal Fractions lookup 2 subtable" one slash four
EndChar

StartChar: onehalf
Encoding: 189 189 126
Width: 822
GlyphClass: 3
Flags: W
HStem: 0 91<646 781> 348 88<616.956 668.937> 687 20G<73.0769 205 498.933 611>
VStem: 99 106<278 592> 513 268<0 82 301 385.047> 674 107<257.005 337.717>
LayerCount: 2
Fore
SplineSet
99 592 m 1xf0
 30 543 l 1
 30 655 l 1
 100 707 l 1
 205 707 l 1
 205 278 l 1
 99 278 l 1
 99 592 l 1xf0
513 82 m 1xf8
 653 257 l 2
 667 274 674 290 674 305 c 2
 674 312 l 2xf4
 674 323 671 332 666 338 c 0
 661 344 652 348 642 348 c 0
 632 348 625 345 620 338 c 0
 615 331 611 322 611 310 c 2
 611 301 l 1
 510 301 l 1
 510 316 l 2
 510 351 522 381 547 403 c 0
 572 425 605 436 647 436 c 0
 687 436 719 424 744 401 c 0
 769 378 781 350 781 317 c 2
 781 306 l 2xf8
 781 287 778 269 771 254 c 0
 764 239 754 223 740 207 c 2
 646 91 l 1
 781 91 l 1xf4
 781 0 l 1
 513 0 l 1
 513 82 l 1xf8
510 712 m 1
 611 712 l 1
 216 -0 l 1
 116 -0 l 1
 510 712 l 1
EndSplineSet
Validated: 1
Ligature2: "'frac' Diagonal Fractions lookup 2 subtable" one slash two
EndChar

StartChar: threequarters
Encoding: 190 190 127
Width: 913
GlyphClass: 3
Flags: W
HStem: 0 21G<206 317.096 755 860> 58 92<694 755 860 888> 270 87<135.138 200.156> 454 87<141 189.716> 626 88<135.252 197.646>
VStem: 38 95<359.344 401 583 623.142> 207 101<368.33 449.609 551.33 622.094> 755 105<0 58 150 240>
LayerCount: 2
Fore
SplineSet
73 300 m 0
 49 320 38 348 38 386 c 2
 38 401 l 1
 133 401 l 1
 133 391 l 2
 133 368 146 357 171 357 c 0
 182 357 191 361 197 368 c 0
 203 375 207 385 207 398 c 2
 207 408 l 2
 207 439 192 454 163 454 c 2
 141 454 l 1
 141 541 l 1
 162 541 l 2
 174 541 184 544 190 551 c 0
 196 558 200 568 200 580 c 2
 200 588 l 2
 200 613 189 626 168 626 c 0
 145 626 134 615 134 594 c 2
 134 583 l 1
 40 583 l 1
 40 593 l 2
 40 631 52 661 75 682 c 0
 98 703 130 714 172 714 c 0
 212 714 244 703 267 682 c 0
 290 661 301 632 301 597 c 2
 301 588 l 2
 301 551 285 524 254 506 c 1
 272 499 285 487 294 470 c 0
 303 453 308 433 308 410 c 2
 308 398 l 2
 308 359 295 328 270 305 c 0
 245 282 213 270 174 270 c 0
 130 270 97 280 73 300 c 0
888 58 m 1
 860 58 l 1
 860 0 l 1
 755 0 l 1
 755 58 l 1
 589 58 l 1
 589 150 l 1
 707 429 l 1
 812 429 l 1
 694 150 l 1
 755 150 l 1
 755 240 l 1
 860 240 l 1
 860 150 l 1
 888 150 l 1
 888 58 l 1
600 712 m 1
 701 712 l 1
 306 0 l 1
 206 0 l 1
 600 712 l 1
EndSplineSet
Validated: 1
Ligature2: "'frac' Diagonal Fractions lookup 2 subtable" three slash four
EndChar

StartChar: questiondown
Encoding: 191 191 128
Width: 461
GlyphClass: 2
Flags: W
HStem: -170 115<183.033 291.595> 399 133<171 304>
VStem: 35 131<-37.5063 83.367> 171 133<220.395 331 399 532> 310 124<-34.3386 27>
LayerCount: 2
Fore
SplineSet
171 532 m 1
 304 532 l 1
 304 399 l 1
 171 399 l 1
 171 532 l 1
130 -147 m 0
 100 -132 75 -110 59 -83 c 0
 43 -56 35 -25 35 9 c 0
 35 37 39 62 48 84 c 0
 57 106 71 129 92 154 c 2
 137 206 l 2
 153 224 163 240 167 252 c 0
 171 264 174 281 174 301 c 2
 174 331 l 1
 301 331 l 1
 301 292 l 2
 301 263 298 239 292 222 c 0
 286 205 273 184 251 159 c 2
 203 102 l 2
 189 86 179 71 174 58 c 0
 169 45 166 31 166 16 c 0
 166 -6 172 -23 184 -36 c 0
 196 -49 215 -55 239 -55 c 0
 264 -55 281 -49 292 -35 c 0
 303 -21 309 0 310 27 c 1
 434 27 l 1
 433 -37 415 -87 381 -120 c 0
 347 -153 297 -170 234 -170 c 0
 194 -170 160 -162 130 -147 c 0
EndSplineSet
Validated: 1
EndChar

StartChar: Agrave
Encoding: 192 192 129
Width: 620
GlyphClass: 2
Flags: W
HStem: 0 21G<4 151.277 467.723 616> 137 112<224 395> 687 20G<247.9 372.1>
AnchorPoint: "Anchor-0" 310 707 basechar 0
LayerCount: 2
Fore
SplineSet
431 137 m 1
 188 137 l 1
 145 0 l 1
 4 0 l 1
 255 707 l 1
 365 707 l 1
 616 0 l 1
 474 0 l 1
 431 137 l 1
395 249 m 1
 309 520 l 1
 224 249 l 1
 395 249 l 1
147 912 m 1
 288 912 l 1
 398 776 l 1
 289 776 l 1
 147 912 l 1
EndSplineSet
Validated: 1
EndChar

StartChar: Aacute
Encoding: 193 193 130
Width: 620
GlyphClass: 2
Flags: W
HStem: 0 21G<4 151.277 467.723 616> 137 112<224 395> 687 20G<247.9 372.1>
AnchorPoint: "Anchor-0" 310 707 basechar 0
LayerCount: 2
Fore
SplineSet
431 137 m 1
 188 137 l 1
 145 0 l 1
 4 0 l 1
 255 707 l 1
 365 707 l 1
 616 0 l 1
 474 0 l 1
 431 137 l 1
395 249 m 1
 309 520 l 1
 224 249 l 1
 395 249 l 1
326 912 m 1
 466 912 l 1
 325 776 l 1
 215 776 l 1
 326 912 l 1
EndSplineSet
Validated: 1
EndChar

StartChar: Acircumflex
Encoding: 194 194 131
Width: 620
GlyphClass: 2
Flags: W
HStem: 0 21G<4 151.277 467.723 616> 137 112<224 395> 687 20G<247.9 372.1>
AnchorPoint: "Anchor-0" 310 707 basechar 0
LayerCount: 2
Fore
SplineSet
431 137 m 1
 188 137 l 1
 145 0 l 1
 4 0 l 1
 255 707 l 1
 365 707 l 1
 616 0 l 1
 474 0 l 1
 431 137 l 1
395 249 m 1
 309 520 l 1
 224 249 l 1
 395 249 l 1
263 920 m 1
 356 920 l 1
 474 765 l 1
 375 765 l 1
 310 845 l 1
 246 765 l 1
 145 765 l 1
 263 920 l 1
EndSplineSet
Validated: 1
EndChar

StartChar: Atilde
Encoding: 195 195 132
Width: 620
GlyphClass: 2
Flags: W
HStem: 0 21G<4 151.277 467.723 616> 137 112<224 395> 687 20G<247.9 372.1> 771 96<312.065 430.772> 810 96<188.851 309.873>
AnchorPoint: "Anchor-0" 310 707 basechar 0
LayerCount: 2
Fore
SplineSet
431 137 m 1xe0
 188 137 l 1
 145 0 l 1
 4 0 l 1
 255 707 l 1
 365 707 l 1
 616 0 l 1
 474 0 l 1
 431 137 l 1xe0
395 249 m 1
 309 520 l 1
 224 249 l 1
 395 249 l 1
165 862 m 1
 181 878 194 889 206 896 c 0
 218 903 232 906 248 906 c 0xe8
 262 906 274 904 284 901 c 0
 294 898 307 892 321 885 c 0
 343 873 361 867 377 867 c 0
 391 867 403 871 413 876 c 0
 423 881 437 892 455 908 c 1
 455 815 l 1
 439 799 425 788 413 781 c 0
 401 774 388 771 372 771 c 0xf0
 359 771 347 773 337 776 c 0
 327 779 314 785 300 793 c 0
 278 805 260 810 244 810 c 0xe8
 230 810 218 807 208 802 c 0
 198 797 183 786 165 770 c 1
 165 862 l 1
EndSplineSet
Validated: 1
EndChar

StartChar: Adieresis
Encoding: 196 196 133
Width: 620
GlyphClass: 2
Flags: W
HStem: 0 21G<4 151.277 467.723 616> 137 112<224 395> 687 20G<247.9 372.1> 775 119<157 266 353 463>
VStem: 157 109<775 894> 353 110<775 894>
AnchorPoint: "Anchor-0" 310 707 basechar 0
LayerCount: 2
Fore
SplineSet
431 137 m 1
 188 137 l 1
 145 0 l 1
 4 0 l 1
 255 707 l 1
 365 707 l 1
 616 0 l 1
 474 0 l 1
 431 137 l 1
395 249 m 1
 309 520 l 1
 224 249 l 1
 395 249 l 1
157 894 m 1
 266 894 l 1
 266 775 l 1
 157 775 l 1
 157 894 l 1
353 894 m 1
 463 894 l 1
 463 775 l 1
 353 775 l 1
 353 894 l 1
EndSplineSet
Validated: 1
EndChar

StartChar: Aring
Encoding: 197 197 134
Width: 620
GlyphClass: 2
Flags: W
HStem: 0 21G<4 151.277 467.723 616> 137 112<224 395> 847 56<275.266 348.563>
VStem: 206 58<758.623 836.417> 359 58<758.525 836.417>
AnchorPoint: "Anchor-0" 310 707 basechar 0
LayerCount: 2
Fore
SplineSet
431 137 m 1
 188 137 l 1
 145 0 l 1
 4 0 l 1
 255 707 l 1
 240 717 228 728 219 744 c 0
 210 760 206 778 206 797 c 0
 206 828 216 853 236 873 c 0
 256 893 281 903 311 903 c 0
 341 903 367 893 387 873 c 0
 407 853 417 828 417 797 c 0
 417 777 412 759 403 743 c 0
 394 727 382 715 366 705 c 1
 616 0 l 1
 474 0 l 1
 431 137 l 1
278 833 m 0
 269 823 264 811 264 797 c 0
 264 783 269 772 278 762 c 0
 287 752 298 748 311 748 c 0
 325 748 337 752 346 762 c 0
 355 772 359 783 359 797 c 0
 359 811 355 823 346 833 c 0
 337 843 325 847 311 847 c 0
 297 847 287 843 278 833 c 0
395 249 m 1
 309 520 l 1
 224 249 l 1
 395 249 l 1
310 691 m 1024
EndSplineSet
Validated: 1
EndChar

StartChar: AE
Encoding: 198 198 135
Width: 904
GlyphClass: 2
Flags: W
HStem: 0 117<564 868> 144 112<268 429> 298 117<564 822> 590 117<564 868>
VStem: 429 135<117 144 256 298 415 590>
LayerCount: 2
Fore
SplineSet
564 590 m 1
 564 415 l 1
 822 415 l 1
 822 298 l 1
 564 298 l 1
 564 117 l 1
 868 117 l 1
 868 0 l 1
 429 0 l 1
 429 144 l 1
 214 144 l 1
 145 0 l 1
 4 0 l 1
 352 707 l 1
 868 707 l 1
 868 590 l 1
 564 590 l 1
429 256 m 1
 429 593 l 1
 268 256 l 1
 429 256 l 1
EndSplineSet
Validated: 1
EndChar

StartChar: Ccedilla
Encoding: 199 199 136
Width: 614
GlyphClass: 2
Flags: W
HStem: -160 21G<212 335.203> 599 118<233.887 385.214>
VStem: 51 135<164.29 544.881> 429 132<152.866 234 475 555.536>
LayerCount: 2
Fore
SplineSet
429 475 m 1
 429 481 l 2
 429 517 419 546 398 567 c 0
 377 588 347 599 309 599 c 0
 266 599 235 586 216 559 c 0
 197 532 186 489 186 428 c 2
 186 275 l 2
 186 218 197 177 217 151 c 0
 237 125 268 112 311 112 c 0
 349 112 379 122 399 142 c 0
 419 162 429 191 429 226 c 2
 429 234 l 1
 561 234 l 1
 561 227 l 2
 561 163 545 112 513 73 c 0
 481 34 436 9 378 -2 c 1
 329 -160 l 1
 212 -160 l 1
 274 -7 l 1
 125 6 51 99 51 273 c 2
 51 435 l 2
 51 623 137 717 310 717 c 0
 387 717 449 696 495 655 c 0
 541 614 563 556 563 482 c 2
 563 475 l 1
 429 475 l 1
EndSplineSet
Validated: 1
EndChar

StartChar: Egrave
Encoding: 200 200 137
Width: 544
GlyphClass: 2
Flags: W
HStem: 0 117<195 509> 298 117<195 463> 590 117<195 509>
VStem: 60 135<117 298 415 590>
AnchorPoint: "Anchor-0" 274 707 basechar 0
LayerCount: 2
Fore
SplineSet
195 590 m 1
 195 415 l 1
 463 415 l 1
 463 298 l 1
 195 298 l 1
 195 117 l 1
 509 117 l 1
 509 0 l 1
 60 0 l 1
 60 707 l 1
 509 707 l 1
 509 590 l 1
 195 590 l 1
112 912 m 1
 252 912 l 1
 362 776 l 1
 253 776 l 1
 112 912 l 1
EndSplineSet
Validated: 1
EndChar

StartChar: Eacute
Encoding: 201 201 138
Width: 544
GlyphClass: 2
Flags: W
HStem: 0 117<195 509> 298 117<195 463> 590 117<195 509>
VStem: 60 135<117 298 415 590>
AnchorPoint: "Anchor-0" 274 707 basechar 0
LayerCount: 2
Fore
SplineSet
195 590 m 1
 195 415 l 1
 463 415 l 1
 463 298 l 1
 195 298 l 1
 195 117 l 1
 509 117 l 1
 509 0 l 1
 60 0 l 1
 60 707 l 1
 509 707 l 1
 509 590 l 1
 195 590 l 1
290 912 m 1
 430 912 l 1
 289 776 l 1
 179 776 l 1
 290 912 l 1
EndSplineSet
Validated: 1
EndChar

StartChar: Ecircumflex
Encoding: 202 202 139
Width: 544
GlyphClass: 2
Flags: W
HStem: 0 117<195 509> 298 117<195 463> 590 117<195 509>
VStem: 60 135<117 298 415 590>
AnchorPoint: "Anchor-0" 274 707 basechar 0
LayerCount: 2
Fore
SplineSet
195 590 m 1
 195 415 l 1
 463 415 l 1
 463 298 l 1
 195 298 l 1
 195 117 l 1
 509 117 l 1
 509 0 l 1
 60 0 l 1
 60 707 l 1
 509 707 l 1
 509 590 l 1
 195 590 l 1
227 920 m 1
 321 920 l 1
 438 765 l 1
 339 765 l 1
 274 845 l 1
 210 765 l 1
 110 765 l 1
 227 920 l 1
EndSplineSet
Validated: 1
EndChar

StartChar: Edieresis
Encoding: 203 203 140
Width: 544
GlyphClass: 2
Flags: W
HStem: 0 117<195 509> 298 117<195 463> 590 117<195 509> 775 119<121 230 317 427>
VStem: 60 135<117 298 415 590> 121 109<775 894> 317 110<775 894>
AnchorPoint: "Anchor-0" 274 707 basechar 0
LayerCount: 2
Fore
SplineSet
195 590 m 1xfa
 195 415 l 1
 463 415 l 1
 463 298 l 1
 195 298 l 1
 195 117 l 1
 509 117 l 1
 509 0 l 1
 60 0 l 1
 60 707 l 1
 509 707 l 1
 509 590 l 1
 195 590 l 1xfa
121 894 m 1xf6
 230 894 l 1
 230 775 l 1
 121 775 l 1
 121 894 l 1xf6
317 894 m 1
 427 894 l 1
 427 775 l 1
 317 775 l 1
 317 894 l 1
EndSplineSet
Validated: 1
EndChar

StartChar: Igrave
Encoding: 204 204 141
Width: 267
GlyphClass: 2
Flags: W
HStem: 0 21G<67 201> 687 20G<67 201>
VStem: 67 134<0 707>
AnchorPoint: "Anchor-0" 133 707 basechar 0
LayerCount: 2
Fore
SplineSet
67 707 m 1
 201 707 l 1
 201 0 l 1
 67 0 l 1
 67 707 l 1
-30 912 m 1
 111 912 l 1
 221 776 l 1
 112 776 l 1
 -30 912 l 1
EndSplineSet
Validated: 1
EndChar

StartChar: Iacute
Encoding: 205 205 142
Width: 267
GlyphClass: 2
Flags: W
HStem: 0 21G<67 201> 687 20G<67 201>
VStem: 67 134<0 707>
AnchorPoint: "Anchor-0" 133 707 basechar 0
LayerCount: 2
Fore
SplineSet
67 707 m 1
 201 707 l 1
 201 0 l 1
 67 0 l 1
 67 707 l 1
148 912 m 1
 289 912 l 1
 147 776 l 1
 38 776 l 1
 148 912 l 1
EndSplineSet
Validated: 1
EndChar

StartChar: Icircumflex
Encoding: 206 206 143
Width: 267
GlyphClass: 2
Flags: W
HStem: 0 21G<67 201> 687 20G<67 201>
VStem: 67 134<0 707>
AnchorPoint: "Anchor-0" 133 707 basechar 0
LayerCount: 2
Fore
SplineSet
67 707 m 1
 201 707 l 1
 201 0 l 1
 67 0 l 1
 67 707 l 1
86 920 m 1
 179 920 l 1
 297 765 l 1
 198 765 l 1
 133 845 l 1
 69 765 l 1
 -32 765 l 1
 86 920 l 1
EndSplineSet
Validated: 1
EndChar

StartChar: Idieresis
Encoding: 207 207 144
Width: 267
GlyphClass: 2
Flags: W
HStem: 0 21G<67 201> 687 20G<67 201> 775 119<-20 89 176 286>
VStem: -20 109<775 894> 67 134<0 707> 176 110<775 894>
AnchorPoint: "Anchor-0" 133 707 basechar 0
LayerCount: 2
Fore
SplineSet
67 707 m 1xe8
 201 707 l 1
 201 0 l 1
 67 0 l 1
 67 707 l 1xe8
-20 894 m 1xf0
 89 894 l 1
 89 775 l 1
 -20 775 l 1
 -20 894 l 1xf0
176 894 m 1xe4
 286 894 l 1
 286 775 l 1
 176 775 l 1
 176 894 l 1xe4
EndSplineSet
Validated: 1
EndChar

StartChar: Eth
Encoding: 208 208 145
Width: 647
GlyphClass: 2
Flags: W
HStem: 0 117<227 413.756> 301 118<28 93 227 348> 590 117<227 411.082>
VStem: 93 134<117 301 419 590> 462 134<170.388 536.657>
LayerCount: 2
Fore
SplineSet
528 641 m 0
 573 597 596 526 596 426 c 2
 596 282 l 2
 596 182 572 110 526 66 c 0
 480 22 417 0 338 0 c 2
 93 0 l 1
 93 301 l 1
 28 301 l 1
 28 419 l 1
 93 419 l 1
 93 707 l 1
 342 707 l 2
 421 707 483 685 528 641 c 0
462 419 m 2
 462 479 452 522 432 549 c 0
 412 576 382 590 341 590 c 2
 227 590 l 1
 227 419 l 1
 348 419 l 1
 348 301 l 1
 227 301 l 1
 227 117 l 1
 341 117 l 2
 381 117 412 130 432 157 c 0
 452 184 462 226 462 283 c 2
 462 419 l 2
EndSplineSet
Validated: 1
EndChar

StartChar: Ntilde
Encoding: 209 209 146
Width: 649
GlyphClass: 2
Flags: W
HStem: 0 21G<60 195 443.209 589> 687 20G<60 206.738 455 589> 771 96<326.065 445.387> 810 96<203.478 323.873>
VStem: 60 135<0 441> 455 134<264 707>
AnchorPoint: "Anchor-0" 325 707 basechar 0
LayerCount: 2
Fore
SplineSet
589 707 m 1xcc
 589 0 l 1
 455 0 l 1
 195 441 l 1
 195 0 l 1
 60 0 l 1
 60 707 l 1
 195 707 l 1
 455 264 l 1
 455 707 l 1
 589 707 l 1xcc
179 862 m 1
 195 878 209 889 221 896 c 0
 233 903 246 906 262 906 c 0xdc
 276 906 288 904 298 901 c 0
 308 898 321 892 335 885 c 0
 357 873 375 867 391 867 c 0
 405 867 417 871 427 876 c 0
 437 881 451 892 469 908 c 1
 469 815 l 1
 453 799 440 788 428 781 c 0
 416 774 402 771 386 771 c 0xec
 373 771 361 773 351 776 c 0
 341 779 328 785 314 793 c 0
 292 805 274 810 258 810 c 0xdc
 244 810 232 807 222 802 c 0
 212 797 197 786 179 770 c 1
 179 862 l 1
EndSplineSet
Validated: 1
EndChar

StartChar: Ograve
Encoding: 210 210 147
Width: 614
GlyphClass: 2
Flags: W
HStem: -8 120<230.67 380.953> 599 118<232.787 381.21>
VStem: 51 135<163.242 544.881> 429 134<165.349 546.604>
AnchorPoint: "Anchor-0" 307 707 basechar 0
LayerCount: 2
Fore
SplineSet
51 273 m 2
 51 435 l 2
 51 623 137 717 308 717 c 0
 387 717 449 695 495 651 c 0
 541 607 563 535 563 435 c 2
 563 273 l 2
 563 173 540 102 493 58 c 0
 446 14 383 -8 304 -8 c 0
 135 -8 51 85 51 273 c 2
399 151 m 0
 419 177 429 218 429 275 c 2
 429 428 l 2
 429 488 419 532 399 559 c 0
 379 586 349 599 308 599 c 0
 265 599 234 586 215 560 c 0
 196 534 186 489 186 428 c 2
 186 275 l 2
 186 217 196 176 215 150 c 0
 234 124 265 112 308 112 c 0
 349 112 379 125 399 151 c 0
144 912 m 1
 285 912 l 1
 395 776 l 1
 286 776 l 1
 144 912 l 1
EndSplineSet
Validated: 1
EndChar

StartChar: Oacute
Encoding: 211 211 148
Width: 614
GlyphClass: 2
Flags: W
HStem: -8 120<230.67 380.953> 599 118<232.787 381.21>
VStem: 51 135<163.242 544.881> 429 134<165.349 546.604>
AnchorPoint: "Anchor-0" 307 707 basechar 0
LayerCount: 2
Fore
SplineSet
51 273 m 2
 51 435 l 2
 51 623 137 717 308 717 c 0
 387 717 449 695 495 651 c 0
 541 607 563 535 563 435 c 2
 563 273 l 2
 563 173 540 102 493 58 c 0
 446 14 383 -8 304 -8 c 0
 135 -8 51 85 51 273 c 2
399 151 m 0
 419 177 429 218 429 275 c 2
 429 428 l 2
 429 488 419 532 399 559 c 0
 379 586 349 599 308 599 c 0
 265 599 234 586 215 560 c 0
 196 534 186 489 186 428 c 2
 186 275 l 2
 186 217 196 176 215 150 c 0
 234 124 265 112 308 112 c 0
 349 112 379 125 399 151 c 0
323 912 m 1
 463 912 l 1
 322 776 l 1
 212 776 l 1
 323 912 l 1
EndSplineSet
Validated: 1
EndChar

StartChar: Ocircumflex
Encoding: 212 212 149
Width: 614
GlyphClass: 2
Flags: W
HStem: -8 120<230.67 380.953> 599 118<232.787 381.21>
VStem: 51 135<163.242 544.881> 429 134<165.349 546.604>
AnchorPoint: "Anchor-0" 307 707 basechar 0
LayerCount: 2
Fore
SplineSet
51 273 m 2
 51 435 l 2
 51 623 137 717 308 717 c 0
 387 717 449 695 495 651 c 0
 541 607 563 535 563 435 c 2
 563 273 l 2
 563 173 540 102 493 58 c 0
 446 14 383 -8 304 -8 c 0
 135 -8 51 85 51 273 c 2
399 151 m 0
 419 177 429 218 429 275 c 2
 429 428 l 2
 429 488 419 532 399 559 c 0
 379 586 349 599 308 599 c 0
 265 599 234 586 215 560 c 0
 196 534 186 489 186 428 c 2
 186 275 l 2
 186 217 196 176 215 150 c 0
 234 124 265 112 308 112 c 0
 349 112 379 125 399 151 c 0
260 920 m 1
 353 920 l 1
 471 765 l 1
 372 765 l 1
 307 845 l 1
 243 765 l 1
 142 765 l 1
 260 920 l 1
EndSplineSet
Validated: 1
EndChar

StartChar: Otilde
Encoding: 213 213 150
Width: 614
GlyphClass: 2
Flags: W
HStem: -8 120<230.67 380.953> 599 118<232.787 381.21> 771 96<308.003 427.772> 810 96<185.851 306.764>
VStem: 51 135<163.242 544.881> 429 134<165.349 546.604>
AnchorPoint: "Anchor-0" 307 707 basechar 0
LayerCount: 2
Fore
SplineSet
51 273 m 2xcc
 51 435 l 2
 51 623 137 717 308 717 c 0
 387 717 449 695 495 651 c 0
 541 607 563 535 563 435 c 2
 563 273 l 2
 563 173 540 102 493 58 c 0
 446 14 383 -8 304 -8 c 0
 135 -8 51 85 51 273 c 2xcc
399 151 m 0
 419 177 429 218 429 275 c 2
 429 428 l 2
 429 488 419 532 399 559 c 0
 379 586 349 599 308 599 c 0
 265 599 234 586 215 560 c 0
 196 534 186 489 186 428 c 2
 186 275 l 2
 186 217 196 176 215 150 c 0
 234 124 265 112 308 112 c 0
 349 112 379 125 399 151 c 0
162 862 m 1
 178 878 191 889 203 896 c 0
 215 903 229 906 245 906 c 0xdc
 259 906 271 904 281 901 c 0
 291 898 303 892 317 885 c 0
 339 873 358 867 374 867 c 0
 388 867 400 871 410 876 c 0
 420 881 434 892 452 908 c 1
 452 815 l 1
 436 799 422 788 410 781 c 0
 398 774 385 771 369 771 c 0xec
 356 771 344 773 334 776 c 0
 324 779 311 785 297 793 c 0
 275 805 257 810 241 810 c 0xdc
 227 810 215 807 205 802 c 0
 195 797 180 786 162 770 c 1
 162 862 l 1
EndSplineSet
Validated: 1
EndChar

StartChar: Odieresis
Encoding: 214 214 151
Width: 614
GlyphClass: 2
Flags: W
HStem: -8 120<230.67 380.953> 599 118<232.787 381.21> 775 119<154 263 350 460>
VStem: 51 135<163.242 544.881> 154 109<775 894> 350 110<775 894> 429 134<165.349 546.604>
AnchorPoint: "Anchor-0" 307 707 basechar 0
LayerCount: 2
Fore
SplineSet
51 273 m 2xf2
 51 435 l 2
 51 623 137 717 308 717 c 0
 387 717 449 695 495 651 c 0
 541 607 563 535 563 435 c 2
 563 273 l 2
 563 173 540 102 493 58 c 0
 446 14 383 -8 304 -8 c 0
 135 -8 51 85 51 273 c 2xf2
399 151 m 0
 419 177 429 218 429 275 c 2
 429 428 l 2
 429 488 419 532 399 559 c 0
 379 586 349 599 308 599 c 0
 265 599 234 586 215 560 c 0
 196 534 186 489 186 428 c 2
 186 275 l 2
 186 217 196 176 215 150 c 0
 234 124 265 112 308 112 c 0
 349 112 379 125 399 151 c 0
154 894 m 1xe8
 263 894 l 1
 263 775 l 1
 154 775 l 1
 154 894 l 1xe8
350 894 m 1xe4
 460 894 l 1
 460 775 l 1
 350 775 l 1
 350 894 l 1xe4
EndSplineSet
Validated: 1
EndChar

StartChar: multiply
Encoding: 215 215 152
Width: 541
GlyphClass: 2
Flags: W
LayerCount: 2
Fore
SplineSet
71 161 m 1
 193 283 l 1
 71 406 l 1
 148 483 l 1
 271 361 l 1
 393 483 l 1
 471 404 l 1
 349 283 l 1
 471 161 l 1
 393 82 l 1
 271 205 l 1
 148 82 l 1
 71 161 l 1
EndSplineSet
Validated: 1
EndChar

StartChar: Oslash
Encoding: 216 216 153
Width: 614
GlyphClass: 2
Flags: W
HStem: -8 120<230.338 380.953> 599 118<232.787 381.797>
VStem: 51 135<218.66 544.881> 429 134<165.349 492.969>
AnchorPoint: "Anchor-0" 307 707 basechar 0
LayerCount: 2
Fore
SplineSet
507 636 m 1
 545 590 563 522 563 435 c 2
 563 273 l 2
 563 173 540 102 493 58 c 0
 446 14 383 -8 304 -8 c 0
 243 -8 194 4 154 29 c 1
 125 -20 l 1
 51 -20 l 1
 105 73 l 1
 69 119 51 185 51 273 c 2
 51 435 l 2
 51 623 137 717 308 717 c 0
 369 717 420 704 460 679 c 1
 490 732 l 1
 563 732 l 1
 507 636 l 1
190 218 m 1
 393 566 l 1
 374 588 346 599 308 599 c 0
 265 599 234 586 215 560 c 0
 196 534 186 489 186 428 c 2
 186 275 l 2
 186 251 187 232 190 218 c 1
424 494 m 1
 220 143 l 1
 240 122 270 112 308 112 c 0
 349 112 379 125 399 151 c 0
 419 177 429 218 429 275 c 2
 429 428 l 2
 429 450 427 472 424 494 c 1
EndSplineSet
Validated: 1
EndChar

StartChar: Ugrave
Encoding: 217 217 154
Width: 628
GlyphClass: 2
Flags: W
HStem: -6 117<238.899 387.939> 687 20G<60 195 433 568>
VStem: 60 135<155.037 707> 433 135<156.22 707>
AnchorPoint: "Anchor-0" 314 707 basechar 0
LayerCount: 2
Fore
SplineSet
184 24 m 0
 145 44 115 72 93 109 c 0
 71 146 60 187 60 233 c 2
 60 707 l 1
 195 707 l 1
 195 238 l 2
 195 198 205 166 226 144 c 0
 247 122 276 111 313 111 c 0
 350 111 379 122 401 144 c 0
 423 166 433 198 433 238 c 2
 433 707 l 1
 568 707 l 1
 568 233 l 2
 568 187 557 146 535 109 c 0
 513 72 483 44 444 24 c 0
 405 4 361 -6 313 -6 c 0
 265 -6 223 4 184 24 c 0
152 912 m 1
 292 912 l 1
 402 776 l 1
 293 776 l 1
 152 912 l 1
EndSplineSet
Validated: 1
EndChar

StartChar: Uacute
Encoding: 218 218 155
Width: 628
GlyphClass: 2
Flags: W
HStem: -6 117<238.899 387.939> 687 20G<60 195 433 568>
VStem: 60 135<155.037 707> 433 135<156.22 707>
AnchorPoint: "Anchor-0" 314 707 basechar 0
LayerCount: 2
Fore
SplineSet
184 24 m 0
 145 44 115 72 93 109 c 0
 71 146 60 187 60 233 c 2
 60 707 l 1
 195 707 l 1
 195 238 l 2
 195 198 205 166 226 144 c 0
 247 122 276 111 313 111 c 0
 350 111 379 122 401 144 c 0
 423 166 433 198 433 238 c 2
 433 707 l 1
 568 707 l 1
 568 233 l 2
 568 187 557 146 535 109 c 0
 513 72 483 44 444 24 c 0
 405 4 361 -6 313 -6 c 0
 265 -6 223 4 184 24 c 0
330 912 m 1
 470 912 l 1
 329 776 l 1
 219 776 l 1
 330 912 l 1
EndSplineSet
Validated: 1
EndChar

StartChar: Ucircumflex
Encoding: 219 219 156
Width: 628
GlyphClass: 2
Flags: W
HStem: -6 117<238.899 387.939> 687 20G<60 195 433 568>
VStem: 60 135<155.037 707> 433 135<156.22 707>
AnchorPoint: "Anchor-0" 314 707 basechar 0
LayerCount: 2
Fore
SplineSet
184 24 m 0
 145 44 115 72 93 109 c 0
 71 146 60 187 60 233 c 2
 60 707 l 1
 195 707 l 1
 195 238 l 2
 195 198 205 166 226 144 c 0
 247 122 276 111 313 111 c 0
 350 111 379 122 401 144 c 0
 423 166 433 198 433 238 c 2
 433 707 l 1
 568 707 l 1
 568 233 l 2
 568 187 557 146 535 109 c 0
 513 72 483 44 444 24 c 0
 405 4 361 -6 313 -6 c 0
 265 -6 223 4 184 24 c 0
267 920 m 1
 360 920 l 1
 478 765 l 1
 379 765 l 1
 314 845 l 1
 250 765 l 1
 150 765 l 1
 267 920 l 1
EndSplineSet
Validated: 1
EndChar

StartChar: Udieresis
Encoding: 220 220 157
Width: 628
GlyphClass: 2
Flags: W
HStem: -6 117<238.899 387.939> 687 20G<60 195 433 568> 775 119<161 270 357 467>
VStem: 60 135<155.037 707> 161 109<775 894> 357 110<775 894> 433 135<156.22 707>
AnchorPoint: "Anchor-0" 314 707 basechar 0
LayerCount: 2
Fore
SplineSet
184 24 m 0xf2
 145 44 115 72 93 109 c 0
 71 146 60 187 60 233 c 2
 60 707 l 1
 195 707 l 1
 195 238 l 2
 195 198 205 166 226 144 c 0
 247 122 276 111 313 111 c 0
 350 111 379 122 401 144 c 0
 423 166 433 198 433 238 c 2
 433 707 l 1
 568 707 l 1
 568 233 l 2
 568 187 557 146 535 109 c 0
 513 72 483 44 444 24 c 0
 405 4 361 -6 313 -6 c 0
 265 -6 223 4 184 24 c 0xf2
161 894 m 1xe8
 270 894 l 1
 270 775 l 1
 161 775 l 1
 161 894 l 1xe8
357 894 m 1xe4
 467 894 l 1
 467 775 l 1
 357 775 l 1
 357 894 l 1xe4
EndSplineSet
Validated: 1
EndChar

StartChar: Yacute
Encoding: 221 221 158
Width: 553
GlyphClass: 2
Flags: W
HStem: 0 21G<210 344> 687 20G<4 159.711 393.22 550>
VStem: 210 134<0 290>
AnchorPoint: "Anchor-0" 276 707 basechar 0
LayerCount: 2
Fore
SplineSet
344 291 m 1
 344 0 l 1
 210 0 l 1
 210 290 l 1
 4 707 l 1
 151 707 l 1
 276 420 l 1
 402 707 l 1
 550 707 l 1
 344 291 l 1
292 912 m 1
 432 912 l 1
 291 776 l 1
 181 776 l 1
 292 912 l 1
EndSplineSet
Validated: 1
EndChar

StartChar: Thorn
Encoding: 222 222 159
Width: 580
GlyphClass: 2
Flags: W
HStem: 0 21G<60 195> 153 116<195 387.843> 473 117<195 387.843> 687 20G<60 195>
VStem: 60 135<0 153 269 473 590 707> 422 134<301.542 439.88>
LayerCount: 2
Fore
SplineSet
494 530 m 0
 535 490 556 437 556 368 c 0
 556 302 535 250 494 211 c 0
 453 172 397 153 325 153 c 2
 195 153 l 1
 195 0 l 1
 60 0 l 1
 60 707 l 1
 195 707 l 1
 195 590 l 1
 325 590 l 2
 397 590 453 570 494 530 c 0
394 295 m 0
 412 312 422 337 422 368 c 0
 422 402 413 428 395 446 c 0
 377 464 351 473 318 473 c 2
 195 473 l 1
 195 269 l 1
 318 269 l 2
 350 269 376 278 394 295 c 0
EndSplineSet
Validated: 1
EndChar

StartChar: germandbls
Encoding: 223 223 160
Width: 536
GlyphClass: 2
Flags: W
HStem: -4 106<260 341.527> 371 105<260 337.434> 608 109<203.665 337.994>
VStem: 55 127<0 586.338> 355 126<490.392 592.188> 365 125<115.761 352.603>
LayerCount: 2
Fore
SplineSet
260 102 m 1xf4
 293 102 l 2
 316 102 332 106 342 115 c 0
 352 124 359 137 361 154 c 0
 363 171 365 199 365 236 c 0xf4
 365 272 363 298 360 316 c 0
 357 334 350 348 338 357 c 0
 326 366 309 371 284 371 c 2
 260 371 l 1
 260 476 l 1
 292 476 l 2
 315 476 330 482 340 493 c 0
 350 504 355 520 355 542 c 0
 355 565 349 581 335 592 c 0
 321 603 300 608 271 608 c 0
 240 608 218 601 204 587 c 0
 190 573 182 551 182 521 c 2
 182 0 l 1
 55 0 l 1
 55 510 l 2
 55 578 72 629 106 664 c 0
 140 699 195 717 270 717 c 0
 337 717 389 702 426 673 c 0
 463 644 481 602 481 548 c 0xf8
 481 521 476 497 467 478 c 0
 458 459 443 442 423 428 c 1
 443 417 457 404 467 389 c 0
 477 374 483 354 486 330 c 0
 489 306 490 274 490 233 c 0
 490 172 486 125 476 92 c 0
 466 59 448 34 421 19 c 0
 394 4 355 -4 302 -4 c 2
 260 -4 l 1
 260 102 l 1xf4
EndSplineSet
Validated: 1
EndChar

StartChar: agrave
Encoding: 224 224 161
Width: 513
GlyphClass: 2
Flags: W
HStem: -6 102<174.846 299.072> 227 87<173.776 332> 441 98<187.979 312.179>
VStem: 37 123<111.678 211.72> 51 118<373 422.435> 332 126<0 46 119.71 227 314 420.46>
AnchorPoint: "Anchor-0" 248 532 basechar 0
LayerCount: 2
Fore
SplineSet
403 491 m 0xec
 439 459 458 412 458 350 c 2
 458 -0 l 1
 335 -0 l 1
 335 46 l 1
 317 28 299 14 280 6 c 0
 261 -2 238 -6 209 -6 c 0
 154 -6 112 9 82 38 c 0
 52 67 37 108 37 160 c 0xf4
 37 208 53 245 85 273 c 0
 117 301 162 314 219 314 c 2
 332 314 l 1
 332 356 l 2
 332 413 304 441 247 441 c 0
 223 441 204 435 190 423 c 0
 176 411 169 396 169 376 c 2
 169 373 l 1
 51 373 l 1
 51 377 l 2
 51 427 69 466 104 495 c 0
 139 524 188 539 248 539 c 0
 316 539 367 523 403 491 c 0xec
310 119 m 0
 325 134 332 158 332 189 c 2
 332 227 l 1
 240 227 l 2
 187 227 160 206 160 163 c 0
 160 119 186 96 238 96 c 0
 271 96 295 104 310 119 c 0
85 738 m 1
 225 738 l 1
 336 602 l 1
 226 602 l 1
 85 738 l 1
EndSplineSet
Validated: 1
EndChar

StartChar: aacute
Encoding: 225 225 162
Width: 513
GlyphClass: 2
Flags: W
HStem: -6 102<174.846 299.072> 227 87<173.776 332> 441 98<187.979 312.179>
VStem: 37 123<111.678 211.72> 51 118<373 422.435> 332 126<0 46 119.71 227 314 420.46>
AnchorPoint: "Anchor-0" 248 532 basechar 0
LayerCount: 2
Fore
SplineSet
403 491 m 0xec
 439 459 458 412 458 350 c 2
 458 -0 l 1
 335 -0 l 1
 335 46 l 1
 317 28 299 14 280 6 c 0
 261 -2 238 -6 209 -6 c 0
 154 -6 112 9 82 38 c 0
 52 67 37 108 37 160 c 0xf4
 37 208 53 245 85 273 c 0
 117 301 162 314 219 314 c 2
 332 314 l 1
 332 356 l 2
 332 413 304 441 247 441 c 0
 223 441 204 435 190 423 c 0
 176 411 169 396 169 376 c 2
 169 373 l 1
 51 373 l 1
 51 377 l 2
 51 427 69 466 104 495 c 0
 139 524 188 539 248 539 c 0
 316 539 367 523 403 491 c 0xec
310 119 m 0
 325 134 332 158 332 189 c 2
 332 227 l 1
 240 227 l 2
 187 227 160 206 160 163 c 0
 160 119 186 96 238 96 c 0
 271 96 295 104 310 119 c 0
263 738 m 1
 403 738 l 1
 262 602 l 1
 153 602 l 1
 263 738 l 1
EndSplineSet
Validated: 1
EndChar

StartChar: acircumflex
Encoding: 226 226 163
Width: 513
GlyphClass: 2
Flags: W
HStem: -6 102<174.846 299.072> 227 87<173.776 332> 441 98<187.979 312.179>
VStem: 37 123<111.678 211.72> 51 118<373 422.435> 332 126<0 46 119.71 227 314 420.46>
AnchorPoint: "Anchor-0" 248 532 basechar 0
LayerCount: 2
Fore
SplineSet
403 491 m 0xec
 439 459 458 412 458 350 c 2
 458 -0 l 1
 335 -0 l 1
 335 46 l 1
 317 28 299 14 280 6 c 0
 261 -2 238 -6 209 -6 c 0
 154 -6 112 9 82 38 c 0
 52 67 37 108 37 160 c 0xf4
 37 208 53 245 85 273 c 0
 117 301 162 314 219 314 c 2
 332 314 l 1
 332 356 l 2
 332 413 304 441 247 441 c 0
 223 441 204 435 190 423 c 0
 176 411 169 396 169 376 c 2
 169 373 l 1
 51 373 l 1
 51 377 l 2
 51 427 69 466 104 495 c 0
 139 524 188 539 248 539 c 0
 316 539 367 523 403 491 c 0xec
310 119 m 0
 325 134 332 158 332 189 c 2
 332 227 l 1
 240 227 l 2
 187 227 160 206 160 163 c 0
 160 119 186 96 238 96 c 0
 271 96 295 104 310 119 c 0
201 745 m 1
 294 745 l 1
 412 591 l 1
 312 591 l 1
 248 671 l 1
 183 591 l 1
 83 591 l 1
 201 745 l 1
EndSplineSet
Validated: 1
EndChar

StartChar: atilde
Encoding: 227 227 164
Width: 513
GlyphClass: 2
Flags: W
HStem: -6 102<174.846 299.072> 227 87<173.776 332> 441 98<187.979 312.179> 597 96<249.775 368.387> 636 96<126.478 246.066>
VStem: 37 123<111.678 211.72> 51 118<373 422.435> 332 126<0 46 119.71 227 314 420.46>
AnchorPoint: "Anchor-0" 248 532 basechar 0
LayerCount: 2
Fore
SplineSet
403 491 m 0xe3
 439 459 458 412 458 350 c 2
 458 -0 l 1
 335 -0 l 1
 335 46 l 1
 317 28 299 14 280 6 c 0
 261 -2 238 -6 209 -6 c 0
 154 -6 112 9 82 38 c 0
 52 67 37 108 37 160 c 0xe5
 37 208 53 245 85 273 c 0
 117 301 162 314 219 314 c 2
 332 314 l 1
 332 356 l 2
 332 413 304 441 247 441 c 0
 223 441 204 435 190 423 c 0
 176 411 169 396 169 376 c 2
 169 373 l 1
 51 373 l 1
 51 377 l 2
 51 427 69 466 104 495 c 0
 139 524 188 539 248 539 c 0
 316 539 367 523 403 491 c 0xe3
310 119 m 0
 325 134 332 158 332 189 c 2
 332 227 l 1
 240 227 l 2
 187 227 160 206 160 163 c 0
 160 119 186 96 238 96 c 0
 271 96 295 104 310 119 c 0
102 688 m 1
 118 704 132 715 144 722 c 0
 156 729 169 732 185 732 c 0xe9
 199 732 211 730 221 727 c 0
 231 724 244 719 258 711 c 0
 280 699 298 693 314 693 c 0
 328 693 340 696 350 701 c 0
 360 706 374 718 392 734 c 1
 392 641 l 1
 376 625 363 614 351 607 c 0
 339 600 325 597 309 597 c 0xf1
 296 597 284 599 274 602 c 0
 264 605 252 610 238 618 c 0
 216 630 197 636 181 636 c 0xe9
 167 636 155 633 145 628 c 0
 135 623 120 612 102 596 c 1
 102 688 l 1
EndSplineSet
Validated: 1
EndChar

StartChar: adieresis
Encoding: 228 228 165
Width: 513
GlyphClass: 2
Flags: W
HStem: -6 102<174.846 299.072> 227 87<173.776 332> 441 98<187.979 312.179> 601 119<94 204 291 400>
VStem: 37 123<111.678 211.72> 51 118<373 422.435> 94 110<601 720> 291 109<601 720> 332 126<0 46 119.71 227 314 420.46>
AnchorPoint: "Anchor-0" 248 532 basechar 0
LayerCount: 2
Fore
SplineSet
403 491 m 0xf480
 439 459 458 412 458 350 c 2
 458 -0 l 1
 335 -0 l 1
 335 46 l 1
 317 28 299 14 280 6 c 0
 261 -2 238 -6 209 -6 c 0
 154 -6 112 9 82 38 c 0
 52 67 37 108 37 160 c 0xf880
 37 208 53 245 85 273 c 0
 117 301 162 314 219 314 c 2
 332 314 l 1
 332 356 l 2
 332 413 304 441 247 441 c 0
 223 441 204 435 190 423 c 0
 176 411 169 396 169 376 c 2
 169 373 l 1
 51 373 l 1
 51 377 l 2
 51 427 69 466 104 495 c 0
 139 524 188 539 248 539 c 0
 316 539 367 523 403 491 c 0xf480
310 119 m 0
 325 134 332 158 332 189 c 2
 332 227 l 1
 240 227 l 2
 187 227 160 206 160 163 c 0
 160 119 186 96 238 96 c 0
 271 96 295 104 310 119 c 0
94 720 m 1xf2
 204 720 l 1
 204 601 l 1
 94 601 l 1
 94 720 l 1xf2
291 720 m 1xf1
 400 720 l 1
 400 601 l 1
 291 601 l 1
 291 720 l 1xf1
EndSplineSet
Validated: 1
EndChar

StartChar: aring
Encoding: 229 229 166
Width: 513
GlyphClass: 2
Flags: W
HStem: -6 102<174.846 299.072> 227 87<173.776 332> 441 98<187.979 312.179> 560 56<209.821 287.274> 716 56<211.766 287.274>
VStem: 37 123<111.678 211.72> 51 118<373 422.435> 142 59<624 704.328> 296 57<624 708.188> 332 126<0 46 119.71 227 314 420.46>
AnchorPoint: "Anchor-0" 248 532 basechar 0
LayerCount: 2
Fore
SplineSet
403 491 m 0xfa40
 439 459 458 412 458 350 c 2
 458 -0 l 1
 335 -0 l 1
 335 46 l 1
 317 28 299 14 280 6 c 0
 261 -2 238 -6 209 -6 c 0
 154 -6 112 9 82 38 c 0
 52 67 37 108 37 160 c 0xfc40
 37 208 53 245 85 273 c 0
 117 301 162 314 219 314 c 2
 332 314 l 1
 332 356 l 2
 332 413 304 441 247 441 c 0
 223 441 204 435 190 423 c 0
 176 411 169 396 169 376 c 2
 169 373 l 1
 51 373 l 1
 51 377 l 2
 51 427 69 466 104 495 c 0
 139 524 188 539 248 539 c 0
 316 539 367 523 403 491 c 0xfa40
310 119 m 0
 325 134 332 158 332 189 c 2
 332 227 l 1
 240 227 l 2
 187 227 160 206 160 163 c 0
 160 119 186 96 238 96 c 0
 271 96 295 104 310 119 c 0
173 590 m 0
 153 610 142 636 142 666 c 0
 142 697 153 722 173 742 c 0
 193 762 218 772 248 772 c 0
 278 772 303 762 323 742 c 0
 343 722 353 697 353 666 c 0xf980
 353 636 343 610 323 590 c 0
 303 570 278 560 248 560 c 0
 218 560 193 570 173 590 c 0
282 631 m 0
 291 641 296 652 296 666 c 0
 296 680 291 691 282 701 c 0
 273 711 262 716 248 716 c 0
 234 716 223 711 214 701 c 0
 205 691 201 680 201 666 c 0
 201 652 206 641 215 631 c 0
 224 621 235 616 248 616 c 0
 262 616 273 621 282 631 c 0
EndSplineSet
Validated: 1
EndChar

StartChar: ae
Encoding: 230 230 167
Width: 814
GlyphClass: 2
Flags: W
HStem: -6 102<175.535 305.473 497.613 616.601> 228 87<176.137 332 458 642> 430 109<486.851 615.432> 441 98<187.979 311.502>
VStem: 37 123<110.973 211.72> 51 118<373 422.435> 332 126<133.186 227 315 400.972> 642 126<120.573 167 315 403.125>
LayerCount: 2
Fore
SplineSet
458 214 m 2xe7
 458 174 467 146 484 129 c 0
 501 112 526 103 559 103 c 0
 584 103 603 108 618 119 c 0
 633 130 641 145 643 164 c 2
 643 167 l 1
 764 167 l 1
 764 162 l 2
 764 131 756 103 741 77 c 0
 726 51 703 31 673 16 c 0
 643 1 606 -6 563 -6 c 0
 492 -6 436 15 395 58 c 1
 375 38 351 22 323 11 c 0
 295 0 262 -6 227 -6 c 0
 169 -6 123 8 89 38 c 0
 55 68 37 109 37 160 c 0xeb
 37 208 53 245 85 273 c 0
 117 301 162 314 219 314 c 2
 332 314 l 1
 332 356 l 2
 332 413 304 441 247 441 c 0
 223 441 204 435 190 423 c 0
 176 411 169 396 169 376 c 2
 169 373 l 1
 51 373 l 1
 51 377 l 2
 51 427 69 466 104 495 c 0
 139 524 188 539 248 539 c 0xd7
 314 539 365 521 403 487 c 1
 441 521 491 539 551 539 c 0
 617 539 670 518 709 478 c 0
 748 438 768 378 768 299 c 2
 768 228 l 1
 458 228 l 1
 458 214 l 2xe7
482 404 m 0
 466 387 458 358 458 318 c 2
 458 315 l 1
 642 315 l 1
 642 329 l 2
 642 397 612 430 551 430 c 0
 521 430 498 421 482 404 c 0
332 195 m 2
 332 227 l 1
 240 227 l 2
 187 227 160 206 160 163 c 0
 160 119 186 96 238 96 c 0
 301 96 332 129 332 195 c 2
EndSplineSet
Validated: 1
EndChar

StartChar: ccedilla
Encoding: 231 231 168
Width: 517
GlyphClass: 2
Flags: W
HStem: -160 21G<162 285.211> 426 113<201.034 326.842>
VStem: 46 126<135.709 395.907> 350 121<128.889 190 339 403.131>
LayerCount: 2
Fore
SplineSet
350 339 m 1
 350 345 l 2
 350 370 342 390 327 404 c 0
 312 418 291 426 264 426 c 0
 203 426 172 388 172 314 c 2
 172 218 l 2
 172 178 180 149 196 132 c 0
 212 115 235 106 264 106 c 0
 291 106 312 113 327 127 c 0
 342 141 350 159 350 184 c 2
 350 190 l 1
 471 190 l 1
 471 183 l 2
 471 135 459 96 434 65 c 0
 409 34 374 12 329 1 c 1
 279 -160 l 1
 162 -160 l 1
 225 -4 l 1
 169 2 126 23 94 59 c 0
 62 95 46 148 46 217 c 2
 46 316 l 2
 46 392 65 448 104 484 c 0
 143 520 195 539 262 539 c 0
 328 539 379 521 416 488 c 0
 453 455 471 408 471 349 c 2
 471 339 l 1
 350 339 l 1
EndSplineSet
Validated: 1
EndChar

StartChar: egrave
Encoding: 232 232 169
Width: 529
GlyphClass: 2
Flags: W
HStem: -6 109<203.447 336.081> 228 87<172 356> 430 109<199.878 329.79>
VStem: 46 126<135.989 228 315 401.173> 356 127<315 403.125>
AnchorPoint: "Anchor-0" 264 532 basechar 0
LayerCount: 2
Fore
SplineSet
172 228 m 1
 172 214 l 2
 172 174 181 146 199 129 c 0
 217 112 241 103 274 103 c 0
 299 103 320 108 334 119 c 0
 348 130 356 145 357 164 c 1
 358 167 l 1
 479 167 l 1
 479 162 l 2
 479 111 461 71 423 40 c 0
 385 9 334 -6 269 -6 c 0
 201 -6 146 14 106 53 c 0
 66 92 46 152 46 234 c 2
 46 299 l 2
 46 379 65 439 104 479 c 0
 143 519 197 539 265 539 c 0
 332 539 385 518 424 478 c 0
 463 438 483 378 483 299 c 2
 483 228 l 1
 172 228 l 1
196 404 m 0
 180 387 172 358 172 318 c 2
 172 315 l 1
 356 315 l 1
 356 329 l 2
 356 397 326 430 265 430 c 0
 235 430 212 421 196 404 c 0
101 738 m 1
 242 738 l 1
 352 602 l 1
 243 602 l 1
 101 738 l 1
EndSplineSet
Validated: 1
EndChar

StartChar: eacute
Encoding: 233 233 170
Width: 529
GlyphClass: 2
Flags: W
HStem: -6 109<203.447 336.081> 228 87<172 356> 430 109<199.878 329.79>
VStem: 46 126<135.989 228 315 401.173> 356 127<315 403.125>
AnchorPoint: "Anchor-0" 264 532 basechar 0
LayerCount: 2
Fore
SplineSet
172 228 m 1
 172 214 l 2
 172 174 181 146 199 129 c 0
 217 112 241 103 274 103 c 0
 299 103 320 108 334 119 c 0
 348 130 356 145 357 164 c 1
 358 167 l 1
 479 167 l 1
 479 162 l 2
 479 111 461 71 423 40 c 0
 385 9 334 -6 269 -6 c 0
 201 -6 146 14 106 53 c 0
 66 92 46 152 46 234 c 2
 46 299 l 2
 46 379 65 439 104 479 c 0
 143 519 197 539 265 539 c 0
 332 539 385 518 424 478 c 0
 463 438 483 378 483 299 c 2
 483 228 l 1
 172 228 l 1
196 404 m 0
 180 387 172 358 172 318 c 2
 172 315 l 1
 356 315 l 1
 356 329 l 2
 356 397 326 430 265 430 c 0
 235 430 212 421 196 404 c 0
280 738 m 1
 420 738 l 1
 279 602 l 1
 169 602 l 1
 280 738 l 1
EndSplineSet
Validated: 1
EndChar

StartChar: ecircumflex
Encoding: 234 234 171
Width: 529
GlyphClass: 2
Flags: W
HStem: -6 109<203.447 336.081> 228 87<172 356> 430 109<199.878 329.79>
VStem: 46 126<135.989 228 315 401.173> 356 127<315 403.125>
AnchorPoint: "Anchor-0" 264 532 basechar 0
LayerCount: 2
Fore
SplineSet
172 228 m 1
 172 214 l 2
 172 174 181 146 199 129 c 0
 217 112 241 103 274 103 c 0
 299 103 320 108 334 119 c 0
 348 130 356 145 357 164 c 1
 358 167 l 1
 479 167 l 1
 479 162 l 2
 479 111 461 71 423 40 c 0
 385 9 334 -6 269 -6 c 0
 201 -6 146 14 106 53 c 0
 66 92 46 152 46 234 c 2
 46 299 l 2
 46 379 65 439 104 479 c 0
 143 519 197 539 265 539 c 0
 332 539 385 518 424 478 c 0
 463 438 483 378 483 299 c 2
 483 228 l 1
 172 228 l 1
196 404 m 0
 180 387 172 358 172 318 c 2
 172 315 l 1
 356 315 l 1
 356 329 l 2
 356 397 326 430 265 430 c 0
 235 430 212 421 196 404 c 0
217 745 m 1
 310 745 l 1
 428 591 l 1
 329 591 l 1
 264 671 l 1
 200 591 l 1
 99 591 l 1
 217 745 l 1
EndSplineSet
Validated: 1
EndChar

StartChar: edieresis
Encoding: 235 235 172
Width: 529
GlyphClass: 2
Flags: W
HStem: -6 109<203.447 336.081> 228 87<172 356> 430 109<199.878 329.79> 601 119<111 220 307 417>
VStem: 46 126<135.989 228 315 401.173> 111 109<601 720> 307 110<601 720> 356 127<315 403.125>
AnchorPoint: "Anchor-0" 264 532 basechar 0
LayerCount: 2
Fore
SplineSet
172 228 m 1xf9
 172 214 l 2
 172 174 181 146 199 129 c 0
 217 112 241 103 274 103 c 0
 299 103 320 108 334 119 c 0
 348 130 356 145 357 164 c 1
 358 167 l 1
 479 167 l 1
 479 162 l 2
 479 111 461 71 423 40 c 0
 385 9 334 -6 269 -6 c 0
 201 -6 146 14 106 53 c 0
 66 92 46 152 46 234 c 2
 46 299 l 2
 46 379 65 439 104 479 c 0
 143 519 197 539 265 539 c 0
 332 539 385 518 424 478 c 0
 463 438 483 378 483 299 c 2
 483 228 l 1
 172 228 l 1xf9
196 404 m 0
 180 387 172 358 172 318 c 2
 172 315 l 1
 356 315 l 1
 356 329 l 2
 356 397 326 430 265 430 c 0
 235 430 212 421 196 404 c 0
111 720 m 1xf4
 220 720 l 1
 220 601 l 1
 111 601 l 1
 111 720 l 1xf4
307 720 m 1xf2
 417 720 l 1
 417 601 l 1
 307 601 l 1
 307 720 l 1xf2
EndSplineSet
Validated: 1
EndChar

StartChar: igrave
Encoding: 236 236 173
Width: 246
GlyphClass: 2
Flags: W
HStem: 0 21G<60 186> 512 20G<60 186>
VStem: 60 126<0 532>
AnchorPoint: "Anchor-0" 123 532 basechar 0
LayerCount: 2
Fore
SplineSet
60 532 m 1
 186 532 l 1
 186 0 l 1
 60 0 l 1
 60 532 l 1
-40 738 m 1
 100 738 l 1
 211 602 l 1
 101 602 l 1
 -40 738 l 1
EndSplineSet
Validated: 1
EndChar

StartChar: iacute
Encoding: 237 237 174
Width: 246
GlyphClass: 2
Flags: W
HStem: 0 21G<60 186> 512 20G<60 186>
VStem: 60 126<0 532>
AnchorPoint: "Anchor-0" 123 532 basechar 0
LayerCount: 2
Fore
SplineSet
60 532 m 1
 186 532 l 1
 186 0 l 1
 60 0 l 1
 60 532 l 1
138 738 m 1
 279 738 l 1
 137 602 l 1
 28 602 l 1
 138 738 l 1
EndSplineSet
Validated: 1
EndChar

StartChar: icircumflex
Encoding: 238 238 175
Width: 246
GlyphClass: 2
Flags: W
HStem: 0 21G<60 186> 512 20G<60 186>
VStem: 60 126<0 532>
AnchorPoint: "Anchor-0" 123 532 basechar 0
LayerCount: 2
Fore
SplineSet
60 532 m 1
 186 532 l 1
 186 0 l 1
 60 0 l 1
 60 532 l 1
76 745 m 1
 169 745 l 1
 287 591 l 1
 187 591 l 1
 123 671 l 1
 58 591 l 1
 -42 591 l 1
 76 745 l 1
EndSplineSet
Validated: 1
EndChar

StartChar: idieresis
Encoding: 239 239 176
Width: 246
GlyphClass: 2
Flags: W
HStem: 0 21G<60 186> 512 20G<60 186> 601 119<-31 79 166 275>
VStem: -31 110<601 720> 60 126<0 532> 166 109<601 720>
AnchorPoint: "Anchor-0" 123 532 basechar 0
LayerCount: 2
Fore
SplineSet
60 532 m 1xe8
 186 532 l 1
 186 0 l 1
 60 0 l 1
 60 532 l 1xe8
-31 720 m 1xf0
 79 720 l 1
 79 601 l 1
 -31 601 l 1
 -31 720 l 1xf0
166 720 m 1xe4
 275 720 l 1
 275 601 l 1
 166 601 l 1
 166 720 l 1xe4
EndSplineSet
Validated: 1
EndChar

StartChar: eth
Encoding: 240 240 177
Width: 521
GlyphClass: 2
Flags: W
HStem: -11 110<195.748 325.164> 374 102<194.163 293.61> 692 20G<121 266.035>
VStem: 46 118<132.021 342.673> 356 119<131.948 341.956>
LayerCount: 2
Fore
SplineSet
449 403 m 0
 466 359 475 313 475 265 c 2
 475 223 l 2
 475 148 457 91 419 50 c 0
 381 9 328 -11 259 -11 c 0
 191 -11 138 9 101 49 c 0
 64 89 46 144 46 214 c 2
 46 259 l 2
 46 325 62 378 93 417 c 0
 124 456 168 476 224 476 c 0
 251 476 275 472 295 462 c 1
 233 550 l 1
 128 517 l 1
 102 598 l 1
 183 623 l 1
 121 712 l 1
 252 712 l 1
 292 655 l 1
 390 686 l 1
 416 605 l 1
 343 583 l 1
 368 548 l 2
 405 495 432 447 449 403 c 0
356 261 m 2
 356 336 324 374 261 374 c 0
 196 374 164 337 164 263 c 2
 164 216 l 2
 164 138 196 99 261 99 c 0
 324 99 356 138 356 217 c 2
 356 261 l 2
EndSplineSet
Validated: 1
EndChar

StartChar: ntilde
Encoding: 241 241 178
Width: 532
GlyphClass: 2
Flags: W
HStem: 0 21G<55 182 350 477> 426 113<218.935 325.068> 597 96<267.934 386.772> 636 96<144.851 264.225>
VStem: 55 127<0 399.479 484 532> 350 127<0 400.245>
AnchorPoint: "Anchor-0" 266 532 basechar 0
LayerCount: 2
Fore
SplineSet
55 532 m 1xcc
 179 532 l 1
 179 484 l 1
 195 502 214 516 236 525 c 0
 258 534 281 539 305 539 c 0
 360 539 402 521 432 487 c 0
 462 453 477 406 477 347 c 2
 477 0 l 1
 350 0 l 1
 350 332 l 2
 350 362 343 385 328 401 c 0
 313 417 292 426 267 426 c 0
 242 426 222 417 206 401 c 0
 190 385 182 362 182 332 c 2
 182 0 l 1
 55 0 l 1
 55 532 l 1xcc
121 688 m 1
 137 704 150 715 162 722 c 0
 174 729 188 732 204 732 c 0xdc
 218 732 230 730 240 727 c 0
 250 724 262 719 276 711 c 0
 298 699 317 693 333 693 c 0
 347 693 359 696 369 701 c 0
 379 706 393 718 411 734 c 1
 411 641 l 1
 395 625 381 614 369 607 c 0
 357 600 344 597 328 597 c 0xec
 315 597 303 599 293 602 c 0
 283 605 270 610 256 618 c 0
 234 630 216 636 200 636 c 0xdc
 186 636 174 633 164 628 c 0
 154 623 139 612 121 596 c 1
 121 688 l 1
EndSplineSet
Validated: 1
EndChar

StartChar: ograve
Encoding: 242 242 179
Width: 522
GlyphClass: 2
Flags: W
HStem: -6 112<200.649 322.497> 426 113<200.649 322.497>
VStem: 46 126<136.754 395.907> 350 126<134.25 395.907>
AnchorPoint: "Anchor-0" 262 532 basechar 0
LayerCount: 2
Fore
SplineSet
104 48 m 0
 65 84 46 141 46 217 c 2
 46 316 l 2
 46 392 65 448 104 484 c 0
 143 520 195 539 262 539 c 0
 328 539 381 520 419 484 c 0
 457 448 476 392 476 316 c 2
 476 217 l 2
 476 141 457 84 419 48 c 0
 381 12 328 -6 262 -6 c 0
 195 -6 143 12 104 48 c 0
350 218 m 2
 350 314 l 2
 350 388 321 426 262 426 c 0
 202 426 172 388 172 314 c 2
 172 218 l 2
 172 144 202 106 262 106 c 0
 321 106 350 144 350 218 c 2
99 738 m 1
 240 738 l 1
 350 602 l 1
 241 602 l 1
 99 738 l 1
EndSplineSet
Validated: 1
EndChar

StartChar: oacute
Encoding: 243 243 180
Width: 522
GlyphClass: 2
Flags: W
HStem: -6 112<200.649 322.497> 426 113<200.649 322.497>
VStem: 46 126<136.754 395.907> 350 126<134.25 395.907>
AnchorPoint: "Anchor-0" 262 532 basechar 0
LayerCount: 2
Fore
SplineSet
104 48 m 0
 65 84 46 141 46 217 c 2
 46 316 l 2
 46 392 65 448 104 484 c 0
 143 520 195 539 262 539 c 0
 328 539 381 520 419 484 c 0
 457 448 476 392 476 316 c 2
 476 217 l 2
 476 141 457 84 419 48 c 0
 381 12 328 -6 262 -6 c 0
 195 -6 143 12 104 48 c 0
350 218 m 2
 350 314 l 2
 350 388 321 426 262 426 c 0
 202 426 172 388 172 314 c 2
 172 218 l 2
 172 144 202 106 262 106 c 0
 321 106 350 144 350 218 c 2
278 738 m 1
 418 738 l 1
 276 602 l 1
 167 602 l 1
 278 738 l 1
EndSplineSet
Validated: 1
EndChar

StartChar: ocircumflex
Encoding: 244 244 181
Width: 522
GlyphClass: 2
Flags: W
HStem: -6 112<200.649 322.497> 426 113<200.649 322.497>
VStem: 46 126<136.754 395.907> 350 126<134.25 395.907>
AnchorPoint: "Anchor-0" 262 532 basechar 0
LayerCount: 2
Fore
SplineSet
104 48 m 0
 65 84 46 141 46 217 c 2
 46 316 l 2
 46 392 65 448 104 484 c 0
 143 520 195 539 262 539 c 0
 328 539 381 520 419 484 c 0
 457 448 476 392 476 316 c 2
 476 217 l 2
 476 141 457 84 419 48 c 0
 381 12 328 -6 262 -6 c 0
 195 -6 143 12 104 48 c 0
350 218 m 2
 350 314 l 2
 350 388 321 426 262 426 c 0
 202 426 172 388 172 314 c 2
 172 218 l 2
 172 144 202 106 262 106 c 0
 321 106 350 144 350 218 c 2
215 745 m 1
 308 745 l 1
 426 591 l 1
 327 591 l 1
 262 671 l 1
 198 591 l 1
 97 591 l 1
 215 745 l 1
EndSplineSet
Validated: 1
EndChar

StartChar: otilde
Encoding: 245 245 182
Width: 522
GlyphClass: 2
Flags: W
HStem: -6 112<200.649 322.497> 426 113<200.649 322.497> 597 96<263.934 382.772> 636 96<140.851 260.225>
VStem: 46 126<136.754 395.907> 350 126<134.25 395.907>
AnchorPoint: "Anchor-0" 262 532 basechar 0
LayerCount: 2
Fore
SplineSet
104 48 m 0xcc
 65 84 46 141 46 217 c 2
 46 316 l 2
 46 392 65 448 104 484 c 0
 143 520 195 539 262 539 c 0
 328 539 381 520 419 484 c 0
 457 448 476 392 476 316 c 2
 476 217 l 2
 476 141 457 84 419 48 c 0
 381 12 328 -6 262 -6 c 0
 195 -6 143 12 104 48 c 0xcc
350 218 m 2
 350 314 l 2
 350 388 321 426 262 426 c 0
 202 426 172 388 172 314 c 2
 172 218 l 2
 172 144 202 106 262 106 c 0
 321 106 350 144 350 218 c 2
117 688 m 1
 133 704 146 715 158 722 c 0
 170 729 184 732 200 732 c 0xdc
 214 732 226 730 236 727 c 0
 246 724 258 719 272 711 c 0
 294 699 313 693 329 693 c 0
 343 693 355 696 365 701 c 0
 375 706 389 718 407 734 c 1
 407 641 l 1
 391 625 377 614 365 607 c 0
 353 600 340 597 324 597 c 0xec
 311 597 299 599 289 602 c 0
 279 605 266 610 252 618 c 0
 230 630 212 636 196 636 c 0xdc
 182 636 170 633 160 628 c 0
 150 623 135 612 117 596 c 1
 117 688 l 1
EndSplineSet
Validated: 1
EndChar

StartChar: odieresis
Encoding: 246 246 183
Width: 522
GlyphClass: 2
Flags: W
HStem: -6 112<200.649 322.497> 426 113<200.649 322.497> 601 119<109 218 305 415>
VStem: 46 126<136.754 395.907> 109 109<601 720> 305 110<601 720> 350 126<134.25 395.907>
AnchorPoint: "Anchor-0" 262 532 basechar 0
LayerCount: 2
Fore
SplineSet
104 48 m 0xf2
 65 84 46 141 46 217 c 2
 46 316 l 2
 46 392 65 448 104 484 c 0
 143 520 195 539 262 539 c 0
 328 539 381 520 419 484 c 0
 457 448 476 392 476 316 c 2
 476 217 l 2
 476 141 457 84 419 48 c 0
 381 12 328 -6 262 -6 c 0
 195 -6 143 12 104 48 c 0xf2
350 218 m 2
 350 314 l 2
 350 388 321 426 262 426 c 0
 202 426 172 388 172 314 c 2
 172 218 l 2
 172 144 202 106 262 106 c 0
 321 106 350 144 350 218 c 2
109 720 m 1xe8
 218 720 l 1
 218 601 l 1
 109 601 l 1
 109 720 l 1xe8
305 720 m 1xe4
 415 720 l 1
 415 601 l 1
 305 601 l 1
 305 720 l 1xe4
EndSplineSet
Validated: 1
EndChar

StartChar: divide
Encoding: 247 247 184
Width: 541
GlyphClass: 2
Flags: W
HStem: 44 137<222.612 318.388> 224 117<49 493> 385 137<222.612 318.388>
VStem: 203 136<64.6123 160.388 405.612 501.388>
LayerCount: 2
Fore
SplineSet
222 405 m 0
 209 418 203 435 203 454 c 0
 203 473 209 489 222 502 c 0
 235 515 251 522 270 522 c 0
 289 522 306 515 319 502 c 0
 332 489 339 473 339 454 c 0
 339 435 332 418 319 405 c 0
 306 392 289 385 270 385 c 0
 251 385 235 392 222 405 c 0
49 341 m 1
 493 341 l 1
 493 224 l 1
 49 224 l 1
 49 341 l 1
222 64 m 0
 209 77 203 94 203 113 c 0
 203 132 209 148 222 161 c 0
 235 174 251 181 270 181 c 0
 289 181 306 174 319 161 c 0
 332 148 339 132 339 113 c 0
 339 94 332 77 319 64 c 0
 306 51 290 44 270 44 c 0
 251 44 235 51 222 64 c 0
EndSplineSet
Validated: 1
EndChar

StartChar: oslash
Encoding: 248 248 185
Width: 522
GlyphClass: 2
Flags: W
HStem: -6 112<205.553 322.497> 426 113<200.649 316.758>
VStem: 46 126<179.22 395.907> 350 126<134.25 350.597>
LayerCount: 2
Fore
SplineSet
425 477 m 1
 459 439 476 386 476 316 c 2
 476 217 l 2
 476 141 457 84 419 48 c 0
 381 12 328 -6 262 -6 c 0
 214 -6 174 2 141 20 c 1
 110 -30 l 1
 46 -30 l 1
 98 54 l 1
 63 92 46 147 46 217 c 2
 46 316 l 2
 46 392 65 448 104 484 c 0
 143 520 195 539 262 539 c 0
 309 539 350 529 383 511 c 1
 413 559 l 1
 476 559 l 1
 425 477 l 1
175 178 m 1
 318 408 l 1
 304 420 285 426 262 426 c 0
 202 426 172 388 172 314 c 2
 172 218 l 2
 172 203 173 190 175 178 c 1
347 352 m 1
 205 124 l 1
 219 112 238 106 262 106 c 0
 321 106 350 144 350 218 c 2
 350 314 l 2
 350 328 349 341 347 352 c 1
EndSplineSet
Validated: 1
EndChar

StartChar: ugrave
Encoding: 249 249 186
Width: 532
GlyphClass: 2
Flags: W
HStem: -6 112<204.725 328.126> 512 20G<55 182 350 477>
VStem: 55 127<129.021 532> 350 127<128.701 532>
AnchorPoint: "Anchor-0" 266 532 basechar 0
LayerCount: 2
Fore
SplineSet
55 215 m 2
 55 532 l 1
 182 532 l 1
 182 221 l 2
 182 183 188 155 199 136 c 0
 210 117 233 106 266 106 c 0
 299 106 322 116 333 134 c 0
 344 152 350 181 350 221 c 2
 350 532 l 1
 477 532 l 1
 477 215 l 2
 477 141 460 86 425 49 c 0
 390 12 337 -6 266 -6 c 0
 125 -6 55 68 55 215 c 2
103 738 m 1
 244 738 l 1
 354 602 l 1
 245 602 l 1
 103 738 l 1
EndSplineSet
Validated: 1
EndChar

StartChar: uacute
Encoding: 250 250 187
Width: 532
GlyphClass: 2
Flags: W
HStem: -6 112<204.725 328.126> 512 20G<55 182 350 477>
VStem: 55 127<129.021 532> 350 127<128.701 532>
AnchorPoint: "Anchor-0" 266 532 basechar 0
LayerCount: 2
Fore
SplineSet
55 215 m 2
 55 532 l 1
 182 532 l 1
 182 221 l 2
 182 183 188 155 199 136 c 0
 210 117 233 106 266 106 c 0
 299 106 322 116 333 134 c 0
 344 152 350 181 350 221 c 2
 350 532 l 1
 477 532 l 1
 477 215 l 2
 477 141 460 86 425 49 c 0
 390 12 337 -6 266 -6 c 0
 125 -6 55 68 55 215 c 2
282 738 m 1
 422 738 l 1
 281 602 l 1
 171 602 l 1
 282 738 l 1
EndSplineSet
Validated: 1
EndChar

StartChar: ucircumflex
Encoding: 251 251 188
Width: 532
GlyphClass: 2
Flags: W
HStem: -6 112<204.725 328.126> 512 20G<55 182 350 477>
VStem: 55 127<129.021 532> 350 127<128.701 532>
AnchorPoint: "Anchor-0" 266 532 basechar 0
LayerCount: 2
Fore
SplineSet
55 215 m 2
 55 532 l 1
 182 532 l 1
 182 221 l 2
 182 183 188 155 199 136 c 0
 210 117 233 106 266 106 c 0
 299 106 322 116 333 134 c 0
 344 152 350 181 350 221 c 2
 350 532 l 1
 477 532 l 1
 477 215 l 2
 477 141 460 86 425 49 c 0
 390 12 337 -6 266 -6 c 0
 125 -6 55 68 55 215 c 2
219 745 m 1
 312 745 l 1
 430 591 l 1
 331 591 l 1
 266 671 l 1
 202 591 l 1
 101 591 l 1
 219 745 l 1
EndSplineSet
Validated: 1
EndChar

StartChar: udieresis
Encoding: 252 252 189
Width: 532
GlyphClass: 2
Flags: W
HStem: -6 112<204.725 328.126> 512 20G<55 182 350 477> 601 119<113 222 309 419>
VStem: 55 127<129.021 532> 113 109<601 720> 309 110<601 720> 350 127<128.701 532>
AnchorPoint: "Anchor-0" 266 532 basechar 0
LayerCount: 2
Fore
SplineSet
55 215 m 2xf2
 55 532 l 1
 182 532 l 1
 182 221 l 2
 182 183 188 155 199 136 c 0
 210 117 233 106 266 106 c 0
 299 106 322 116 333 134 c 0
 344 152 350 181 350 221 c 2
 350 532 l 1
 477 532 l 1
 477 215 l 2
 477 141 460 86 425 49 c 0
 390 12 337 -6 266 -6 c 0
 125 -6 55 68 55 215 c 2xf2
113 720 m 1xe8
 222 720 l 1
 222 601 l 1
 113 601 l 1
 113 720 l 1xe8
309 720 m 1xe4
 419 720 l 1
 419 601 l 1
 309 601 l 1
 309 720 l 1xe4
EndSplineSet
Validated: 1
EndChar

StartChar: yacute
Encoding: 253 253 190
Width: 493
GlyphClass: 2
Flags: W
HStem: -158 114<78 162.528> 512 20G<9 149.287 347.653 484>
AnchorPoint: "Anchor-0" 247 532 basechar 0
LayerCount: 2
Fore
SplineSet
484 532 m 1
 283 -46 l 2
 269 -85 250 -113 224 -131 c 0
 198 -149 164 -158 122 -158 c 2
 78 -158 l 1
 78 -44 l 1
 118 -44 l 2
 138 -44 153 -40 163 -33 c 0
 173 -26 181 -13 187 7 c 2
 189 14 l 1
 9 532 l 1
 143 532 l 1
 248 198 l 1
 354 532 l 1
 484 532 l 1
262 738 m 1
 402 738 l 1
 261 602 l 1
 152 602 l 1
 262 738 l 1
EndSplineSet
Validated: 1
EndChar

StartChar: thorn
Encoding: 254 254 191
Width: 527
GlyphClass: 2
Flags: W
HStem: -160 21G<55 179> -6 112<216.182 328.22> 426 113<222.562 327.448> 687 20G<55 182>
VStem: 55 127<-160 49 135.897 396.103 478 707> 354 127<133.514 397.021>
LayerCount: 2
Fore
SplineSet
55 707 m 1
 182 707 l 1
 182 478 l 1
 211 518 251 539 301 539 c 0
 354 539 398 520 431 484 c 0
 464 448 481 393 481 319 c 2
 481 214 l 2
 481 140 464 86 431 49 c 0
 398 12 356 -6 305 -6 c 0
 251 -6 209 12 179 49 c 1
 179 -160 l 1
 55 -160 l 1
 55 707 l 1
354 218 m 2
 354 314 l 2
 354 354 346 383 331 400 c 0
 316 417 295 426 269 426 c 0
 242 426 221 416 205 397 c 0
 189 378 181 350 181 314 c 2
 181 218 l 2
 181 182 189 154 205 135 c 0
 221 116 243 106 272 106 c 0
 327 106 354 144 354 218 c 2
EndSplineSet
Validated: 1
EndChar

StartChar: ydieresis
Encoding: 255 255 192
Width: 493
GlyphClass: 2
Flags: W
HStem: -158 114<78 162.528> 512 20G<9 149.287 347.653 484> 601 119<93 203 290 399>
VStem: 93 110<601 720> 290 109<601 720>
AnchorPoint: "Anchor-0" 247 532 basechar 0
LayerCount: 2
Fore
SplineSet
484 532 m 1
 283 -46 l 2
 269 -85 250 -113 224 -131 c 0
 198 -149 164 -158 122 -158 c 2
 78 -158 l 1
 78 -44 l 1
 118 -44 l 2
 138 -44 153 -40 163 -33 c 0
 173 -26 181 -13 187 7 c 2
 189 14 l 1
 9 532 l 1
 143 532 l 1
 248 198 l 1
 354 532 l 1
 484 532 l 1
93 720 m 1
 203 720 l 1
 203 601 l 1
 93 601 l 1
 93 720 l 1
290 720 m 1
 399 720 l 1
 399 601 l 1
 290 601 l 1
 290 720 l 1
EndSplineSet
Validated: 1
EndChar

StartChar: dotlessi
Encoding: 305 305 193
Width: 246
GlyphClass: 2
Flags: W
HStem: 0 21G<60 186> 512 20G<60 186>
VStem: 60 126<0 532>
AnchorPoint: "Anchor-0" 123 532 basechar 0
LayerCount: 2
Fore
SplineSet
60 532 m 1
 186 532 l 1
 186 0 l 1
 60 0 l 1
 60 532 l 1
EndSplineSet
Validated: 1
EndChar

StartChar: OE
Encoding: 338 338 194
Width: 891
GlyphClass: 2
Flags: W
HStem: -8 120<230.178 381.639> 0 117<563 856> 298 117<563 810> 590 117<563 856> 599 118<231.804 381.842>
VStem: 51 135<162.194 548.612> 429 134<162.861 298 415 546.604>
LayerCount: 2
Fore
SplineSet
563 590 m 1x36
 563 415 l 1
 810 415 l 1
 810 298 l 1
 563 298 l 1
 563 117 l 1
 856 117 l 1
 856 0 l 1
 439 0 l 1x76
 439 32 l 1
 398 5 350 -8 295 -8 c 0
 221 -8 162 14 118 58 c 0
 74 102 51 174 51 273 c 2
 51 435 l 2
 51 533 74 605 119 650 c 0
 164 695 224 717 296 717 c 0xae
 351 717 398 703 439 676 c 1
 439 707 l 1
 856 707 l 1
 856 590 l 1
 563 590 l 1x36
429 428 m 2
 429 488 419 532 399 559 c 0
 379 586 349 599 308 599 c 0
 265 599 234 586 215 560 c 0
 196 534 186 489 186 428 c 2
 186 275 l 2
 186 217 196 176 215 150 c 0
 234 124 265 112 308 112 c 0xae
 349 112 379 125 399 151 c 0
 419 177 429 218 429 275 c 2
 429 428 l 2
EndSplineSet
Validated: 1
EndChar

StartChar: oe
Encoding: 339 339 195
Width: 832
GlyphClass: 2
Flags: W
HStem: -6 109<203.625 319.431 506.355 639.085> 228 87<476 660> 426 113<200.649 322.353 500.365 637.702>
VStem: 46 126<136.754 395.907> 350 126<134.25 228 315 397.75> 660 126<121.535 167 315 403.125>
LayerCount: 2
Fore
SplineSet
476 214 m 2
 476 174 485 146 502 129 c 0
 519 112 545 103 578 103 c 0
 603 103 621 108 636 119 c 0
 651 130 660 145 662 164 c 2
 662 167 l 1
 782 167 l 1
 782 162 l 2
 782 111 764 71 727 40 c 0
 690 9 638 -6 572 -6 c 0
 506 -6 455 11 417 46 c 1
 380 11 328 -6 262 -6 c 0
 195 -6 143 12 104 48 c 0
 65 84 46 141 46 217 c 2
 46 316 l 2
 46 392 65 448 104 484 c 0
 143 520 195 539 262 539 c 0
 328 539 380 521 417 486 c 1
 455 521 506 539 569 539 c 0
 635 539 689 518 728 478 c 0
 767 438 786 378 786 299 c 2
 786 228 l 1
 476 228 l 1
 476 214 l 2
476 315 m 1
 660 315 l 1
 660 329 l 2
 660 397 630 430 569 430 c 0
 539 430 516 421 500 404 c 0
 484 387 476 358 476 318 c 2
 476 315 l 1
350 314 m 2
 350 388 321 426 262 426 c 0
 202 426 172 388 172 314 c 2
 172 218 l 2
 172 144 202 106 262 106 c 0
 321 106 350 144 350 218 c 2
 350 314 l 2
EndSplineSet
Validated: 1
EndChar

StartChar: Scaron
Encoding: 352 352 196
Width: 561
GlyphClass: 2
Flags: W
HStem: -6 115<193.288 362.754> 604 113<200.401 352.154>
VStem: 26 127<149.868 215> 41 130<458.767 574.969> 384 129<506 572.423> 393 132<137.973 265.772>
AnchorPoint: "Anchor-0" 279 707 basechar 0
LayerCount: 2
Fore
SplineSet
96 51 m 0xd4
 54 89 31 143 26 215 c 1
 153 215 l 1
 158 176 170 149 190 133 c 0
 210 117 240 109 280 109 c 0
 356 109 393 140 393 202 c 0xe4
 393 230 386 251 371 266 c 0
 356 281 332 291 299 296 c 2
 232 307 l 2
 104 328 41 394 41 504 c 0
 41 570 63 621 106 659 c 0
 149 697 207 717 279 717 c 0
 349 717 403 699 444 662 c 0
 485 625 508 573 513 506 c 1
 384 506 l 1xd8
 382 540 372 565 354 581 c 0
 336 597 310 604 276 604 c 0
 241 604 216 596 198 580 c 0
 180 564 171 542 171 514 c 0
 171 489 179 470 195 456 c 0
 211 442 235 431 268 425 c 2
 343 412 l 2
 465 390 525 324 525 213 c 0
 525 142 502 88 457 50 c 0
 412 12 350 -6 273 -6 c 0
 197 -6 138 13 96 51 c 0xd4
114 912 m 1
 214 912 l 1
 279 833 l 1
 343 912 l 1
 442 912 l 1
 325 758 l 1
 231 758 l 1
 114 912 l 1
EndSplineSet
Validated: 1
EndChar

StartChar: scaron
Encoding: 353 353 197
Width: 485
GlyphClass: 2
Flags: W
HStem: -6 102<178.096 312.294> 439 100<179.334 307.717>
VStem: 37 119<114.055 162 346.431 419.226> 332 121<112.401 194.936>
AnchorPoint: "Anchor-0" 243 532 basechar 0
LayerCount: 2
Fore
SplineSet
92 38 m 0
 55 68 37 108 37 158 c 2
 37 162 l 1
 156 162 l 1
 156 160 l 2
 156 140 164 124 180 113 c 0
 196 102 217 96 243 96 c 0
 271 96 292 101 308 111 c 0
 324 121 332 136 332 156 c 0
 332 172 326 185 314 194 c 0
 302 203 283 209 256 213 c 2
 200 222 l 2
 147 231 107 247 82 271 c 0
 57 295 44 330 44 374 c 0
 44 425 63 464 100 494 c 0
 137 524 185 539 243 539 c 0
 283 539 318 532 348 519 c 0
 378 506 401 487 418 463 c 0
 435 439 443 413 443 384 c 2
 443 378 l 1
 326 378 l 1
 326 381 l 2
 326 399 319 414 304 424 c 0
 289 434 269 439 243 439 c 0
 217 439 197 434 183 424 c 0
 169 414 163 400 163 383 c 0
 163 367 168 355 179 346 c 0
 190 337 206 331 230 328 c 2
 293 318 l 2
 346 310 386 294 413 269 c 0
 440 244 453 209 453 165 c 0
 453 110 433 68 393 38 c 0
 353 8 302 -6 239 -6 c 0
 178 -6 129 8 92 38 c 0
78 738 m 1
 178 738 l 1
 243 658 l 1
 307 738 l 1
 407 738 l 1
 289 584 l 1
 196 584 l 1
 78 738 l 1
EndSplineSet
Validated: 1
EndChar

StartChar: Ydieresis
Encoding: 376 376 198
Width: 553
GlyphClass: 2
Flags: W
HStem: 0 21G<210 344> 687 20G<4 159.711 393.22 550> 775 119<123 232 319 429>
VStem: 123 109<775 894> 210 134<0 290> 319 110<775 894>
AnchorPoint: "Anchor-0" 276 707 basechar 0
LayerCount: 2
Fore
SplineSet
344 291 m 1xe8
 344 0 l 1
 210 0 l 1
 210 290 l 1
 4 707 l 1
 151 707 l 1
 276 420 l 1
 402 707 l 1
 550 707 l 1
 344 291 l 1xe8
123 894 m 1xf0
 232 894 l 1
 232 775 l 1
 123 775 l 1
 123 894 l 1xf0
319 894 m 1xe4
 429 894 l 1
 429 775 l 1
 319 775 l 1
 319 894 l 1xe4
EndSplineSet
Validated: 1
EndChar

StartChar: Zcaron
Encoding: 381 381 199
Width: 517
GlyphClass: 2
Flags: W
HStem: 0 118<177 489> 590 117<37 335>
AnchorPoint: "Anchor-0" 258 707 basechar 0
LayerCount: 2
Fore
SplineSet
489 118 m 1
 489 0 l 1
 31 0 l 1
 31 118 l 1
 335 590 l 1
 37 590 l 1
 37 707 l 1
 480 707 l 1
 480 590 l 1
 177 118 l 1
 489 118 l 1
93 912 m 1
 194 912 l 1
 258 833 l 1
 323 912 l 1
 422 912 l 1
 304 758 l 1
 211 758 l 1
 93 912 l 1
EndSplineSet
Validated: 1
EndChar

StartChar: zcaron
Encoding: 382 382 200
Width: 465
GlyphClass: 2
Flags: W
HStem: 0 106<184 420> 426 106<46 282>
AnchorPoint: "Anchor-0" 232 532 basechar 0
LayerCount: 2
Fore
SplineSet
420 426 m 1
 184 106 l 1
 420 106 l 1
 420 0 l 1
 46 0 l 1
 46 106 l 1
 282 426 l 1
 46 426 l 1
 46 532 l 1
 420 532 l 1
 420 426 l 1
68 738 m 1
 168 738 l 1
 232 658 l 1
 297 738 l 1
 396 738 l 1
 279 584 l 1
 185 584 l 1
 68 738 l 1
EndSplineSet
Validated: 1
EndChar

StartChar: florin
Encoding: 402 402 201
Width: 429
GlyphClass: 2
Flags: W
HStem: -160 120<9 89.48> 321 112<76 156 300 402> 590 117<336.52 420>
LayerCount: 2
Fore
SplineSet
9 -40 m 1
 39 -40 l 2
 62 -40 79 -36 90 -27 c 0
 101 -18 108 0 112 25 c 2
 156 321 l 1
 76 321 l 1
 76 433 l 1
 172 433 l 1
 188 541 l 2
 197 599 216 641 244 667 c 0
 272 693 313 707 368 707 c 2
 420 707 l 1
 420 590 l 1
 385 590 l 2
 364 590 347 585 336 575 c 0
 325 565 317 550 314 527 c 2
 300 433 l 1
 402 433 l 1
 402 321 l 1
 284 321 l 1
 237 9 l 2
 227 -52 209 -95 181 -121 c 0
 153 -147 111 -160 55 -160 c 2
 9 -160 l 1
 9 -40 l 1
EndSplineSet
Validated: 1
EndChar

StartChar: circumflex
Encoding: 710 710 202
Width: 512
GlyphClass: 2
Flags: W
HStem: 591 154
VStem: 91 329
LayerCount: 2
Fore
SplineSet
209 745 m 1
 302 745 l 1
 420 591 l 1
 321 591 l 1
 256 671 l 1
 191 591 l 1
 91 591 l 1
 209 745 l 1
EndSplineSet
Validated: 1
EndChar

StartChar: caron
Encoding: 711 711 203
Width: 512
GlyphClass: 2
Flags: W
HStem: 584 154
VStem: 91 329
LayerCount: 2
Fore
SplineSet
91 738 m 1
 191 738 l 1
 256 658 l 1
 321 738 l 1
 420 738 l 1
 302 584 l 1
 209 584 l 1
 91 738 l 1
EndSplineSet
Validated: 1
EndChar

StartChar: dotaccent
Encoding: 729 729 204
Width: 512
GlyphClass: 2
Flags: W
HStem: 610 102<191 321>
VStem: 191 130<610 712>
LayerCount: 2
Fore
SplineSet
191 712 m 1
 321 712 l 1
 321 610 l 1
 191 610 l 1
 191 712 l 1
EndSplineSet
Validated: 1
EndChar

StartChar: ring
Encoding: 730 730 205
Width: 512
GlyphClass: 2
Flags: W
HStem: 591 56<215.226 293.274> 746 57<217.174 290.826>
VStem: 148 59<654.75 735.679> 302 57<654.75 735.077>
LayerCount: 2
Fore
SplineSet
179 621 m 0
 159 641 148 666 148 696 c 0
 148 727 159 753 179 773 c 0
 199 793 224 803 254 803 c 0
 284 803 309 793 329 773 c 0
 349 753 359 727 359 696 c 0
 359 666 349 641 329 621 c 0
 309 601 284 591 254 591 c 0
 224 591 199 601 179 621 c 0
288 662 m 0
 297 672 302 682 302 696 c 0
 302 710 297 722 288 732 c 0
 279 742 268 746 254 746 c 0
 240 746 229 742 220 732 c 0
 211 722 207 710 207 696 c 0
 207 682 212 672 221 662 c 0
 230 652 241 647 254 647 c 0
 268 647 279 652 288 662 c 0
EndSplineSet
Validated: 1
EndChar

StartChar: tilde
Encoding: 732 732 206
Width: 512
GlyphClass: 2
Flags: W
HStem: 597 96<257.881 376.387> 636 96<134.851 254.119>
VStem: 111 289<636.631 692.369>
LayerCount: 2
Fore
SplineSet
111 688 m 1x60
 127 704 140 715 152 722 c 0
 164 729 178 732 194 732 c 0x60
 208 732 219 730 229 727 c 0
 239 724 252 719 266 711 c 0
 288 699 307 693 323 693 c 0
 337 693 348 696 358 701 c 0
 368 706 382 718 400 734 c 1
 400 641 l 1
 384 625 371 614 359 607 c 0
 347 600 333 597 317 597 c 0xa0
 304 597 293 599 283 602 c 0
 273 605 260 610 246 618 c 0
 224 630 205 636 189 636 c 0
 175 636 164 633 154 628 c 0
 144 623 129 612 111 596 c 1
 111 688 l 1x60
EndSplineSet
Validated: 1
EndChar

StartChar: gravecomb
Encoding: 768 768 207
Width: 0
GlyphClass: 4
Flags: W
HStem: 602 136
VStem: -163 251
AnchorPoint: "Anchor-0" 0 532 mark 0
LayerCount: 2
Fore
SplineSet
-163 738 m 1
 -23 738 l 1
 88 602 l 1
 -22 602 l 1
 -163 738 l 1
EndSplineSet
Validated: 1
EndChar

StartChar: acutecomb
Encoding: 769 769 208
Width: 0
GlyphClass: 4
Flags: W
HStem: 602 136
VStem: -95 251
AnchorPoint: "Anchor-0" 0 532 mark 0
LayerCount: 2
Fore
SplineSet
15 738 m 1
 156 738 l 1
 14 602 l 1
 -95 602 l 1
 15 738 l 1
EndSplineSet
Validated: 1
EndChar

StartChar: uni0302
Encoding: 770 770 209
Width: 0
GlyphClass: 4
Flags: W
HStem: 591 154
VStem: -165 329
AnchorPoint: "Anchor-0" 0 532 mark 0
LayerCount: 2
Fore
SplineSet
-47 745 m 1
 46 745 l 1
 164 591 l 1
 65 591 l 1
 0 671 l 1
 -65 591 l 1
 -165 591 l 1
 -47 745 l 1
EndSplineSet
Validated: 1
EndChar

StartChar: tildecomb
Encoding: 771 771 210
Width: 0
GlyphClass: 4
Flags: W
HStem: 597 96<1.88065 120.387> 636 96<-121.149 -1.88065>
VStem: -145 289<636.631 692.369>
AnchorPoint: "Anchor-0" 0 532 mark 0
LayerCount: 2
Fore
SplineSet
-145 688 m 1x60
 -129 704 -116 715 -104 722 c 0
 -92 729 -78 732 -62 732 c 0x60
 -48 732 -37 730 -27 727 c 0
 -17 724 -4 719 10 711 c 0
 32 699 51 693 67 693 c 0
 81 693 92 696 102 701 c 0
 112 706 126 718 144 734 c 1
 144 641 l 1
 128 625 115 614 103 607 c 0
 91 600 77 597 61 597 c 0xa0
 48 597 37 599 27 602 c 0
 17 605 4 610 -10 618 c 0
 -32 630 -51 636 -67 636 c 0
 -81 636 -92 633 -102 628 c 0
 -112 623 -127 612 -145 596 c 1
 -145 688 l 1x60
EndSplineSet
Validated: 1
EndChar

StartChar: uni0308
Encoding: 776 776 211
Width: 0
GlyphClass: 4
Flags: W
HStem: 601 119<-154 -44 43 153>
VStem: -154 110<601 720> 43 110<601 720>
AnchorPoint: "Anchor-0" 0 532 mark 0
LayerCount: 2
Fore
SplineSet
-154 720 m 1
 -44 720 l 1
 -44 601 l 1
 -154 601 l 1
 -154 720 l 1
43 720 m 1
 153 720 l 1
 153 601 l 1
 43 601 l 1
 43 720 l 1
EndSplineSet
Validated: 1
EndChar

StartChar: uni030A
Encoding: 778 778 212
Width: 0
GlyphClass: 4
Flags: W
HStem: 591 56<-38.7738 39.2738> 746 57<-36.8256 36.8256>
VStem: -105 58<654.75 735.679> 48 57<654.75 735.077>
AnchorPoint: "Anchor-0" 0 532 mark 0
LayerCount: 2
Fore
SplineSet
-75 621 m 0
 -95 641 -105 666 -105 696 c 0
 -105 727 -95 753 -75 773 c 0
 -55 793 -30 803 0 803 c 0
 30 803 55 793 75 773 c 0
 95 753 105 727 105 696 c 0
 105 666 95 641 75 621 c 0
 55 601 30 591 0 591 c 0
 -30 591 -55 601 -75 621 c 0
34 662 m 0
 43 672 48 682 48 696 c 0
 48 710 43 722 34 732 c 0
 25 742 14 746 0 746 c 0
 -14 746 -25 742 -34 732 c 0
 -43 722 -47 710 -47 696 c 0
 -47 682 -42 672 -33 662 c 0
 -24 652 -13 647 0 647 c 0
 14 647 25 652 34 662 c 0
EndSplineSet
Validated: 1
EndChar

StartChar: endash
Encoding: 8211 8211 213
Width: 427
GlyphClass: 2
Flags: W
HStem: 295 118<0 427>
LayerCount: 2
Fore
SplineSet
0 413 m 1
 427 413 l 1
 427 295 l 1
 0 295 l 1
 0 413 l 1
EndSplineSet
Validated: 1
EndChar

StartChar: emdash
Encoding: 8212 8212 214
Width: 852
GlyphClass: 2
Flags: W
HStem: 295 118<0 853>
LayerCount: 2
Fore
SplineSet
0 413 m 1
 853 413 l 1
 853 295 l 1
 0 295 l 1
 0 413 l 1
EndSplineSet
Validated: 1
EndChar

StartChar: quoteleft
Encoding: 8216 8216 215
Width: 197
GlyphClass: 2
Flags: W
HStem: 443 307
VStem: 39 120<443 648>
LayerCount: 2
Fore
SplineSet
159 443 m 1
 39 443 l 1
 39 648 l 1
 159 750 l 1
 159 443 l 1
86 707 m 1024
EndSplineSet
Validated: 1
EndChar

StartChar: quoteright
Encoding: 8217 8217 216
Width: 197
GlyphClass: 2
Flags: W
HStem: 400 307
VStem: 39 120<502 707>
LayerCount: 2
Fore
SplineSet
39 707 m 1
 159 707 l 1
 159 502 l 1
 39 400 l 1
 39 707 l 1
EndSplineSet
Validated: 1
EndChar

StartChar: quotesinglbase
Encoding: 8218 8218 217
Width: 197
GlyphClass: 2
Flags: W
HStem: -166 306
VStem: 39 120<-65 140>
LayerCount: 2
Fore
SplineSet
39 140 m 1
 159 140 l 1
 159 -65 l 1
 39 -166 l 1
 39 140 l 1
EndSplineSet
Validated: 1
EndChar

StartChar: quotedblleft
Encoding: 8220 8220 218
Width: 392
GlyphClass: 2
Flags: W
HStem: 443 307
VStem: 39 120<443 648> 233 120<443 648>
LayerCount: 2
Fore
SplineSet
159 443 m 1
 39 443 l 1
 39 648 l 1
 159 750 l 1
 159 443 l 1
353 443 m 1
 233 443 l 1
 233 648 l 1
 353 750 l 1
 353 443 l 1
206 707 m 1024
EndSplineSet
Validated: 1
EndChar

StartChar: quotedblright
Encoding: 8221 8221 219
Width: 392
GlyphClass: 2
Flags: W
HStem: 400 307
VStem: 39 120<502 707> 233 120<502 707>
LayerCount: 2
Fore
SplineSet
39 707 m 1
 159 707 l 1
 159 502 l 1
 39 400 l 1
 39 707 l 1
233 707 m 1
 353 707 l 1
 353 502 l 1
 233 400 l 1
 233 707 l 1
EndSplineSet
Validated: 1
EndChar

StartChar: quotedblbase
Encoding: 8222 8222 220
Width: 391
GlyphClass: 2
Flags: W
HStem: -166 306
VStem: 39 120<-65 140> 232 120<-65 140>
LayerCount: 2
Fore
SplineSet
232 140 m 1
 352 140 l 1
 352 -65 l 1
 232 -166 l 1
 232 140 l 1
39 140 m 1
 159 140 l 1
 159 -65 l 1
 39 -166 l 1
 39 140 l 1
EndSplineSet
Validated: 1
EndChar

StartChar: dagger
Encoding: 8224 8224 221
Width: 558
GlyphClass: 2
Flags: W
HStem: -160 21G<213 347> 369 116<55 213 347 503> 687 20G<213 347>
VStem: 213 134<-160 369 485 707>
LayerCount: 2
Fore
SplineSet
503 369 m 1
 347 369 l 1
 347 -160 l 1
 213 -160 l 1
 213 369 l 1
 55 369 l 1
 55 485 l 1
 213 485 l 1
 213 707 l 1
 347 707 l 1
 347 485 l 1
 503 485 l 1
 503 369 l 1
EndSplineSet
Validated: 1
EndChar

StartChar: daggerdbl
Encoding: 8225 8225 222
Width: 558
GlyphClass: 2
Flags: W
HStem: -160 21G<213 347> 58 118<55 213 347 503> 376 118<55 213 347 503> 687 20G<213 347>
VStem: 213 134<-160 58 176 376 494 707>
LayerCount: 2
Fore
SplineSet
347 376 m 1
 347 176 l 1
 503 176 l 1
 503 58 l 1
 347 58 l 1
 347 -160 l 1
 213 -160 l 1
 213 58 l 1
 55 58 l 1
 55 176 l 1
 213 176 l 1
 213 376 l 1
 55 376 l 1
 55 494 l 1
 213 494 l 1
 213 707 l 1
 347 707 l 1
 347 494 l 1
 503 494 l 1
 503 376 l 1
 347 376 l 1
EndSplineSet
Validated: 1
EndChar

StartChar: bullet
Encoding: 8226 8226 223
Width: 463
GlyphClass: 2
Flags: W
HStem: 166 299<150.331 313.499>
VStem: 83 298<233.331 397.477>
LayerCount: 2
Fore
SplineSet
125 208 m 0
 97 236 83 271 83 315 c 0
 83 359 97 395 125 423 c 0
 153 451 188 465 232 465 c 0
 275 465 311 451 339 423 c 0
 367 395 381 359 381 315 c 0
 381 271 367 236 339 208 c 0
 311 180 275 166 232 166 c 0
 188 166 153 180 125 208 c 0
EndSplineSet
Validated: 1
EndChar

StartChar: ellipsis
Encoding: 8230 8230 224
Width: 791
GlyphClass: 2
Flags: W
HStem: 0 145<39 181 325 467 610 753>
VStem: 39 142<0 145> 325 142<0 145> 610 143<0 145>
LayerCount: 2
Fore
SplineSet
39 145 m 1
 181 145 l 1
 181 0 l 1
 39 0 l 1
 39 145 l 1
610 145 m 1
 753 145 l 1
 753 0 l 1
 610 0 l 1
 610 145 l 1
325 145 m 1
 467 145 l 1
 467 0 l 1
 325 0 l 1
 325 145 l 1
EndSplineSet
Validated: 1
EndChar

StartChar: perthousand
Encoding: 8240 8240 225
Width: 1284
GlyphClass: 2
Flags: W
HStem: -6 91<718.829 773.982 1077.78 1132.98> 270 91<151.775 206.001> 346 90<719.175 773.96 1077.61 1131.48> 623 90<152.114 205.478>
VStem: 41 105<376.474 607.526> 211 105<375.428 607.526> 608 106<99.4746 331.526> 778 106<98.4285 331.526> 967 105<99.4746 331.526> 1137 105<98.4285 331.526>
LayerCount: 2
Fore
SplineSet
74 309 m 0xdfc0
 52 335 41 372 41 423 c 2
 41 568 l 2
 41 616 52 652 76 676 c 0
 100 700 134 713 179 713 c 0
 226 713 261 701 283 677 c 0
 305 653 316 616 316 568 c 2
 316 423 l 2
 316 372 305 335 283 309 c 0
 261 283 226 270 179 270 c 0
 131 270 96 283 74 309 c 0xdfc0
609 712 m 1
 711 712 l 1
 315 0 l 1
 215 0 l 1
 609 712 l 1
206 375 m 0
 209 384 211 401 211 428 c 2
 211 555 l 2
 211 581 209 598 205 608 c 0
 201 618 193 623 179 623 c 0
 165 623 157 618 153 608 c 0
 149 598 146 581 146 555 c 2
 146 428 l 2
 146 403 148 386 152 376 c 0
 156 366 165 361 179 361 c 0
 193 361 203 366 206 375 c 0
642 32 m 0
 620 58 608 95 608 146 c 2
 608 292 l 2
 608 340 620 376 644 400 c 0
 668 424 701 436 746 436 c 0xbfc0
 793 436 828 424 850 400 c 0
 872 376 884 340 884 292 c 2
 884 146 l 2
 884 95 872 58 850 32 c 0
 828 6 793 -6 746 -6 c 0
 698 -6 664 6 642 32 c 0
1000 32 m 0
 978 58 967 95 967 146 c 2
 967 292 l 2
 967 340 978 376 1002 400 c 0
 1026 424 1060 436 1105 436 c 0
 1152 436 1187 424 1209 400 c 0
 1231 376 1242 340 1242 292 c 2
 1242 146 l 2
 1242 95 1231 58 1209 32 c 0
 1187 6 1152 -6 1105 -6 c 0
 1057 -6 1022 6 1000 32 c 0
773 98 m 0
 776 107 778 125 778 152 c 2
 778 279 l 2
 778 305 777 322 773 332 c 0
 769 342 760 346 746 346 c 0
 732 346 724 342 720 332 c 0
 716 322 714 305 714 279 c 2
 714 152 l 2
 714 127 715 109 719 99 c 0
 723 89 732 85 746 85 c 0
 760 85 770 89 773 98 c 0
1132 98 m 0
 1135 107 1137 125 1137 152 c 2
 1137 279 l 2
 1137 305 1135 322 1131 332 c 0
 1127 342 1119 346 1105 346 c 0
 1091 346 1082 342 1078 332 c 0
 1074 322 1072 305 1072 279 c 2
 1072 152 l 2
 1072 127 1074 109 1078 99 c 0
 1082 89 1091 85 1105 85 c 0
 1119 85 1129 89 1132 98 c 0
EndSplineSet
Validated: 1
EndChar

StartChar: guilsinglleft
Encoding: 8249 8249 226
Width: 305
GlyphClass: 2
Flags: W
VStem: 18 232
LayerCount: 2
Fore
SplineSet
18 270 m 1
 250 503 l 1
 250 369 l 1
 153 270 l 1
 250 172 l 1
 250 38 l 1
 18 270 l 1
EndSplineSet
Validated: 1
EndChar

StartChar: guilsinglright
Encoding: 8250 8250 227
Width: 315
GlyphClass: 2
Flags: W
VStem: 55 233
LayerCount: 2
Fore
SplineSet
55 172 m 1
 154 270 l 1
 55 369 l 1
 55 503 l 1
 288 270 l 1
 55 38 l 1
 55 172 l 1
EndSplineSet
Validated: 1
EndChar

StartChar: Euro
Encoding: 8364 8364 228
Width: 562
GlyphClass: 2
Flags: W
HStem: -11 108<242.371 368.583> 247 83<28 83 208 370> 381 83<28 83 208 391> 534 21G<390 510> 608 109<240.574 368.493>
VStem: 83 125<132.037 247 330 381 464 574.44> 395 115<534 581.567>
LayerCount: 2
Fore
SplineSet
139 52 m 0
 101 94 83 151 83 224 c 2
 83 247 l 1
 28 247 l 1
 28 330 l 1
 83 330 l 1
 83 381 l 1
 28 381 l 1
 28 464 l 1
 83 464 l 1
 83 488 l 2
 83 558 102 614 140 655 c 0
 178 696 232 717 302 717 c 0
 363 717 412 700 449 668 c 0
 486 636 506 591 510 534 c 1
 395 534 l 1
 385 584 355 608 304 608 c 0
 240 608 208 568 208 487 c 2
 208 464 l 1
 406 464 l 1
 391 381 l 1
 208 381 l 1
 208 330 l 1
 384 330 l 1
 370 247 l 1
 208 247 l 1
 208 223 l 2
 208 183 215 153 231 131 c 0
 247 109 272 97 305 97 c 0
 332 97 353 103 368 116 c 0
 383 129 394 148 399 173 c 1
 511 173 l 1
 506 112 484 66 446 35 c 0
 408 4 360 -11 301 -11 c 0
 231 -11 177 10 139 52 c 0
EndSplineSet
Validated: 1
EndChar

StartChar: trademark
Encoding: 8482 8482 229
Width: 829
GlyphClass: 2
Flags: W
HStem: 624 83<31 139 232 341>
VStem: 139 93<303 624> 398 87<303 514> 683 86<303 514>
LayerCount: 2
Fore
SplineSet
139 624 m 1
 31 624 l 1
 31 707 l 1
 341 707 l 1
 341 624 l 1
 232 624 l 1
 232 303 l 1
 139 303 l 1
 139 624 l 1
398 707 m 1
 484 707 l 1
 584 474 l 1
 587 474 l 1
 684 707 l 1
 769 707 l 1
 769 303 l 1
 683 303 l 1
 683 514 l 1
 680 514 l 1
 615 361 l 1
 553 361 l 1
 487 514 l 1
 485 514 l 1
 485 303 l 1
 398 303 l 1
 398 707 l 1
EndSplineSet
Validated: 1
EndChar

StartChar: fi
Encoding: 64257 64257 230
Width: 588
GlyphClass: 3
Flags: W
HStem: 0 21G<93 219 402 528> 443 89<37 93 219 314> 605 102<400 529> 621 86<232.425 314>
VStem: 93 126<0 443 532 607.575> 402 126<0 532 605 707>
LayerCount: 2
Fore
SplineSet
232 608 m 0xdc
 223 599 219 586 219 569 c 2
 219 532 l 1
 314 532 l 1
 314 443 l 1
 219 443 l 1
 219 0 l 1
 93 0 l 1
 93 443 l 1
 37 443 l 1
 37 532 l 1
 93 532 l 1
 93 564 l 2
 93 609 106 644 132 669 c 0
 158 694 194 707 241 707 c 2
 314 707 l 1
 314 621 l 1
 272 621 l 2
 254 621 241 617 232 608 c 0xdc
402 532 m 1
 528 532 l 1
 528 0 l 1
 402 0 l 1
 402 532 l 1
400 707 m 1xec
 529 707 l 1
 529 605 l 1
 400 605 l 1
 400 707 l 1xec
EndSplineSet
Validated: 1
Ligature2: "'liga' Standard Ligatures lookup 5 subtable" f i
EndChar

StartChar: fl
Encoding: 64258 64258 231
Width: 635
GlyphClass: 3
Flags: W
HStem: 0 110<536.378 617> 443 89<37 93 219 314> 621 86<232.425 314>
VStem: 93 126<0 443 532 607.575> 397 127<123.427 707>
LayerCount: 2
Fore
SplineSet
232 608 m 0
 223 599 219 586 219 569 c 2
 219 532 l 1
 314 532 l 1
 314 443 l 1
 219 443 l 1
 219 0 l 1
 93 0 l 1
 93 443 l 1
 37 443 l 1
 37 532 l 1
 93 532 l 1
 93 564 l 2
 93 609 106 644 132 669 c 0
 158 694 194 707 241 707 c 2
 314 707 l 1
 314 621 l 1
 272 621 l 2
 254 621 241 617 232 608 c 0
440 42 m 0
 412 70 397 110 397 162 c 2
 397 707 l 1
 524 707 l 1
 524 170 l 2
 524 148 528 132 536 123 c 0
 544 114 556 110 574 110 c 2
 617 110 l 1
 617 0 l 1
 559 0 l 2
 508 0 468 14 440 42 c 0
EndSplineSet
Validated: 1
Ligature2: "'liga' Standard Ligatures lookup 5 subtable" f l
EndChar

StartChar: t_t
Encoding: 65539 -1 234
Width: 689
GlyphClass: 3
Flags: W
HStem: 0 108<233.058 317 562.058 646> 443 89<26 99 225 428 554 656>
VStem: 99 126<116.502 443 532 637> 428 126<114.546 443 532 637>
LayerCount: 2
Fore
SplineSet
554 443 m 1
 554 162 l 2
 554 126 571 108 606 108 c 2
 646 108 l 1
 646 0 l 1
 586 0 l 2
 538 0 499 13 471 41 c 0
 443 69 428 107 428 154 c 2
 428 443 l 1
 225 443 l 1
 225 162 l 2
 225 126 243 108 278 108 c 2
 317 108 l 1
 317 0 l 1
 257 0 l 2
 209 0 170 13 142 41 c 0
 114 69 99 107 99 154 c 2
 99 443 l 1
 26 443 l 1
 26 532 l 1
 99 532 l 1
 99 637 l 1
 225 681 l 1
 225 532 l 1
 428 532 l 1
 428 637 l 1
 554 681 l 1
 554 532 l 1
 656 532 l 1
 656 443 l 1
 554 443 l 1
EndSplineSet
Validated: 1
Ligature2: "'dlig' Discretionary Ligatures lookup 4 subtable" t t
EndChar

StartChar: zero.dnom
Encoding: 65540 -1 235
Width: 358
GlyphClass: 2
Flags: W
HStem: -7 91<151.775 206.982> 345 90<152.114 205.478>
VStem: 41 105<98.4746 330.526> 211 105<97.4285 330.526>
LayerCount: 2
Fore
SplineSet
74 31 m 0
 52 57 41 94 41 145 c 2
 41 291 l 2
 41 339 52 375 76 399 c 0
 100 423 134 435 179 435 c 0
 226 435 261 423 283 399 c 0
 305 375 316 339 316 291 c 2
 316 145 l 2
 316 94 305 57 283 31 c 0
 261 5 226 -7 179 -7 c 0
 131 -7 96 5 74 31 c 0
206 97 m 0
 209 106 211 124 211 151 c 2
 211 278 l 2
 211 304 209 321 205 331 c 0
 201 341 193 345 179 345 c 0
 165 345 157 341 153 331 c 0
 149 321 146 304 146 278 c 2
 146 151 l 2
 146 126 148 108 152 98 c 0
 156 88 165 84 179 84 c 0
 193 84 203 88 206 97 c 0
EndSplineSet
Validated: 1
EndChar

StartChar: one.dnom
Encoding: 65541 -1 236
Width: 259
GlyphClass: 2
Flags: W
HStem: 0 21G<99 205>
VStem: 99 106<0 314>
LayerCount: 2
Fore
SplineSet
99 314 m 1
 30 265 l 1
 30 378 l 1
 100 429 l 1
 205 429 l 1
 205 0 l 1
 99 0 l 1
 99 314 l 1
EndSplineSet
Validated: 1
EndChar

StartChar: two.dnom
Encoding: 65542 -1 237
Width: 354
GlyphClass: 2
Flags: W
HStem: 0 91<178 313> 348 88<148.956 200.937>
VStem: 45 268<0 82 301 385.047> 206 107<257.005 337.717>
LayerCount: 2
Fore
SplineSet
45 82 m 1xe0
 185 257 l 2
 199 274 206 290 206 305 c 2
 206 312 l 2xd0
 206 323 203 332 198 338 c 0
 193 344 184 348 174 348 c 0
 164 348 157 345 152 338 c 0
 147 331 143 322 143 310 c 2
 143 301 l 1
 42 301 l 1
 42 316 l 2
 42 351 54 381 79 403 c 0
 104 425 137 436 179 436 c 0
 219 436 251 424 276 401 c 0
 301 378 313 350 313 317 c 2
 313 306 l 2xe0
 313 287 310 269 303 254 c 0
 296 239 286 223 272 207 c 2
 178 91 l 1
 313 91 l 1xd0
 313 0 l 1
 45 0 l 1
 45 82 l 1xe0
EndSplineSet
Validated: 1
EndChar

StartChar: three.dnom
Encoding: 65543 -1 238
Width: 349
GlyphClass: 2
Flags: W
HStem: -7 87<135.138 200.156> 176 87<141 189.716> 348 88<135.252 197.646>
VStem: 38 95<82.3438 124 305 345.142> 207 101<91.3303 171.366 273.33 344.094>
LayerCount: 2
Fore
SplineSet
73 23 m 0
 49 43 38 71 38 109 c 2
 38 124 l 1
 133 124 l 1
 133 114 l 2
 133 91 146 80 171 80 c 0
 182 80 191 84 197 91 c 0
 203 98 207 108 207 121 c 2
 207 130 l 2
 207 161 192 176 163 176 c 2
 141 176 l 1
 141 263 l 1
 162 263 l 2
 174 263 184 266 190 273 c 0
 196 280 200 290 200 302 c 2
 200 310 l 2
 200 335 189 348 168 348 c 0
 145 348 134 337 134 316 c 2
 134 305 l 1
 40 305 l 1
 40 315 l 2
 40 353 52 383 75 404 c 0
 98 425 130 436 172 436 c 0
 212 436 244 425 267 404 c 0
 290 383 301 354 301 319 c 2
 301 310 l 2
 301 273 285 246 254 228 c 1
 272 221 285 210 294 193 c 0
 303 176 308 155 308 132 c 2
 308 121 l 2
 308 82 295 51 270 28 c 0
 245 5 213 -7 174 -7 c 0
 130 -7 97 3 73 23 c 0
EndSplineSet
Validated: 1
EndChar

StartChar: four.dnom
Encoding: 65544 -1 239
Width: 355
GlyphClass: 2
Flags: W
HStem: 0 21G<197 302> 58 92<136 197 302 330>
VStem: 197 105<0 58 150 240>
LayerCount: 2
Fore
SplineSet
330 58 m 1
 302 58 l 1
 302 0 l 1
 197 0 l 1
 197 58 l 1
 31 58 l 1
 31 150 l 1
 148 429 l 1
 254 429 l 1
 136 150 l 1
 197 150 l 1
 197 240 l 1
 302 240 l 1
 302 150 l 1
 330 150 l 1
 330 58 l 1
EndSplineSet
Validated: 1
EndChar

StartChar: zero.numr
Encoding: 65545 -1 240
Width: 358
GlyphClass: 2
Flags: W
HStem: 270 91<151.775 206.001> 623 90<152.114 205.478>
VStem: 41 105<376.474 607.526> 211 105<375.428 607.526>
LayerCount: 2
Fore
SplineSet
74 309 m 0
 52 335 41 372 41 423 c 2
 41 568 l 2
 41 616 52 652 76 676 c 0
 100 700 134 713 179 713 c 0
 226 713 261 701 283 677 c 0
 305 653 316 616 316 568 c 2
 316 423 l 2
 316 372 305 335 283 309 c 0
 261 283 226 270 179 270 c 0
 131 270 96 283 74 309 c 0
206 375 m 0
 209 384 211 401 211 428 c 2
 211 555 l 2
 211 581 209 598 205 608 c 0
 201 618 193 623 179 623 c 0
 165 623 157 618 153 608 c 0
 149 598 146 581 146 555 c 2
 146 428 l 2
 146 403 148 386 152 376 c 0
 156 366 165 361 179 361 c 0
 193 361 203 366 206 375 c 0
EndSplineSet
Validated: 1
EndChar

StartChar: one.numr
Encoding: 65546 -1 241
Width: 259
GlyphClass: 2
Flags: W
HStem: 687 20G<73.0769 205>
VStem: 99 106<278 592>
LayerCount: 2
Fore
SplineSet
99 592 m 1
 30 543 l 1
 30 655 l 1
 100 707 l 1
 205 707 l 1
 205 278 l 1
 99 278 l 1
 99 592 l 1
EndSplineSet
Validated: 1
EndChar

StartChar: two.numr
Encoding: 65547 -1 242
Width: 354
GlyphClass: 2
Flags: W
HStem: 278 91<178 313> 626 88<145.728 200.937>
VStem: 42 101<579 624> 206 107<535.005 615.717>
LayerCount: 2
Fore
SplineSet
45 359 m 1
 185 535 l 2
 199 552 206 568 206 583 c 2
 206 590 l 2
 206 601 203 610 198 616 c 0
 193 622 184 626 174 626 c 0
 164 626 157 622 152 615 c 0
 147 608 143 600 143 588 c 2
 143 579 l 1
 42 579 l 1
 42 594 l 2
 42 630 54 658 79 680 c 0
 104 702 137 714 179 714 c 0
 219 714 251 702 276 679 c 0
 301 656 313 628 313 595 c 2
 313 584 l 2
 313 565 310 547 303 532 c 0
 296 517 286 500 272 484 c 2
 178 369 l 1
 313 369 l 1
 313 278 l 1
 45 278 l 1
 45 359 l 1
EndSplineSet
Validated: 1
EndChar

StartChar: three.numr
Encoding: 65548 -1 243
Width: 349
GlyphClass: 2
Flags: W
HStem: 270 87<135.138 200.156> 454 87<141 189.716> 626 88<135.252 197.646>
VStem: 38 95<359.344 401 583 623.142> 207 101<368.33 449.609 551.33 622.094>
LayerCount: 2
Fore
SplineSet
73 300 m 0
 49 320 38 348 38 386 c 2
 38 401 l 1
 133 401 l 1
 133 391 l 2
 133 368 146 357 171 357 c 0
 182 357 191 361 197 368 c 0
 203 375 207 385 207 398 c 2
 207 408 l 2
 207 439 192 454 163 454 c 2
 141 454 l 1
 141 541 l 1
 162 541 l 2
 174 541 184 544 190 551 c 0
 196 558 200 568 200 580 c 2
 200 588 l 2
 200 613 189 626 168 626 c 0
 145 626 134 615 134 594 c 2
 134 583 l 1
 40 583 l 1
 40 593 l 2
 40 631 52 661 75 682 c 0
 98 703 130 714 172 714 c 0
 212 714 244 703 267 682 c 0
 290 661 301 632 301 597 c 2
 301 588 l 2
 301 551 285 524 254 506 c 1
 272 499 285 487 294 470 c 0
 303 453 308 433 308 410 c 2
 308 398 l 2
 308 359 295 328 270 305 c 0
 245 282 213 270 174 270 c 0
 130 270 97 280 73 300 c 0
EndSplineSet
Validated: 1
EndChar

StartChar: four.numr
Encoding: 65549 -1 244
Width: 355
GlyphClass: 2
Flags: W
HStem: 336 91<136 197 302 330> 687 20G<139.643 254>
VStem: 197 105<278 336 427 517>
LayerCount: 2
Fore
SplineSet
330 336 m 1
 302 336 l 1
 302 278 l 1
 197 278 l 1
 197 336 l 1
 31 336 l 1
 31 427 l 1
 148 707 l 1
 254 707 l 1
 136 427 l 1
 197 427 l 1
 197 517 l 1
 302 517 l 1
 302 427 l 1
 330 427 l 1
 330 336 l 1
EndSplineSet
Validated: 1
EndChar

StartChar: zero.sups
Encoding: 65550 -1 245
Width: 358
GlyphClass: 2
Flags: W
HStem: 433 91<151.775 206.001> 785 91<152.114 205.478>
VStem: 41 105<539.474 770.526> 211 105<538.428 770.526>
LayerCount: 2
Fore
SplineSet
74 472 m 0
 52 498 41 535 41 586 c 2
 41 731 l 2
 41 779 52 815 76 839 c 0
 100 863 134 876 179 876 c 0
 226 876 261 864 283 840 c 0
 305 816 316 779 316 731 c 2
 316 586 l 2
 316 535 305 498 283 472 c 0
 261 446 226 433 179 433 c 0
 131 433 96 446 74 472 c 0
206 538 m 0
 209 547 211 564 211 591 c 2
 211 718 l 2
 211 744 209 761 205 771 c 0
 201 781 193 785 179 785 c 0
 165 785 157 781 153 771 c 0
 149 761 146 744 146 718 c 2
 146 591 l 2
 146 566 148 549 152 539 c 0
 156 529 165 524 179 524 c 0
 193 524 203 529 206 538 c 0
EndSplineSet
Validated: 1
EndChar

StartChar: one.sups
Encoding: 65551 -1 246
Width: 259
GlyphClass: 2
Flags: W
HStem: 706 21G<30 58.1633>
VStem: 99 106<440 755>
LayerCount: 2
Fore
SplineSet
99 755 m 1
 30 706 l 1
 30 818 l 1
 100 869 l 1
 205 869 l 1
 205 440 l 1
 99 440 l 1
 99 755 l 1
EndSplineSet
Validated: 1
EndChar

StartChar: two.sups
Encoding: 65552 -1 247
Width: 354
GlyphClass: 2
Flags: W
HStem: 440 91<178 313> 788 89<148.956 200.937>
VStem: 45 268<440 522 741 825.344> 206 107<697.005 778.717>
LayerCount: 2
Fore
SplineSet
45 522 m 1xe0
 185 697 l 2
 199 714 206 730 206 745 c 2
 206 753 l 2xd0
 206 764 203 773 198 779 c 0
 193 785 184 788 174 788 c 0
 164 788 157 785 152 778 c 0
 147 771 143 763 143 751 c 2
 143 741 l 1
 42 741 l 1
 42 757 l 2
 42 793 54 821 79 843 c 0
 104 865 137 877 179 877 c 0
 219 877 251 865 276 842 c 0
 301 819 313 791 313 758 c 2
 313 746 l 2xe0
 313 727 310 710 303 695 c 0
 296 680 286 663 272 647 c 2
 178 531 l 1
 313 531 l 1xd0
 313 440 l 1
 45 440 l 1
 45 522 l 1xe0
EndSplineSet
Validated: 1
EndChar

StartChar: three.sups
Encoding: 65553 -1 248
Width: 349
GlyphClass: 2
Flags: W
HStem: 433 87<135.138 200.156> 616 87<141 189.716> 788 89<135.167 197.761>
VStem: 38 95<522.344 564 745 786.142> 207 101<531.33 611.366 714.33 783.595>
LayerCount: 2
Fore
SplineSet
73 463 m 0
 49 483 38 511 38 549 c 2
 38 564 l 1
 133 564 l 1
 133 554 l 2
 133 531 146 520 171 520 c 0
 182 520 191 524 197 531 c 0
 203 538 207 548 207 561 c 2
 207 570 l 2
 207 601 192 616 163 616 c 2
 141 616 l 1
 141 703 l 1
 162 703 l 2
 174 703 184 707 190 714 c 0
 196 721 200 730 200 742 c 2
 200 751 l 2
 200 776 189 788 168 788 c 0
 145 788 134 778 134 757 c 2
 134 745 l 1
 40 745 l 1
 40 756 l 2
 40 794 52 824 75 845 c 0
 98 866 130 877 172 877 c 0
 212 877 244 866 267 845 c 0
 290 824 301 795 301 760 c 2
 301 751 l 2
 301 714 285 687 254 669 c 1
 272 662 285 650 294 633 c 0
 303 616 308 595 308 572 c 2
 308 561 l 2
 308 522 295 491 270 468 c 0
 245 445 213 433 174 433 c 0
 130 433 97 443 73 463 c 0
EndSplineSet
Validated: 1
EndChar

StartChar: four.sups
Encoding: 65554 -1 249
Width: 355
GlyphClass: 2
Flags: W
HStem: 499 91<136 197 302 330>
VStem: 197 105<440 499 590 680>
LayerCount: 2
Fore
SplineSet
330 499 m 1
 302 499 l 1
 302 440 l 1
 197 440 l 1
 197 499 l 1
 31 499 l 1
 31 590 l 1
 148 869 l 1
 254 869 l 1
 136 590 l 1
 197 590 l 1
 197 680 l 1
 302 680 l 1
 302 590 l 1
 330 590 l 1
 330 499 l 1
EndSplineSet
Validated: 1
EndChar

StartChar: glyph249
Encoding: 65555 -1 250
Width: 208
GlyphClass: 2
Flags: W
HStem: 0 21G<-138 -26.9045> 692 20G<244.933 357>
LayerCount: 2
Fore
SplineSet
256 712 m 1
 357 712 l 1
 -38 0 l 1
 -138 0 l 1
 256 712 l 1
EndSplineSet
Validated: 1
EndChar
